# This file uses centimeters as units for non-parametric coordinates.

mtllib Relic_Greed01.mtl
g default
v -9.800000 0.180000 9.800000
v 9.800000 0.180000 9.800000
v 9.800000 17.820000 9.800000
v 9.800000 17.820000 -9.800000
v -9.800000 0.180000 -9.800000
v 9.800000 0.180000 -9.800000
v -7.622325 17.551476 9.800000
v -8.766776 16.786776 9.800000
v -9.531474 15.642325 9.800000
v -9.800000 14.292353 9.800000
v -6.272353 17.820000 9.800000
v -9.800000 14.292353 -9.800000
v -9.531474 15.642325 -9.800000
v -8.766776 16.786776 -9.800000
v -7.622325 17.551476 -9.800000
v -6.272353 17.820000 -9.800000
v 9.800000 14.292353 9.800000
v 9.800000 14.292353 -9.800000
v 9.800000 15.642325 -9.800000
v 9.800000 15.642325 9.800000
v 9.800000 16.786776 -9.800000
v 9.800000 16.786776 9.800000
v 9.800000 17.551476 -9.800000
v 9.800000 17.551476 9.800000
v -10.000000 0.000000 10.000000
v 10.000000 0.000000 10.000000
v 10.000000 18.000000 10.000000
v 10.000000 18.000000 -10.000000
v -10.000000 0.000000 -10.000000
v 10.000000 0.000000 -10.000000
v -7.777883 17.725994 10.000000
v -8.945690 16.945690 10.000000
v -9.725994 15.777882 10.000000
v -10.000000 14.400360 10.000000
v -6.400360 18.000000 10.000000
v -10.000000 14.400360 -10.000000
v -9.725994 15.777882 -10.000000
v -8.945690 16.945690 -10.000000
v -7.777883 17.725994 -10.000000
v -6.400360 18.000000 -10.000000
v -7.864250 15.864250 10.000000
v -7.192612 16.313026 10.000000
v -8.313025 15.192612 10.000000
v -8.500000 14.252625 10.000000
v -8.500000 1.499998 10.000000
v 8.500000 1.499998 10.000000
v 8.500000 16.500000 10.000000
v -6.252623 16.500000 10.000000
v 8.500000 16.500000 -10.000000
v 8.500000 1.499998 -10.000000
v -8.500000 1.499998 -10.000000
v -8.500000 14.252625 -10.000000
v -8.313025 15.192612 -10.000000
v -7.864250 15.864250 -10.000000
v -7.192612 16.313026 -10.000000
v -6.252623 16.500000 -10.000000
v -6.400360 18.000000 -8.500000
v -6.400360 18.000000 8.500000
v -10.000000 14.400360 8.500000
v -10.000000 14.400360 -8.500000
v -9.725994 15.777882 8.500000
v -9.725994 15.777882 -8.500000
v -8.945690 16.945690 8.500000
v -8.945690 16.945690 -8.500000
v -7.777883 17.725994 8.500000
v -7.777883 17.725994 -8.500000
v -10.000000 1.499997 -8.500000
v -10.000000 1.499997 8.500000
v 10.000000 1.499998 8.500000
v 10.000000 1.499998 -8.500000
v 10.000000 16.500000 -8.500000
v 10.000000 16.500000 8.500000
v -8.500000 0.000000 8.500000
v -8.500000 0.000000 -8.500000
v 8.500000 0.000000 8.500000
v 8.500000 0.000000 -8.500000
v 8.500000 18.000000 8.500000
v 8.500000 18.000000 -8.500000
v 8.500000 16.500000 8.500000
v 8.500000 16.500000 -8.500000
v 8.500000 1.499997 8.500000
v 8.500000 1.499997 -8.500000
v -8.500000 1.499997 8.500000
v -8.500000 1.499997 -8.500000
v -7.864250 15.864250 8.500000
v -7.192612 16.313026 8.500000
v -8.313025 15.192612 8.500000
v -8.500000 14.252625 8.500000
v -6.252623 16.500000 8.500000
v -8.313025 15.192612 -8.500000
v -8.500000 14.252625 -8.500000
v -7.864250 15.864250 -8.500000
v -7.192612 16.313026 -8.500000
v -6.252623 16.500000 -8.500000
v -10.358492 13.738204 10.358492
v -10.358492 13.738205 -10.358492
v 10.358492 13.738205 10.358492
v 10.358492 13.738205 -10.358492
v -10.358492 12.261793 10.358492
v 10.358492 12.261793 10.358492
v 10.358490 12.261793 -10.358490
v -10.358490 12.261793 -10.358490
v -9.651385 13.738204 9.358492
v -9.651385 13.738205 -9.651385
v 9.651385 13.738205 9.358492
v 9.651385 13.738205 -9.651385
v -9.651385 12.261793 9.651385
v 9.651385 12.261793 9.358492
v 9.651384 12.261793 -9.651384
v -9.651384 12.261793 -9.651384
v -10.755284 13.113815 1.557444
v -9.799091 13.113815 1.557444
v -10.755284 13.113815 -1.557444
v -9.799091 13.113815 -1.557444
v -10.755284 8.458055 0.623071
v -10.755284 9.392428 1.557444
v -9.799091 9.392428 1.557444
v -9.799091 8.458055 0.623071
v -10.755284 8.458055 -0.623071
v -10.755284 9.392428 -1.557444
v -9.799091 8.458055 -0.623071
v -9.799091 9.392428 -1.557444
v -9.799091 12.369537 1.557444
v -10.755284 12.369537 1.557444
v -10.755284 12.369537 -1.557444
v -9.799091 12.369537 -1.557444
v -10.870284 12.369537 1.557444
v -10.870284 12.369537 -1.557444
v -10.870284 13.113815 1.557444
v -10.870284 13.113815 -1.557444
vt 0.525677 0.273839
vt 0.525677 0.003906
vt 0.747027 0.003906
vt 0.747027 0.273839
vt 0.506721 0.003906
vt 0.506721 0.273839
vt 0.487765 0.003906
vt 0.487765 0.273839
vt 0.468809 0.003906
vt 0.468809 0.273839
vt 0.273839 0.552983
vt 0.003906 0.552983
vt 0.003906 0.283050
vt 0.273839 0.283050
vt 0.003907 0.826618
vt 0.003906 0.556685
vt 0.246846 0.556685
vt 0.246846 0.826618
vt 0.255496 0.273839
vt 0.255496 0.003906
vt 0.449853 0.003906
vt 0.449853 0.273839
vt 0.768768 0.517454
vt 0.758263 0.533233
vt 0.742519 0.543791
vt 0.723934 0.547521
vt 0.529577 0.547848
vt 0.529122 0.277916
vt 0.772062 0.277506
vt 0.772435 0.498856
vt 0.529256 0.551550
vt 0.772196 0.551697
vt 0.772033 0.821630
vt 0.577676 0.821513
vt 0.559087 0.817803
vt 0.543331 0.807262
vt 0.532809 0.791494
vt 0.529122 0.772900
vt 0.723479 0.277588
vt 0.198263 0.826618
vt 0.577839 0.551579
vt 0.198263 0.556685
vt 0.559247 0.551568
vt 0.216855 0.556685
vt 0.742071 0.277557
vt 0.216855 0.826618
vt 0.543486 0.551559
vt 0.232616 0.556685
vt 0.757832 0.277530
vt 0.232617 0.826618
vt 0.532955 0.551552
vt 0.243148 0.556685
vt 0.768364 0.277512
vt 0.243148 0.826618
vt 0.926247 0.024564
vt 0.926247 0.258690
vt 0.905589 0.279348
vt 0.905589 0.003906
vt 0.248030 0.248745
vt 0.237284 0.264828
vt 0.222390 0.249935
vt 0.228571 0.240685
vt 0.221201 0.275575
vt 0.213140 0.256115
vt 0.202230 0.279348
vt 0.200195 0.258690
vt 0.024564 0.258690
vt 0.003906 0.279348
vt 0.905589 0.558478
vt 0.905589 0.283036
vt 0.926247 0.303694
vt 0.926247 0.537819
vt 0.003906 0.251804
vt 0.003906 0.003906
vt 0.024564 0.024564
vt 0.024565 0.231146
vt 0.251804 0.003906
vt 0.251804 0.229774
vt 0.231146 0.227739
vt 0.231146 0.024564
vt 0.081036 0.251804
vt 0.081036 0.003906
vt 0.101694 0.024564
vt 0.101694 0.231146
vt 0.928083 0.545180
vt 0.928083 0.820622
vt 0.907425 0.799964
vt 0.907425 0.565838
vt 0.525431 0.552976
vt 0.327108 0.552976
vt 0.329142 0.532318
vt 0.504773 0.532318
vt 0.308136 0.549202
vt 0.316197 0.529743
vt 0.292053 0.538456
vt 0.306947 0.523562
vt 0.281306 0.522373
vt 0.300766 0.514312
vt 0.277533 0.503401
vt 0.298191 0.501367
vt 0.277533 0.277534
vt 0.298191 0.298192
vt 0.802749 0.234987
vt 0.802749 0.003906
vt 0.823884 0.025041
vt 0.823884 0.234987
vt 0.777039 0.025041
vt 0.798174 0.003906
vt 0.798174 0.234987
vt 0.777039 0.234987
vt 0.075984 0.231146
vt 0.055326 0.251804
vt 0.055326 0.003906
vt 0.075984 0.024564
vt 0.029616 0.024564
vt 0.050274 0.003906
vt 0.050274 0.251804
vt 0.029616 0.231146
vt 0.823671 0.478648
vt 0.802997 0.499325
vt 0.802980 0.300833
vt 0.823656 0.300832
vt 0.797944 0.300833
vt 0.797934 0.499325
vt 0.777260 0.478648
vt 0.777268 0.300832
vt 0.802864 0.281845
vt 0.823769 0.281844
vt 0.798059 0.281845
vt 0.777154 0.281845
vt 0.802749 0.270850
vt 0.823884 0.270850
vt 0.798174 0.270851
vt 0.777039 0.270851
vt 0.802749 0.254396
vt 0.823884 0.254396
vt 0.798174 0.254396
vt 0.777039 0.254396
vt 0.951957 0.267886
vt 0.951957 0.543328
vt 0.931299 0.522670
vt 0.931299 0.288545
vt 0.931299 0.279348
vt 0.931299 0.003906
vt 0.951957 0.024564
vt 0.951957 0.258690
vt 0.879879 0.537823
vt 0.879879 0.303697
vt 0.900537 0.283039
vt 0.900537 0.558481
vt 0.902373 0.837614
vt 0.881715 0.816956
vt 0.881715 0.582830
vt 0.902373 0.562172
vt 0.876663 0.813519
vt 0.856005 0.834177
vt 0.856005 0.558735
vt 0.876663 0.579393
vt 0.879879 0.024564
vt 0.900537 0.003906
vt 0.900537 0.279349
vt 0.879879 0.258690
vt 0.854169 0.313577
vt 0.874827 0.292919
vt 0.874827 0.568360
vt 0.854169 0.547702
vt 0.409755 0.511667
vt 0.409755 0.277541
vt 0.430413 0.277541
vt 0.430413 0.511667
vt 0.404703 0.277541
vt 0.404703 0.511666
vt 0.384045 0.511666
vt 0.384045 0.277541
vt 0.358335 0.763259
vt 0.358335 0.556678
vt 0.378994 0.556678
vt 0.378994 0.763259
vt 0.327574 0.556678
vt 0.327574 0.763259
vt 0.306916 0.763259
vt 0.306916 0.556678
vt 0.353284 0.277541
vt 0.353284 0.511667
vt 0.332626 0.511667
vt 0.332626 0.277541
vt 0.204534 0.003906
vt 0.204534 0.210488
vt 0.183875 0.210488
vt 0.183875 0.003906
vt 0.332626 0.763259
vt 0.332626 0.556678
vt 0.353284 0.556678
vt 0.353284 0.763259
vt 0.456123 0.277541
vt 0.456123 0.511667
vt 0.435465 0.511667
vt 0.435465 0.277541
vt 0.933135 0.781150
vt 0.933135 0.547024
vt 0.953793 0.547024
vt 0.953793 0.781150
vt 0.481833 0.277541
vt 0.481833 0.511667
vt 0.461175 0.511667
vt 0.461175 0.277541
vt 0.306916 0.511667
vt 0.306916 0.277541
vt 0.327574 0.277541
vt 0.327574 0.511667
vt 0.178824 0.003906
vt 0.178824 0.238032
vt 0.158166 0.238032
vt 0.158166 0.003906
vt 0.486885 0.511667
vt 0.486885 0.277541
vt 0.507543 0.277541
vt 0.507543 0.511667
vt 0.378994 0.277541
vt 0.378994 0.511666
vt 0.358335 0.511666
vt 0.358335 0.277541
vt 0.153427 0.223302
vt 0.153427 0.232692
vt 0.132456 0.232692
vt 0.132456 0.223302
vt 0.153427 0.238966
vt 0.132456 0.238966
vt 0.384045 0.745381
vt 0.384045 0.732426
vt 0.404717 0.732426
vt 0.404717 0.745381
vt 0.153427 0.003906
vt 0.153427 0.210160
vt 0.132456 0.210160
vt 0.132456 0.003906
vt 0.384045 0.556678
vt 0.404717 0.556678
vt 0.430427 0.732427
vt 0.430427 0.745381
vt 0.409755 0.745381
vt 0.409755 0.732427
vt 0.106746 0.238967
vt 0.106746 0.232693
vt 0.127717 0.232693
vt 0.127717 0.238967
vt 0.106746 0.223303
vt 0.127717 0.223303
vt 0.106746 0.210161
vt 0.127717 0.210161
vt 0.106746 0.003906
vt 0.127717 0.003906
vt 0.430427 0.556678
vt 0.409755 0.556678
vt 0.277533 0.549630
vt 0.298191 0.549630
vt 0.298191 0.752804
vt 0.277533 0.754839
vt 0.805488 0.794877
vt 0.826146 0.796912
vt 0.822372 0.815883
vt 0.802913 0.807823
vt 0.826146 0.591703
vt 0.805488 0.591703
vt 0.811626 0.831966
vt 0.796732 0.817073
vt 0.795543 0.842713
vt 0.787482 0.823253
vt 0.776571 0.846486
vt 0.774537 0.825828
vt 0.598906 0.846486
vt 0.598906 0.825828
vt 0.281307 0.773810
vt 0.300766 0.765750
vt 0.306947 0.775000
vt 0.292053 0.789893
vt 0.316197 0.781180
vt 0.308136 0.800640
vt 0.329142 0.783755
vt 0.327108 0.804413
vt 0.504773 0.783755
vt 0.504773 0.804413
vt 0.848792 0.003906
vt 0.848792 0.289223
vt 0.828459 0.289223
vt 0.828459 0.003906
vt 0.874502 0.003906
vt 0.874502 0.289223
vt 0.854169 0.289223
vt 0.854169 0.003906
vt 0.828459 0.578241
vt 0.828459 0.292925
vt 0.848792 0.292925
vt 0.848792 0.578241
vt 0.830295 0.867259
vt 0.830295 0.581943
vt 0.850629 0.581943
vt 0.850629 0.867259
vt 0.958845 0.891161
vt 0.958845 0.605845
vt 0.968583 0.619617
vt 0.968583 0.881423
vt 0.508922 0.865495
vt 0.508922 0.556671
vt 0.519463 0.567211
vt 0.523829 0.854954
vt 0.983239 0.575327
vt 0.983239 0.859597
vt 0.973536 0.849895
vt 0.973536 0.585030
vt 0.968583 0.321073
vt 0.968583 0.606390
vt 0.958845 0.596651
vt 0.958845 0.330812
vt 0.967708 0.003906
vt 0.967708 0.317379
vt 0.957008 0.306680
vt 0.957008 0.014606
vt 0.986391 0.288178
vt 0.986391 0.003906
vt 0.996094 0.013609
vt 0.996094 0.278476
vt 0.973536 0.575833
vt 0.973536 0.290517
vt 0.983275 0.300256
vt 0.983275 0.566095
vt 0.981438 0.003906
vt 0.981438 0.289223
vt 0.971700 0.279484
vt 0.971700 0.013645
vt 0.752913 0.003906
vt 0.766082 0.003906
vt 0.766082 0.044907
vt 0.752913 0.044907
vt 0.752913 0.165448
vt 0.766082 0.165448
vt 0.766082 0.208346
vt 0.752913 0.208346
vt 0.764498 0.099860
vt 0.751329 0.099860
vt 0.751329 0.058859
vt 0.764498 0.058859
vt 0.766044 0.147367
vt 0.751329 0.147367
vt 0.751329 0.128191
vt 0.766044 0.128191
vt 0.435465 0.569546
vt 0.478364 0.569546
vt 0.478364 0.610547
vt 0.435465 0.610547
vt 0.766044 0.113812
vt 0.751329 0.113812
vt 0.766044 0.161746
vt 0.751329 0.161746
vt 0.448333 0.556678
vt 0.465495 0.556678
vt 0.766082 0.055158
vt 0.752913 0.055158
vt 0.761580 0.212048
vt 0.761580 0.254946
vt 0.751329 0.254946
vt 0.751329 0.212048
vt 0.764498 0.110111
vt 0.751329 0.110111
vt 0.209585 0.046805
vt 0.209585 0.003906
vt 0.211169 0.003906
vt 0.211169 0.046805
vt 0.751329 0.055158
vt 0.751329 0.044907
vt 0.751329 0.208346
vt 0.751329 0.165448
vt 0.766082 0.099860
vt 0.766082 0.110111
vn -0.015411 0.999881 0.000000
vn -0.015411 0.999881 0.000000
vn 0.000000 1.000000 0.000000
vn 0.000000 1.000000 0.000000
vn 0.000000 -1.000000 0.000000
vn 0.000000 -1.000000 0.000000
vn 0.000000 -1.000000 0.000000
vn 0.000000 -1.000000 0.000000
vn 1.000000 0.000000 0.000000
vn 1.000000 0.000000 0.000000
vn 1.000000 0.000000 0.000000
vn 1.000000 0.000000 0.000000
vn -1.000000 0.000000 0.000000
vn -1.000000 0.000000 0.000000
vn -0.999849 0.017364 0.000000
vn -0.999849 0.017364 0.000000
vn -0.923880 0.382684 0.000000
vn -0.923880 0.382684 0.000000
vn -0.707107 0.707107 0.000000
vn -0.707107 0.707107 0.000000
vn -0.382684 0.923880 0.000000
vn -0.382684 0.923880 0.000000
vn 0.000000 0.000000 1.000000
vn 0.000000 0.000000 1.000000
vn 0.000000 0.000000 1.000000
vn 0.000000 0.000000 1.000000
vn 0.000000 0.000000 -1.000000
vn 0.000000 0.000000 -1.000000
vn 0.000000 0.000000 -1.000000
vn 0.000000 0.000000 -1.000000
vn 0.000000 0.000000 1.000000
vn 0.000000 0.000000 1.000000
vn 1.000000 0.000000 0.000000
vn 1.000000 0.000000 0.000000
vn 0.000000 0.000000 -1.000000
vn 0.000000 0.000000 -1.000000
vn 0.000000 0.000000 -1.000000
vn 0.000000 0.000000 -1.000000
vn 1.000000 0.000000 0.000000
vn 1.000000 0.000000 0.000000
vn 0.000000 0.000000 -1.000000
vn 0.000000 0.000000 -1.000000
vn 0.000000 0.000000 1.000000
vn 0.000000 0.000000 1.000000
vn 1.000000 0.000000 0.000000
vn 1.000000 0.000000 0.000000
vn 0.000000 0.000000 1.000000
vn 0.000000 0.000000 1.000000
vn 0.000000 0.000000 1.000000
vn 0.000000 0.000000 1.000000
vn 0.000000 0.000000 -1.000000
vn 0.000000 0.000000 -1.000000
vn 1.000000 0.000000 0.000000
vn 1.000000 0.000000 0.000000
vn 0.000000 -1.000000 0.000000
vn 0.000000 -1.000000 0.000000
vn 0.000000 -1.000000 0.000000
vn 0.000000 -1.000000 0.000000
vn 0.000000 0.000000 1.000000
vn 0.000000 0.000000 1.000000
vn 0.000000 0.000000 1.000000
vn 0.000000 0.000000 1.000000
vn 0.000000 0.000000 1.000000
vn 0.000000 0.000000 1.000000
vn 0.000000 0.000000 1.000000
vn 0.000000 0.000000 1.000000
vn 0.000000 0.000000 1.000000
vn 0.000000 0.000000 1.000000
vn -0.000000 0.000000 1.000000
vn -0.000000 0.000000 1.000000
vn -0.000000 0.000000 1.000000
vn -0.000000 0.000000 1.000000
vn 0.000000 0.000000 1.000000
vn 0.000000 0.000000 1.000000
vn 0.000000 0.000000 -1.000000
vn 0.000000 0.000000 -1.000000
vn 0.000000 0.000000 -1.000000
vn 0.000000 0.000000 -1.000000
vn 0.000000 0.000000 -1.000000
vn 0.000000 0.000000 -1.000000
vn 0.000000 0.000000 -1.000000
vn 0.000000 0.000000 -1.000000
vn 0.000000 0.000000 -1.000000
vn 0.000000 0.000000 -1.000000
vn 0.000000 0.000000 -1.000000
vn 0.000000 0.000000 -1.000000
vn 0.000000 0.000000 -1.000000
vn 0.000000 0.000000 -1.000000
vn 0.000000 0.000000 -1.000000
vn 0.000000 0.000000 -1.000000
vn -0.016090 0.999871 0.000000
vn 0.000000 1.000000 0.000000
vn 0.000000 1.000000 0.000000
vn -0.016090 0.999871 0.000000
vn 0.000000 1.000000 0.000000
vn 0.000000 1.000000 0.000000
vn -0.016090 0.999871 0.000000
vn -0.016090 0.999871 0.000000
vn 1.000000 0.000000 0.000000
vn 1.000000 0.000000 0.000000
vn 1.000000 0.000000 0.000000
vn 1.000000 0.000000 0.000000
vn 1.000000 0.000000 0.000000
vn 1.000000 0.000000 0.000000
vn 1.000000 0.000000 0.000000
vn 1.000000 0.000000 0.000000
vn -1.000000 0.000000 0.000000
vn -1.000000 0.000000 0.000000
vn -0.999834 0.018230 0.000000
vn -0.999834 0.018230 0.000000
vn -0.999834 0.018230 0.000000
vn -1.000000 0.000000 0.000000
vn -1.000000 0.000000 0.000000
vn -0.999834 0.018230 0.000000
vn -0.923880 0.382683 0.000000
vn -0.923880 0.382683 0.000000
vn -0.923880 0.382683 0.000000
vn -0.923880 0.382683 0.000000
vn -0.707107 0.707107 0.000000
vn -0.707107 0.707107 0.000000
vn -0.707107 0.707107 0.000000
vn -0.707107 0.707107 0.000000
vn -0.382683 0.923880 0.000000
vn -0.382683 0.923880 0.000000
vn -0.382683 0.923880 0.000000
vn -0.382683 0.923880 0.000000
vn 0.000000 -1.000000 0.000000
vn 0.000000 -1.000000 0.000000
vn 0.000000 -1.000000 0.000000
vn 0.000000 -1.000000 0.000000
vn 0.000000 1.000000 0.000000
vn 0.000000 1.000000 0.000000
vn 0.000000 1.000000 0.000000
vn 0.000000 1.000000 0.000000
vn -1.000000 0.000000 0.000000
vn -1.000000 0.000000 0.000000
vn -1.000000 0.000000 0.000000
vn -1.000000 0.000000 0.000000
vn 0.000000 -1.000000 0.000000
vn 0.000000 -1.000000 0.000000
vn 0.000000 -1.000000 0.000000
vn 0.000000 -1.000000 0.000000
vn 0.000000 0.000000 -1.000000
vn 0.000000 0.000000 -1.000000
vn 0.000000 0.000000 -1.000000
vn 0.000000 0.000000 -1.000000
vn 0.000000 0.000000 1.000000
vn 0.000000 0.000000 1.000000
vn 0.000000 0.000000 1.000000
vn 0.000000 0.000000 1.000000
vn -0.000001 1.000000 0.000000
vn -0.000001 1.000000 0.000000
vn -0.000001 1.000000 0.000000
vn -0.000001 1.000000 0.000000
vn -1.000000 0.000000 0.000000
vn -1.000000 0.000000 0.000000
vn -1.000000 0.000000 0.000000
vn -1.000000 0.000000 0.000000
vn -1.000000 0.000000 0.000000
vn -1.000000 0.000000 0.000000
vn -1.000000 0.000000 0.000000
vn -1.000000 0.000000 0.000000
vn 0.000000 0.000000 -1.000000
vn 0.000000 0.000000 -1.000000
vn 0.000000 0.000000 -1.000000
vn 0.000000 0.000000 -1.000000
vn 0.000000 0.000000 1.000000
vn 0.000000 0.000000 1.000000
vn 0.000000 0.000000 1.000000
vn 0.000000 0.000000 1.000000
vn -1.000000 0.000000 0.000000
vn -1.000000 0.000000 0.000000
vn -1.000000 0.000000 0.000000
vn -1.000000 0.000000 0.000000
vn 0.000000 1.000000 0.000001
vn 0.000000 1.000000 0.000001
vn 0.000000 1.000000 0.000001
vn 0.000000 1.000000 0.000001
vn 0.000000 1.000000 -0.000001
vn 0.000000 1.000000 -0.000001
vn 0.000000 1.000000 -0.000001
vn 0.000000 1.000000 -0.000001
vn 1.000000 0.000000 0.000000
vn 1.000000 0.000000 0.000000
vn 1.000000 0.000000 0.000000
vn 1.000000 0.000000 0.000000
vn 0.000000 1.000000 0.000000
vn 0.000000 1.000000 0.000000
vn 0.000000 1.000000 0.000000
vn 0.000000 1.000000 0.000000
vn 0.366957 -0.930238 0.000000
vn 0.707107 -0.707106 0.000000
vn 0.707107 -0.707106 0.000000
vn 0.366957 -0.930238 0.000000
vn 0.930238 -0.366958 0.000000
vn 0.930238 -0.366958 0.000000
vn 0.999907 -0.013654 0.000000
vn 0.999907 -0.013654 0.000000
vn 0.000000 -1.000000 0.000000
vn 0.011914 -0.999929 0.000000
vn 0.011914 -0.999929 0.000000
vn 0.000000 -1.000000 0.000000
vn 1.000000 0.000000 0.000000
vn 1.000000 0.000000 0.000000
vn 0.999907 -0.013654 0.000000
vn 0.930238 -0.366958 0.000000
vn 0.930238 -0.366958 0.000000
vn 0.999907 -0.013654 0.000000
vn 0.707107 -0.707106 0.000000
vn 0.707107 -0.707106 0.000000
vn 0.366957 -0.930238 0.000000
vn 0.366957 -0.930238 0.000000
vn 0.011914 -0.999929 0.000000
vn 0.011914 -0.999929 0.000000
vn 0.000000 -1.000000 0.000000
vn 0.000000 -1.000000 0.000000
vn 1.000000 0.000000 0.000000
vn 1.000000 0.000000 0.000000
vn 0.000000 0.000000 -1.000000
vn 0.000000 0.000000 -1.000000
vn 0.000000 0.000000 -1.000000
vn 0.000000 0.000000 -1.000000
vn 0.000000 0.000000 1.000000
vn 0.000000 0.000000 1.000000
vn 0.000000 0.000000 1.000000
vn 0.000000 0.000000 1.000000
vn 0.000000 0.000000 1.000000
vn 0.000000 0.000000 1.000000
vn 0.000000 0.000000 1.000000
vn 0.000000 0.000000 1.000000
vn 0.000000 0.000000 1.000000
vn 0.000000 0.000000 1.000000
vn 0.000000 0.000000 1.000000
vn 0.000000 0.000000 1.000000
vn 0.000000 0.000000 1.000000
vn 0.000000 0.000000 1.000000
vn 0.000000 0.000000 -1.000000
vn 0.000000 0.000000 -1.000000
vn 0.000000 0.000000 -1.000000
vn 0.000000 0.000000 -1.000000
vn 0.000000 0.000000 -1.000000
vn 0.000000 0.000000 -1.000000
vn 0.000000 0.000000 -1.000000
vn 0.000000 0.000000 -1.000000
vn 0.000000 0.000000 -1.000000
vn 0.000000 0.000000 -1.000000
vn -1.000000 -0.000001 -0.000000
vn -1.000000 -0.000001 -0.000000
vn -1.000000 -0.000001 -0.000000
vn -1.000000 -0.000001 -0.000000
vn 0.000000 0.000000 1.000000
vn 0.000000 0.000000 1.000000
vn 0.000000 0.000000 1.000000
vn 0.000000 0.000000 1.000000
vn 1.000000 -0.000001 -0.000000
vn 1.000000 -0.000001 -0.000000
vn 1.000000 -0.000001 -0.000000
vn 1.000000 -0.000001 -0.000000
vn 0.000000 -0.000001 -1.000000
vn 0.000000 -0.000001 -1.000000
vn 0.000000 -0.000001 -1.000000
vn 0.000000 -0.000001 -1.000000
vn 0.000000 1.000000 -0.000001
vn -0.000000 1.000000 0.000001
vn -0.000000 1.000000 0.000001
vn 0.000000 1.000000 -0.000001
vn -0.000000 1.000000 0.000001
vn -0.000000 1.000000 0.000001
vn 0.000000 1.000000 -0.000001
vn 0.000000 1.000000 -0.000001
vn 0.000000 -1.000000 -0.000000
vn 0.000000 -1.000000 -0.000000
vn 0.000000 -1.000000 -0.000000
vn 0.000000 -1.000000 -0.000000
vn 0.000000 -1.000000 -0.000000
vn 0.000000 -1.000000 -0.000000
vn 0.000000 -1.000000 -0.000000
vn 0.000000 -1.000000 -0.000000
vn 0.000000 0.000000 1.000000
vn 0.000000 0.000000 1.000000
vn 0.000000 0.000000 1.000000
vn 0.000000 0.000000 1.000000
vn 0.000000 1.000000 0.000000
vn 0.000000 1.000000 0.000000
vn 0.000000 1.000000 0.000000
vn 0.000000 1.000000 0.000000
vn 0.000000 0.000000 -1.000000
vn 0.000000 0.000000 -1.000000
vn 0.000000 0.000000 -1.000000
vn 0.000000 0.000000 -1.000000
vn 0.000000 -1.000000 0.000000
vn 0.000000 -1.000000 0.000000
vn 0.000000 -1.000000 0.000000
vn 0.000000 -1.000000 0.000000
vn -1.000000 0.000000 0.000000
vn -1.000000 0.000000 0.000000
vn -1.000000 0.000000 0.000000
vn -1.000000 0.000000 0.000000
vn 0.000000 -0.707107 0.707107
vn 0.000000 -0.707107 0.707107
vn 0.000000 -0.707107 0.707107
vn 0.000000 -0.707107 0.707107
vn 0.000000 -0.707107 -0.707107
vn 0.000000 -0.707107 -0.707107
vn 0.000000 -0.707107 -0.707107
vn 0.000000 -0.707107 -0.707107
vn -1.000000 0.000000 0.000000
vn -1.000000 0.000000 0.000000
vn 0.000000 0.000000 1.000000
vn 0.000000 0.000000 1.000000
vn -1.000000 0.000000 0.000000
vn -1.000000 0.000000 0.000000
vn -1.000000 0.000000 0.000000
vn -1.000000 0.000000 0.000000
vn 0.000000 0.000000 -1.000000
vn 0.000000 0.000000 -1.000000
vn 0.000000 -1.000000 0.000000
vn 0.000000 -1.000000 0.000000
vn 0.000000 -1.000000 0.000000
vn 0.000000 -1.000000 0.000000
vn 0.000000 0.000000 1.000000
vn 0.000000 0.000000 1.000000
vn 0.000000 0.000000 1.000000
vn 0.000000 0.000000 1.000000
vn 0.000000 1.000000 0.000000
vn 0.000000 1.000000 0.000000
vn 0.000000 1.000000 0.000000
vn 0.000000 1.000000 0.000000
vn 0.000000 0.000000 -1.000000
vn 0.000000 0.000000 -1.000000
vn 0.000000 0.000000 -1.000000
vn 0.000000 0.000000 -1.000000
s 1
g Relic_Greed01 Fix
usemtl lambert2SG
f 16/1/1 11/2/2 3/3/3 4/4/4
s off
f 5/11/5 6/12/6 2/13/7 1/14/8
s 2
f 17/40/9 18/42/10 19/44/11 20/46/12
s 1
f 5/19/13 1/20/14 10/21/15 12/22/16
f 10/21/15 9/9/17 13/10/18 12/22/16
f 9/9/17 8/7/19 14/8/20 13/10/18
f 8/7/19 7/5/21 15/6/22 14/8/20
f 7/5/21 11/2/2 16/1/1 15/6/22
s 4
f 20/45/23 9/25/24 10/26/25 17/39/26
s 5
f 4/31/27 23/51/28 15/37/29 16/38/30
s 4
f 17/39/26 10/26/25 1/27/31 2/28/32
s 2
f 2/15/33 6/16/34 18/42/10 17/40/9
s 5
f 12/34/35 18/41/36 6/32/37 5/33/38
s 2
f 20/46/12 19/44/11 21/48/39 22/50/40
s 5
f 13/35/41 19/43/42 18/41/36 12/34/35
s 4
f 22/49/43 8/24/44 9/25/24 20/45/23
s 2
f 22/50/40 21/48/39 23/52/45 24/54/46
s 4
f 7/23/47 24/53/48 3/29/49 11/30/50
s 5
f 14/36/51 21/47/52 19/43/42 13/35/41
s 2
f 24/54/46 23/52/45 4/17/53 3/18/54
s 5
f 15/37/29 23/51/28 21/47/52 14/36/51
s 4
f 7/23/47 8/24/44 22/49/43 24/53/48
s 7
f 75/55/55 76/56/56 30/57/57 26/58/58
s 8
f 31/59/59 32/60/60 41/61/61 42/62/62
f 32/60/60 33/63/63 43/64/64 41/61/61
f 33/63/63 34/65/65 44/66/66 43/64/64
f 45/67/67 44/66/66 34/65/65 25/68/68
f 25/69/68 26/70/69 46/71/70 45/72/67
f 26/73/69 27/74/71 47/75/72 46/76/70
f 27/77/71 35/78/73 48/79/74 47/80/72
f 35/78/73 31/59/59 42/62/62 48/79/74
s 9
f 28/81/75 30/82/76 50/83/77 49/84/78
f 30/85/76 29/86/79 51/87/80 50/88/77
f 29/89/79 36/90/81 52/91/82 51/92/80
f 36/90/81 37/93/83 53/94/84 52/91/82
f 37/93/83 38/95/85 54/96/86 53/94/84
f 38/95/85 39/97/87 55/98/88 54/96/86
f 39/97/87 40/99/89 56/100/90 55/98/88
f 40/99/89 28/101/75 49/102/78 56/100/90
s 10
f 35/103/91 27/104/92 77/105/93 58/106/94
f 78/107/95 28/108/96 40/109/97 57/110/98
s 12
f 70/111/99 30/112/100 28/113/101 71/114/102
f 72/115/103 27/116/104 26/117/105 69/118/106
s 10
f 68/119/107 25/120/108 34/121/109 59/122/110
f 36/123/111 29/124/112 67/125/113 60/126/114
f 34/121/109 33/127/115 61/128/116 59/122/110
f 37/129/117 36/123/111 60/126/114 62/130/118
f 33/127/115 32/131/119 63/132/120 61/128/116
f 38/133/121 37/129/117 62/130/118 64/134/122
f 32/131/119 31/135/123 65/136/124 63/132/120
f 39/137/125 38/133/121 64/134/122 66/138/126
f 31/135/123 35/103/91 58/106/94 65/136/124
f 40/109/97 39/137/125 66/138/126 57/110/98
f 29/139/112 25/140/108 68/141/107 67/142/113
s 12
f 26/143/105 30/144/100 70/145/99 69/146/106
f 72/147/103 71/148/102 28/149/101 27/150/104
s 7
f 29/151/127 74/152/128 73/153/129 25/154/130
f 75/155/55 26/156/58 25/157/130 73/158/129
f 74/159/128 29/160/127 30/161/57 76/162/56
s off
f 77/163/131 27/164/132 28/165/133 78/166/134
f 77/167/135 78/168/136 80/169/137 79/170/138
f 79/171/139 80/172/140 71/173/141 72/174/142
f 72/175/143 69/176/144 81/177/145 79/178/146
f 70/179/147 71/180/148 80/181/149 82/182/150
f 69/183/151 70/184/152 82/185/153 81/186/154
f 82/187/155 80/188/156 49/189/157 50/190/158
f 79/191/159 81/192/160 46/193/161 47/194/162
f 75/195/163 73/196/164 83/197/165 81/198/166
f 74/199/167 76/200/168 82/201/169 84/202/170
f 76/203/171 75/204/172 81/205/173 82/206/174
f 84/207/175 82/208/176 50/209/177 51/210/178
f 81/211/179 83/212/180 45/213/181 46/214/182
f 73/215/183 74/216/184 84/217/185 83/218/186
f 83/219/187 84/220/188 67/221/189 68/222/190
s 14
f 42/223/191 41/224/192 85/225/193 86/226/194
f 41/224/192 43/227/195 87/228/196 85/225/193
f 43/229/195 44/230/197 88/231/198 87/232/196
f 47/233/199 48/234/200 89/235/201 79/236/202
f 48/234/200 42/223/191 86/226/194 89/235/201
f 44/230/197 45/237/203 83/238/204 88/231/198
s 15
f 52/239/205 53/240/206 90/241/207 91/242/208
f 53/243/206 54/244/209 92/245/210 90/246/207
f 54/244/209 55/247/211 93/248/212 92/245/210
f 55/247/211 56/249/213 94/250/214 93/248/212
f 56/249/213 49/251/215 80/252/216 94/250/214
f 51/253/217 52/239/205 91/242/208 84/254/218
s 16
f 77/255/219 79/256/220 89/257/221 58/258/222
s 17
f 94/259/223 57/260/224 66/261/225 93/262/226
f 78/263/227 57/260/224 94/259/223 80/264/228
f 93/262/226 66/261/225 64/265/229 92/266/230
f 92/266/230 64/265/229 62/267/231 90/268/232
f 90/268/232 62/267/231 60/269/233 91/270/234
f 91/270/234 60/269/233 67/271/235 84/272/236
s 16
f 65/273/237 86/274/238 85/275/239 63/276/240
f 58/258/222 89/257/221 86/274/238 65/273/237
f 63/276/240 85/275/239 87/277/241 61/278/242
f 61/278/242 87/277/241 88/279/243 59/280/244
f 59/280/244 88/279/243 83/281/245 68/282/246
s off
f 102/283/247 99/284/248 95/285/249 96/286/250
f 97/287/251 95/288/252 99/289/253 100/290/254
f 100/291/255 101/292/256 98/293/257 97/294/258
f 96/295/259 98/296/260 101/297/261 102/298/262
s 18
f 96/299/263 95/300/264 103/301/265 104/302/266
f 95/303/264 97/304/267 105/305/268 103/306/265
f 97/307/267 98/308/269 106/309/270 105/310/268
f 98/311/269 96/312/263 104/313/266 106/314/270
s 19
f 100/315/271 99/316/272 107/317/273 108/318/274
f 101/319/275 100/320/271 108/321/274 109/322/276
f 102/323/277 101/324/275 109/325/276 110/326/278
f 99/327/272 102/328/277 110/329/278 107/330/273
s 20
f 116/331/279 117/332/280 123/333/281 124/334/282
s off
f 111/335/283 112/336/284 114/337/285 113/338/286
s 21
f 125/339/287 126/340/288 122/341/289 120/342/290
s off
f 119/343/291 121/344/292 118/345/293 115/346/294
s 22
f 120/347/295 116/348/296 124/349/297 125/350/298
s off
f 116/351/299 115/346/300 118/345/301 117/352/302
f 119/343/303 120/353/304 122/354/305 121/344/306
s 22
f 120/347/295 119/355/307 115/356/308 116/348/296
s 20
f 124/334/282 123/333/281 112/357/309 111/358/310
s off
f 128/359/311 127/360/312 129/361/313 130/362/314
s 21
f 113/363/315 114/364/316 126/340/288 125/339/287
s off
f 125/365/317 124/366/318 127/367/319 128/368/320
f 124/334/321 111/358/322 129/369/323 127/370/324
f 111/335/325 113/338/326 130/371/327 129/372/328
f 113/363/329 125/339/330 128/373/331 130/374/332
