# This file uses centimeters as units for non-parametric coordinates.

mtllib Relic_Pride01.mtl
g default
v 25.029516 37.490120 8.979316
v 22.915960 33.677685 11.076787
v 24.287516 33.603416 8.656550
v 25.158115 33.816959 6.048682
v 20.454996 28.926067 13.356322
v 22.035479 28.806318 10.965891
v 23.511005 28.876060 8.114141
v 24.463478 29.244013 4.969424
v 17.544523 23.100914 15.412146
v 19.576353 23.100910 13.289776
v 21.310730 23.100908 10.602388
v 22.806656 23.100910 7.443214
v 23.734564 23.100916 3.791870
v 23.962536 23.100925 -0.051509
v 25.156713 40.534332 10.103992
v 25.691368 42.859951 9.933847
v 24.515345 41.265049 11.248577
v 25.185583 43.420090 10.245149
v 23.674589 41.653854 11.722359
v 22.869265 41.622864 11.541671
v -19.569492 33.552094 14.992258
v -17.874598 29.208210 15.535750
v -22.248619 36.611511 12.818735
v -20.777868 32.542755 13.549502
v -23.381462 35.821342 10.891115
v -25.459021 38.658466 8.431207
v -11.548137 29.352661 -20.028494
v -11.003682 28.104147 -20.543322
v -10.324035 25.975063 -20.809866
v 2.659048 25.971354 -22.396582
v 1.841969 27.610083 -22.702038
v -22.326822 41.277218 12.486989
v -24.086517 43.370007 10.589412
v -25.115896 43.835701 8.709575
v -13.674198 25.593391 -15.972455
v -14.252799 25.924938 -16.339983
v -15.880980 25.008499 -14.674432
v -14.696104 25.635317 -16.889717
v -16.368507 24.712399 -15.178167
v -18.087790 24.560158 -13.088750
v -14.727164 24.571564 -17.616611
v -16.650082 23.367144 -15.719211
v -18.427639 23.100874 -13.309188
v -20.363073 23.656303 -10.776616
v -25.898661 44.372276 9.353549
v -26.075195 43.975357 8.348380
v -24.946253 42.948071 7.648132
v -26.168615 43.154495 7.174054
v -26.657782 42.407146 7.537486
v -24.739370 41.525692 6.145288
v -26.151957 41.661175 5.698789
v -26.535053 41.029392 6.308762
v -0.559997 27.600046 -23.483831
v 0.797466 27.386337 -23.444031
v 0.632396 28.940207 -23.409624
v 0.299633 52.771648 22.674814
v 0.713400 49.556404 21.984549
v 0.756508 47.021301 21.913698
v 4.599537 43.954533 22.521980
v 0.632704 44.009945 21.736362
v 2.996176 47.015182 23.475069
v 3.944201 43.865997 23.543139
v 14.301728 23.100885 -14.112090
v 12.000864 23.100891 -15.964464
v 6.398541 25.378887 -20.322767
v 6.694452 25.031366 -21.145847
v 8.338738 25.845634 -18.881964
v 8.240267 26.978714 -19.722725
v 8.652781 27.067787 -20.500441
v 11.120367 26.089172 -17.341187
v 12.243786 27.537691 -17.296652
v 11.327230 29.031961 -18.327494
v 12.920481 27.831238 -17.793362
v 12.058848 29.418425 -18.640694
v 10.099170 27.728943 -18.412134
v 10.758315 30.003717 -19.104792
v 6.109783 24.497656 -19.575470
v 3.878396 24.231075 -20.204069
v 4.299183 25.196573 -20.906914
v -0.701099 51.597702 22.420115
v -0.701621 51.483974 22.895325
v -1.813026 49.698410 22.431971
v 13.741863 26.934227 17.031637
v 13.307249 27.533278 -18.432901
v 13.181661 26.482019 -19.160061
v 11.863482 27.860388 -19.995201
v 24.500275 43.439369 9.805276
v 22.225861 40.529873 10.268984
v -0.126526 37.009293 21.189850
v 2.152544 37.196163 21.849060
v 0.230348 40.655380 21.524586
v 2.116809 37.222099 22.972038
v 2.193289 40.629700 23.322199
v -24.696121 43.223255 10.765745
v -18.676266 37.197678 12.397796
v -19.279688 38.042946 13.244228
v 6.143728 23.100891 -19.047071
v 3.555296 23.100889 -19.736719
v -0.219897 37.174461 23.183205
v -0.177215 40.636555 23.424110
v -2.285885 40.628452 23.190138
v -0.308335 43.897141 23.617252
v -4.299060 43.990425 23.382164
v -3.899323 44.044643 22.083429
v -0.291921 46.845837 23.553436
v -3.050673 47.126526 23.322344
v -2.720981 47.180691 22.127176
v -0.289780 49.403950 23.369007
v -1.719031 49.490616 23.047953
v -0.209046 51.461754 23.158701
v 14.804626 23.735022 -14.224470
v 12.888791 24.630074 -15.932532
v 26.353403 43.177990 7.409026
v 26.285397 41.445896 5.479884
v 25.354088 41.360703 5.270899
v 23.963417 40.407475 6.018890
v 25.994024 38.422241 3.463572
v 25.110168 38.409481 2.870306
v 23.947569 37.714882 3.114627
v 25.440676 34.639297 1.419783
v 24.653351 34.760094 0.444026
v 24.632164 30.622442 -0.791686
v 24.005516 31.031008 -2.007495
v 23.772873 23.100939 -3.310667
v -21.366726 40.239155 11.221751
v -21.800303 41.120876 11.912647
v -23.694227 42.900791 9.943762
v 16.670191 29.564281 15.359704
v 16.016470 28.655909 14.454874
v 18.196774 31.344790 11.375587
v -18.254450 23.100925 8.442235
v -19.499628 29.800138 7.683704
v -20.883015 33.702721 6.842616
v -19.775414 23.100924 4.653225
v -20.639139 29.044277 4.007922
v -20.568190 23.100918 0.904362
v -21.039532 27.923330 0.331244
v -20.340107 23.100910 -2.731022
v -20.770851 26.620285 -3.262376
v -19.520693 23.100904 -6.110743
v -18.289930 23.100901 -9.139716
v -16.719118 23.100901 -11.746440
v 10.343822 26.299341 18.654457
v 6.738159 27.291426 20.045681
v -0.279886 33.429058 22.798468
v -0.298883 29.213884 22.317747
v -11.866937 30.061005 -19.493069
v -1.452885 25.525848 -23.272453
v -10.670101 29.532291 -18.876909
v -11.634119 30.222897 -18.904835
v -9.903591 27.298630 -18.295609
v -11.262127 28.553610 -18.081036
v -12.189192 29.008137 -18.316725
v -16.802011 30.800764 14.554910
v -17.161436 30.362045 15.417257
v -18.129244 30.261345 11.032485
v -19.462330 34.083042 10.073424
v 11.228539 25.540094 -20.452164
v -21.628571 32.378754 3.197884
v -21.902313 30.433493 -0.401193
v -19.821432 25.459124 -6.604304
v -12.880757 23.100916 -15.794097
v -14.891768 23.100906 -13.965277
v -15.385659 24.604797 -14.255800
v -17.076042 24.315735 -12.116636
v -18.570017 24.611322 -9.560264
v -17.550587 24.827103 -12.596992
v -19.096977 25.213638 -10.066586
v -20.434883 26.476208 -7.156328
v -21.399162 28.335045 -3.900814
v -19.720825 25.104479 -10.583089
v -21.129599 26.395557 -7.509750
v -22.220928 28.694950 -4.198134
v -22.813931 31.641264 -0.888406
v -22.803471 34.725925 2.268012
v -21.957891 25.397810 -7.547061
v -23.058302 28.424477 -4.241937
v 26.492144 42.693676 8.024151
v 26.045036 40.344788 7.990080
v 26.478653 40.885674 6.630177
v 25.714584 37.643291 7.027387
v 26.099836 38.028950 5.087812
v 25.541208 34.231873 3.460906
v 24.817032 29.901733 1.750141
v 18.226555 23.100925 9.169793
v 19.645643 23.100922 5.910843
v 20.504292 23.100914 2.638160
v 20.573895 23.100904 -0.657677
v 20.085781 23.100897 -3.876637
v 19.129667 23.100889 -6.914814
v 17.828543 23.100885 -9.640341
v 16.242290 23.100883 -12.022753
v 16.563425 23.459557 -12.259598
v -24.333288 39.068729 4.064519
v -25.847759 39.095978 3.914195
v -26.187429 38.581856 5.014546
v -24.149349 35.704739 1.457033
v -25.378456 35.531433 1.859760
v -25.612200 34.990273 3.568940
v -24.626431 31.411644 -0.288809
v -23.851254 27.037243 -2.725044
v -8.265577 27.000534 19.039442
v -4.788453 28.940041 20.001841
v -8.114141 27.250118 19.763327
v -20.878101 39.013824 10.379090
v -22.913540 40.433735 7.906224
v -23.363991 41.951424 9.075174
v 23.724525 34.358261 0.339734
v 23.236828 30.942383 -2.282537
v 23.083710 27.881723 -5.065641
v 22.356670 28.195879 -5.318148
v 21.835772 24.993267 -8.095500
v 21.134884 26.118172 -8.313388
v 19.487709 30.424438 8.665739
v 20.400354 29.500956 5.344013
v 21.092497 28.232954 2.057101
v 21.030075 26.850325 -1.235921
v 20.415409 25.540747 -4.416337
v 19.365992 24.458944 -7.380333
v 18.079153 23.717258 -9.992655
v 20.563219 34.485584 8.076126
v 21.519995 33.287323 4.681564
v 21.850531 31.407629 1.316195
v 21.659437 29.315935 -1.886564
v 20.955086 27.392115 -4.973082
v -11.587447 26.726534 17.537340
v 25.521822 43.249786 7.296769
v -18.061125 34.149097 12.221400
v -16.719524 30.829653 13.309166
v -18.042662 34.294189 13.615407
v -11.011272 23.100929 -17.261131
v -12.252982 27.171888 -17.111143
v -13.045763 27.516651 -17.513544
v -12.597692 28.844709 -18.915283
v -13.475911 27.270521 -18.107393
v -13.413016 26.552614 -18.911922
v 11.369967 29.942648 -19.783037
v 19.227737 36.411514 11.242937
v 17.710182 32.810993 13.067157
v -5.355589 24.523897 -19.721415
v -5.732167 25.535677 -20.311672
v -6.242789 25.653625 -20.880491
v -6.928833 25.054592 -21.409811
v -20.332634 37.062431 9.688299
v 9.694739 28.823416 -19.262470
v 9.978948 29.063307 -20.056419
v 10.749671 28.716381 -20.375210
v 3.351297 47.055969 22.662577
v 1.946620 49.461216 22.741770
v 0.432352 51.564384 22.161379
v 0.789922 51.417408 22.728542
v 20.267065 23.507456 -11.121594
v 19.672750 25.015106 -11.045044
v 18.527485 23.082323 -13.648664
v -1.262472 29.197527 -22.399498
v -1.418871 28.591349 -22.810347
v 1.771713 49.453068 23.234915
v 0.767308 51.479332 23.083601
v -2.091698 27.652340 -21.682156
v -2.539438 27.334694 -22.265675
v -2.395916 26.535660 -22.840710
v -2.301934 23.100889 -19.887583
v -5.436156 23.100891 -19.183485
v -3.902854 23.100912 19.092495
v -4.099061 26.926256 19.452789
v -8.169616 25.761309 18.321560
v -9.333671 28.389805 -19.064608
v -9.461022 28.761131 -19.871325
v -10.352962 30.121857 -19.498861
v -8.783480 26.866077 -20.997835
v -9.973727 28.689417 -20.477486
v -10.681240 30.078312 -20.095257
v 4.368407 24.752083 -21.879456
v 9.530941 26.456205 -20.974632
v 14.681810 24.557514 -17.772779
v 0.915164 27.711191 -21.228001
v 2.640460 26.162270 -21.419306
v 18.114765 33.815678 14.250672
v 19.644527 37.820801 12.689775
v 17.357506 29.566910 15.740218
v 18.872892 34.174244 14.919557
v 20.576471 38.617527 13.822473
v 20.150806 34.118435 14.650904
v 21.797220 38.690487 13.809874
v 22.932272 38.161495 12.464768
v -1.023707 27.689360 -21.154242
v 1.263103 29.149948 -22.478033
v 0.777193 29.504835 -21.963814
v -0.418321 29.942913 -22.973270
v -0.394835 28.939123 -23.216198
v 0.522549 29.959967 -23.198370
v 0.748614 23.100918 19.575796
v -3.146911 33.286827 21.375168
v -2.893274 33.410931 22.426004
v -4.055729 29.473101 21.938950
v -12.466599 28.233774 -19.614458
v -24.719261 39.335743 10.218324
v -21.239117 37.459370 14.097284
v -20.347183 38.323734 14.335562
v -0.851406 23.100885 -22.870785
v -0.517303 29.544950 -21.888491
v -26.533497 43.313267 8.673845
v -26.204691 41.088654 8.083474
v -25.882864 41.840370 9.401443
v -25.360439 42.654892 10.418589
v -23.908268 40.141716 11.700830
v -23.072269 40.897423 12.556451
v -25.977221 38.325642 6.580074
v -25.358023 34.778194 5.947231
v -24.587248 35.114525 8.546835
v -24.888103 30.706717 2.051439
v -24.599712 30.457315 5.145746
v -23.448170 30.863218 8.309305
v -22.191866 31.601231 11.281735
v -24.032515 25.950613 0.498929
v -23.830849 25.587448 4.312917
v -22.491066 25.978022 7.958001
v -20.955202 26.791100 11.267097
v -19.461462 27.858139 14.062000
v 2.393610 33.600426 21.307312
v 5.939008 26.449902 19.296856
v 9.760549 25.742851 17.979603
v 13.133346 26.357626 16.295069
v 14.623423 25.743433 -17.124237
v 17.524904 24.894316 -12.929753
v 15.867219 25.118746 -14.867645
v 12.313607 29.075348 -19.316172
v 15.352109 24.882116 -14.497422
v 14.182056 26.093500 -16.543289
v -11.407112 26.606478 18.327427
v -8.169105 23.100906 17.884979
v -12.027685 23.100908 15.895215
v -11.775001 25.828060 16.652018
v 5.290962 23.100910 18.895658
v 9.344950 23.100908 17.577747
v 12.840850 23.100912 15.621348
v 18.067741 24.556808 -13.319344
v 16.622562 23.348763 -15.828358
v 16.346920 24.745241 -15.333266
v 22.702589 36.078316 3.904138
v 22.725492 33.396526 0.662668
v 22.426838 30.508451 -2.248078
v 21.616304 28.122135 -5.272680
v 20.464531 26.300776 -8.139966
v 19.823566 25.908182 -7.838439
v 19.069084 25.273151 -10.725675
v 18.497126 24.994053 -10.374010
v 16.998930 24.632441 -12.562719
v 2.339113 40.661804 22.142309
v -2.370607 37.142464 22.812677
v -2.278139 37.102184 21.741419
v -2.064501 40.663990 21.921373
v -7.955997 25.531090 -18.897715
v -7.807292 26.712345 -19.602528
v -8.120979 27.060869 -20.338886
v 13.660241 25.878027 -16.153461
v 3.315896 29.750669 22.050385
v 2.480809 33.641552 22.568537
v 3.873548 30.161432 20.721361
v -23.200602 23.100880 -0.877599
v -23.094841 23.100878 3.606205
v -21.748894 23.100880 7.599535
v -20.055466 23.100887 11.225161
v -18.158092 23.100901 14.442823
v -16.199150 23.100876 -15.913114
v -20.378687 23.100876 -10.256537
v -0.232067 52.785561 22.717337
v 26.108189 41.881203 9.125362
v 10.607927 23.100891 -20.265072
v 26.157486 44.085297 8.881908
v 24.157366 42.264729 8.327099
v 10.520432 23.100912 19.417480
v -0.240788 23.100916 21.740572
v 18.901926 29.208899 15.163674
v 21.510214 33.895958 13.189716
v 24.029741 37.761749 10.832280
v -14.826997 27.521990 14.605033
v -14.618824 27.912254 15.911142
v -14.601037 27.456928 16.806633
v -5.284047 29.754747 20.708683
v 20.231127 23.100876 -10.609928
v 18.354883 23.100872 -13.494132
v 16.231289 23.100876 -15.965483
v -3.466343 26.064978 -21.002901
v -3.971647 25.878401 -21.586596
v -4.285407 24.938915 -22.076675
v 1.797902 27.730038 -21.912107
v -23.820049 31.833984 -0.988662
v -12.285914 25.682432 -19.845922
v -11.063182 23.100910 19.184904
v 1.132437 28.385162 20.051794
v -26.380924 40.411716 6.988060
v -12.002013 27.509497 -20.151930
v -25.256453 44.351963 9.408656
v 0.548555 30.489323 -22.724159
v 1.369841 28.724192 -22.877293
v 7.525009 23.100899 -21.578999
v -11.017802 30.803555 -19.872429
v -2.145948 25.073582 -20.504549
v -8.956635 23.100899 -17.804279
v 25.523489 44.098930 8.664469
v 21.867323 38.115082 7.943704
v -6.139143 23.100922 21.012445
v 22.211008 23.100887 -6.364761
v -15.275352 23.100918 16.958534
v 25.573864 39.775196 9.096558
v -15.982101 23.100927 12.714198
v 14.772729 23.100922 17.390676
v -11.126140 30.858591 -19.305798
v 19.326172 34.558506 10.469006
v 5.537206 23.100924 21.139954
v 16.294985 23.100931 12.799560
v -18.800758 36.362137 11.502546
v 13.544146 23.100889 -18.502872
v 9.225904 23.100901 -17.798790
v -18.559919 34.914860 14.670694
v 1.331091 25.081717 -20.620327
v 26.435884 43.463718 9.100849
v -13.141430 23.100893 -18.655510
v 12.620165 24.987133 -19.621490
v 3.536983 23.100891 -22.616297
v -0.239945 30.584480 -22.364912
v 11.599471 30.415291 -19.155434
v 10.697587 30.225304 -19.891399
v 0.318222 52.708229 22.922226
v -0.083300 52.905308 23.004385
v 0.229557 52.660866 22.352108
v -0.301974 52.681301 22.419710
v -0.888173 32.463531 20.679304
v 0.953946 24.633564 -23.172445
v -1.466478 27.893978 -23.295444
v -20.129629 39.207481 13.569385
v -22.376595 23.100891 -5.783380
v -4.045744 23.100897 -22.548037
v -8.799972 23.100897 -21.019150
v -22.407667 37.393810 6.125082
v -26.212120 43.807243 9.525869
v 16.879381 -0.522730 8.434900
v 18.127283 -0.522745 12.243863
v 16.248837 -0.522741 14.206014
v 15.093627 -0.522724 11.790654
v 13.686287 -0.522734 16.035185
v 11.900247 -0.522743 14.399425
v 18.191343 -0.522734 5.421970
v 19.730730 -0.522747 9.759348
v 18.985170 -0.522741 2.396344
v 21.113728 -0.522745 6.838662
v -14.746844 -0.522728 11.711737
v -16.758570 -0.522755 13.309867
v -11.090949 -0.522747 14.652617
v -14.093448 -0.522738 15.635666
v -16.847652 -0.522730 7.762266
v -18.512709 -0.522768 10.335107
v -7.523655 -0.522749 16.492172
v -3.579466 -0.522743 17.608532
v -5.646937 -0.522734 19.383545
v -10.199257 -0.522745 17.693966
v 3.298734 -0.522764 -20.951641
v 6.985702 -0.522757 -19.992649
v 5.708694 -0.522764 -17.651857
v 3.315664 -0.522766 -18.289444
v 18.732628 -0.522779 -9.851639
v 20.563047 -0.522768 -5.926942
v 17.714317 -0.522766 -6.435472
v 16.511415 -0.522770 -8.955247
v -8.106897 -0.522758 -19.475063
v -12.120617 -0.522762 -17.289856
v -8.251734 -0.522757 -16.502884
v -10.151266 -0.522726 -16.000740
v -11.879622 -0.522739 -14.644452
v -14.947508 -0.522779 -14.754484
v -13.738821 -0.522749 -12.953691
v -17.007767 -0.522781 -12.347130
v -15.428224 -0.522755 -10.902355
v -16.880455 -0.522755 -8.492414
v -18.811529 -0.522779 -9.524926
v -20.658615 -0.522764 -5.389450
v -18.018307 -0.522751 -5.692100
v 9.835889 -0.522764 -18.777910
v 12.550450 -0.522766 -17.148741
v 11.123672 -0.522764 -14.801958
v 8.558194 -0.522755 -16.497810
v 15.034739 -0.522779 -14.802900
v 13.250842 -0.522770 -13.089421
v 15.044910 -0.522772 -11.157809
v 16.998022 -0.522783 -12.518113
v 4.920304 -0.522745 17.426556
v 5.147959 -0.522732 19.501427
v 8.668254 -0.522747 16.208134
v 9.754998 -0.522743 17.908983
v -0.193851 -0.522739 20.056705
v 0.720860 -0.522738 18.055349
v -21.420416 -0.522776 -0.854009
v -18.775862 -0.522745 -2.567516
v -21.322639 -0.522778 3.291310
v -18.986727 -0.522738 0.793431
v -20.078299 -0.522776 6.983182
v -18.253798 -0.522732 4.259291
v 19.049520 -0.522751 -0.650689
v 21.971588 -0.522739 3.462960
v 22.007006 -0.522717 -3.103403
v 22.182350 -0.522730 -0.090281
v 18.598253 -0.522758 -3.626648
v -3.711570 -0.522758 -20.888533
v -4.997018 -0.522764 -17.777973
v -0.758374 -0.522770 -21.186916
v -2.099400 -0.522766 -18.428919
vt 0.233688 0.120912
vt 0.225928 0.112146
vt 0.241293 0.104554
vt 0.243178 0.115507
vt 0.226383 0.128956
vt 0.214858 0.125420
vt 0.237335 0.124867
vt 0.235450 0.130402
vt 0.243178 0.123618
vt 0.200249 0.117562
vt 0.214861 0.098130
vt 0.210865 0.140917
vt 0.193822 0.138812
vt 0.224193 0.138724
vt 0.237685 0.088214
vt 0.262744 0.088957
vt 0.257996 0.104854
vt 0.253934 0.115993
vt 0.164602 0.126724
vt 0.174969 0.098036
vt 0.194983 0.158332
vt 0.161049 0.152025
vt 0.212217 0.153454
vt 0.198421 0.072598
vt 0.231425 0.056354
vt 0.266496 0.052338
vt 0.199131 0.172128
vt 0.159467 0.177635
vt 0.293556 0.055299
vt 0.281763 0.096624
vt 0.234795 0.137197
vt 0.241299 0.129078
vt 0.240590 0.133997
vt 0.241559 0.137028
vt 0.235821 0.141916
vt 0.244270 0.132300
vt 0.245728 0.133882
vt 0.246820 0.129036
vt 0.225570 0.147382
vt 0.243764 0.139301
vt 0.237518 0.145336
vt 0.247131 0.135776
vt 0.227174 0.152546
vt 0.244050 0.150715
vt 0.231302 0.158535
vt 0.251042 0.141510
vt 0.810864 0.154340
vt 0.815804 0.141362
vt 0.833852 0.141740
vt 0.827152 0.162827
vt 0.799917 0.146688
vt 0.802809 0.137633
vt 0.803510 0.160268
vt 0.795970 0.151231
vt 0.818955 0.169288
vt 0.860271 0.138616
vt 0.861512 0.170376
vt 0.835544 0.187099
vt 0.791356 0.135185
vt 0.789653 0.126805
vt 0.801334 0.124776
vt 0.789672 0.141508
vt 0.813927 0.122129
vt 0.550850 0.769342
vt 0.830811 0.113616
vt 0.791863 0.112499
vt 0.801344 0.102990
vt 0.783895 0.119214
vt 0.774941 0.115842
vt 0.777148 0.106050
vt 0.777693 0.123557
vt 0.773728 0.121281
vt 0.781292 0.128142
vt 0.588550 0.044109
vt 0.584669 0.046571
vt 0.580013 0.044461
vt 0.584923 0.040274
vt 0.590053 0.047625
vt 0.586332 0.047824
vt 0.594379 0.043754
vt 0.594760 0.048514
vt 0.591745 0.039425
vt 0.571649 0.040211
vt 0.580876 0.032813
vt 0.596399 0.033588
vt 0.572446 0.017124
vt 0.611443 0.024265
vt 0.558148 0.033081
vt 0.493944 0.033866
vt 0.502962 0.034686
vt 0.502354 0.039114
vt 0.493727 0.041313
vt 0.503939 0.020052
vt 0.507791 0.028847
vt 0.480151 0.034503
vt 0.483217 0.019852
vt 0.480519 0.043797
vt 0.506465 0.034980
vt 0.506952 0.037209
vt 0.510362 0.032725
vt 0.787159 0.144741
vt 0.784375 0.147434
vt 0.777229 0.141676
vt 0.780340 0.139576
vt 0.791342 0.152138
vt 0.781979 0.137319
vt 0.773283 0.136784
vt 0.776428 0.136002
vt 0.776647 0.134271
vt 0.772220 0.143949
vt 0.769005 0.135772
vt 0.773630 0.132800
vt 0.770545 0.130267
vt 0.611418 0.063391
vt 0.613416 0.057808
vt 0.629433 0.062786
vt 0.627972 0.068034
vt 0.598465 0.059827
vt 0.601237 0.054460
vt 0.607180 0.080483
vt 0.588856 0.083293
vt 0.625329 0.078578
vt 0.615334 0.052136
vt 0.631287 0.057631
vt 0.602827 0.049736
vt 0.647985 0.064660
vt 0.646616 0.069552
vt 0.645063 0.074894
vt 0.617065 0.042497
vt 0.634981 0.047966
vt 0.603012 0.042837
vt 0.651701 0.054484
vt 0.669644 0.062876
vt 0.666548 0.072947
vt 0.665256 0.078319
vt 0.633606 0.044535
vt 0.673261 0.059498
vt 0.691841 0.075034
vt 0.688351 0.083886
vt 0.705441 0.058151
vt 0.778001 0.132493
vt 0.782733 0.133501
vt 0.775684 0.130216
vt 0.773063 0.126890
vt 0.763898 0.132793
vt 0.767078 0.126636
vt 0.764829 0.145662
vt 0.769996 0.123300
vt 0.756058 0.127765
vt 0.760680 0.120825
vt 0.754911 0.144918
vt 0.766524 0.117125
vt 0.516266 0.029595
vt 0.515710 0.033662
vt 0.520342 0.033329
vt 0.520041 0.036641
vt 0.521734 0.022721
vt 0.526799 0.031565
vt 0.515327 0.036729
vt 0.511303 0.035007
vt 0.011478 0.370787
vt 0.991641 0.380486
vt 0.016473 0.362865
vt 0.018401 0.364342
vt 0.990034 0.377002
vt 0.992188 0.377455
vt 0.013285 0.372128
vt 0.988066 0.377089
vt 0.979840 0.377934
vt 0.966771 0.373039
vt 0.029145 0.354451
vt 0.041221 0.343390
vt 0.049263 0.357174
vt 0.976628 0.359734
vt 0.984012 0.371305
vt 0.965677 0.347802
vt 0.068969 0.344885
vt 0.955293 0.331708
vt 0.053375 0.330442
vt 0.068548 0.315435
vt 0.080382 0.323718
vt 0.049387 0.326058
vt 0.061690 0.309841
vt 0.036792 0.339893
vt 0.378512 0.969442
vt 0.940840 0.315787
vt 0.026322 0.352242
vt 0.986817 0.335972
vt 0.978242 0.315175
vt 0.013965 0.347200
vt 0.959778 0.300897
vt 0.355089 0.969442
vt 0.399984 0.081287
vt 0.397272 0.076416
vt 0.414676 0.072505
vt 0.421023 0.083377
vt 0.382974 0.084949
vt 0.381563 0.081790
vt 0.430290 0.066900
vt 0.448258 0.079441
vt 0.464922 0.046397
vt 0.449902 0.049939
vt 0.448291 0.044311
vt 0.463919 0.038483
vt 0.467542 0.055264
vt 0.451458 0.058667
vt 0.481915 0.054219
vt 0.444537 0.037347
vt 0.459173 0.023720
vt 0.437956 0.058163
vt 0.439681 0.051717
vt 0.469488 0.065359
vt 0.438626 0.047533
vt 0.436023 0.043563
vt 0.410587 0.062801
vt 0.423288 0.058804
vt 0.430636 0.054792
vt 0.408591 0.057952
vt 0.421036 0.053916
vt 0.428179 0.051320
vt 0.432049 0.049778
vt 0.434333 0.051324
vt 0.419542 0.049239
vt 0.427355 0.047487
vt 0.406472 0.052189
vt 0.432212 0.047500
vt 0.434706 0.048140
vt 0.484106 0.062489
vt 0.501131 0.052635
vt 0.526451 0.056211
vt 0.526472 0.068702
vt 0.979682 0.356457
vt 0.986418 0.368997
vt 0.010473 0.360482
vt 0.971533 0.342476
vt 0.182318 0.195453
vt 0.186111 0.203316
vt 0.165646 0.221317
vt 0.162145 0.215297
vt 0.202450 0.177929
vt 0.207798 0.188224
vt 0.149167 0.201191
vt 0.418860 0.041852
vt 0.429077 0.041239
vt 0.403970 0.042695
vt 0.406721 0.027735
vt 0.420397 0.032579
vt 0.431912 0.031780
vt 0.251254 0.133609
vt 0.261188 0.138390
vt 0.257141 0.153157
vt 0.237891 0.165213
vt 0.095069 0.306550
vt 0.926963 0.296120
vt 0.117477 0.293337
vt 0.910492 0.274312
vt 0.083344 0.297272
vt 0.100867 0.279048
vt 0.077291 0.293224
vt 0.093724 0.274942
vt 0.945220 0.285164
vt 0.933442 0.266446
vt 0.788808 0.161728
vt 0.791533 0.157208
vt 0.799157 0.166284
vt 0.776416 0.155180
vt 0.780811 0.151324
vt 0.784205 0.164517
vt 0.771730 0.160927
vt 0.790712 0.169897
vt 0.933046 0.292601
vt 0.917244 0.272327
vt 0.948690 0.310224
vt 0.960818 0.327807
vt 0.394334 0.067838
vt 0.378013 0.073930
vt 0.249596 0.130629
vt 0.250206 0.123890
vt 0.255541 0.126808
vt 0.258524 0.130188
vt 0.261952 0.119904
vt 0.266127 0.123325
vt 0.270051 0.128958
vt 0.275123 0.138760
vt 0.270146 0.110001
vt 0.276488 0.114417
vt 0.281026 0.118319
vt 0.286440 0.124721
vt 0.290527 0.103014
vt 0.295394 0.106816
vt 0.310892 0.089391
vt 0.315334 0.094185
vt 0.319203 0.059445
vt 0.332217 0.073213
vt 0.217993 0.166375
vt 0.223486 0.173331
vt 0.214889 0.161013
vt 0.229722 0.221062
vt 0.197214 0.223335
vt 0.235602 0.180846
vt 0.243105 0.169634
vt 0.259373 0.179685
vt 0.267359 0.217435
vt 0.259613 0.164426
vt 0.744104 0.210462
vt 0.753225 0.176443
vt 0.781464 0.183358
vt 0.786867 0.219666
vt 0.712174 0.188694
vt 0.729719 0.158221
vt 0.736629 0.141312
vt 0.752305 0.159682
vt 0.773659 0.169961
vt 0.741521 0.128151
vt 0.692992 0.159555
vt 0.712668 0.136552
vt 0.723066 0.121547
vt 0.680355 0.132207
vt 0.697381 0.115288
vt 0.706607 0.104099
vt 0.669378 0.109788
vt 0.680595 0.097209
vt 0.686085 0.089326
vt 0.657061 0.093182
vt 0.662595 0.084239
vt 0.642035 0.082932
vt 0.140100 0.236351
vt 0.125420 0.211128
vt 0.146686 0.242950
vt 0.118565 0.258390
vt 0.110520 0.253012
vt 0.133398 0.273694
vt 0.901401 0.249255
vt 0.926312 0.244320
vt 0.927846 0.208500
vt 0.892484 0.208329
vt 0.593491 0.052283
vt 0.589043 0.050498
vt 0.586994 0.049206
vt 0.540397 0.017370
vt 0.540850 0.030826
vt 0.516643 0.007812
vt 0.585070 0.052967
vt 0.583488 0.049606
vt 0.577911 0.053074
vt 0.578177 0.048478
vt 0.589756 0.056363
vt 0.580957 0.059862
vt 0.565938 0.060633
vt 0.566623 0.051386
vt 0.572239 0.079162
vt 0.811756 0.173454
vt 0.827581 0.189353
vt 0.802593 0.178211
vt 0.816407 0.194797
vt 0.433433 0.016931
vt 0.729947 0.112794
vt 0.711223 0.098227
vt 0.715014 0.092254
vt 0.734810 0.106691
vt 0.747600 0.118881
vt 0.727634 0.079908
vt 0.741262 0.100695
vt 0.283343 0.168725
vt 0.296825 0.200621
vt 0.302752 0.152082
vt 0.319107 0.177606
vt 0.318930 0.133390
vt 0.334684 0.152253
vt 0.334376 0.115236
vt 0.345903 0.128117
vt 0.350304 0.099930
vt 0.356076 0.108002
vt 0.366231 0.089224
vt 0.368185 0.093746
vt 0.361244 0.081383
vt 0.752834 0.112870
vt 0.762577 0.107299
vt 0.757812 0.092655
vt 0.780279 0.092102
vt 0.753334 0.069365
vt 0.744233 0.051805
vt 0.863940 0.229568
vt 0.882207 0.253665
vt 0.868352 0.258431
vt 0.854513 0.232739
vt 0.869701 0.229448
vt 0.889781 0.251274
vt 0.845213 0.208691
vt 0.851117 0.208492
vt 0.836497 0.212351
vt 0.870801 0.195822
vt 0.300445 0.111384
vt 0.319316 0.098465
vt 0.336795 0.081928
vt 0.339568 0.086502
vt 0.352996 0.062639
vt 0.356797 0.072653
vt 0.349658 0.060015
vt 0.358761 0.077131
vt 0.278632 0.151702
vt 0.293543 0.135516
vt 0.307685 0.119088
vt 0.324747 0.104141
vt 0.343265 0.091180
vt 0.548081 0.057004
vt 0.551002 0.047531
vt 0.534614 0.044943
vt 0.547135 0.067796
vt 0.554178 0.041464
vt 0.568506 0.045900
vt 0.537793 0.038971
vt 0.370210 0.055516
vt 0.374039 0.065203
vt 0.369558 0.054177
vt 0.376028 0.069772
vt 0.386221 0.048573
vt 0.390207 0.058185
vt 0.387197 0.045495
vt 0.518656 0.039231
vt 0.526530 0.037868
vt 0.524266 0.042098
vt 0.515047 0.041804
vt 0.513430 0.039101
vt 0.518129 0.046511
vt 0.844166 0.263490
vt 0.838581 0.240496
vt 0.163388 0.281012
vt 0.821830 0.225653
vt 0.505874 0.044362
vt 0.509207 0.039780
vt 0.511915 0.036949
vt 0.167434 0.254337
vt 0.785433 0.070342
vt 0.814487 0.086524
vt 0.786127 0.054562
vt 0.824533 0.072711
vt 0.850863 0.103843
vt 0.177880 0.233976
vt 0.392456 0.063252
vt 0.090807 0.830558
vt 0.090807 0.969442
vt 0.108770 0.830558
vt 0.108770 0.969442
vt 0.809193 0.830558
vt 0.809193 0.969442
vt 0.278367 0.830558
vt 0.278367 0.969442
vt 0.296854 0.830558
vt 0.296854 0.969442
vt 0.633656 0.830558
vt 0.633656 0.969442
vt 0.655403 0.830558
vt 0.655403 0.969442
vt 0.676034 0.830558
vt 0.676034 0.969442
vt 0.477329 0.830558
vt 0.477329 0.969442
vt 0.451123 0.830558
vt 0.426802 0.830558
vt 0.426802 0.969442
vt 0.451123 0.969442
vt 0.226982 0.830558
vt 0.226982 0.969442
vt 0.210861 0.830558
vt 0.210861 0.969442
vt 0.194183 0.830558
vt 0.175418 0.830558
vt 0.175418 0.969442
vt 0.194183 0.969442
vt 0.695702 0.830558
vt 0.392901 0.543604
vt 0.376772 0.551651
vt 0.408735 0.550951
vt 0.391602 0.560840
vt 0.349485 0.400481
vt 0.345453 0.371163
vt 0.335476 0.385831
vt 0.359165 0.355361
vt 0.358044 0.384998
vt 0.549456 0.495756
vt 0.567715 0.489600
vt 0.540454 0.514532
vt 0.560288 0.511261
vt 0.527431 0.529437
vt 0.545893 0.530927
vt 0.510463 0.363495
vt 0.521895 0.357446
vt 0.467843 0.331812
vt 0.466813 0.343631
vt 0.488643 0.351381
vt 0.495015 0.340897
vt 0.339063 0.448304
vt 0.325088 0.447645
vt 0.340503 0.463732
vt 0.326052 0.465325
vt 0.350158 0.496425
vt 0.344279 0.479332
vt 0.329224 0.485156
vt 0.336036 0.502472
vt 0.512708 0.541283
vt 0.526095 0.549332
vt 0.041457 0.630658
vt 0.041457 0.769342
vt 0.840731 0.630658
vt 0.840731 0.769342
vt 0.858543 0.630658
vt 0.858543 0.769342
vt 0.632368 0.630658
vt 0.632368 0.769342
vt 0.650900 0.630658
vt 0.650900 0.769342
vt 0.610487 0.630658
vt 0.610487 0.769342
vt 0.266512 0.630658
vt 0.266512 0.769342
vt 0.242426 0.630658
vt 0.242426 0.769342
vt 0.216842 0.630658
vt 0.216842 0.769342
vt 0.424143 0.630658
vt 0.424143 0.769342
vt 0.487616 0.630658
vt 0.457425 0.630658
vt 0.457425 0.769342
vt 0.487616 0.769342
vt 0.716171 0.630658
vt 0.716171 0.769342
vt 0.734526 0.630658
vt 0.734526 0.769342
vt 0.774517 0.630658
vt 0.755314 0.630658
vt 0.755314 0.769342
vt 0.774517 0.769342
vt 0.188508 0.630658
vt 0.188508 0.769342
vt 0.160667 0.630658
vt 0.160667 0.769342
vt 0.140109 0.630658
vt 0.140109 0.769342
vt 0.120689 0.630658
vt 0.120689 0.769342
vt 0.097450 0.630658
vt 0.069562 0.630658
vt 0.069562 0.769342
vt 0.097450 0.769342
vt 0.696757 0.630658
vt 0.670281 0.630658
vt 0.670281 0.769342
vt 0.696757 0.769342
vt 0.816273 0.630658
vt 0.793270 0.630658
vt 0.793270 0.769342
vt 0.816273 0.769342
vt 0.390084 0.630658
vt 0.359984 0.630658
vt 0.359984 0.769342
vt 0.390084 0.769342
vt 0.289396 0.630658
vt 0.289396 0.769342
vt 0.332683 0.630658
vt 0.310768 0.630658
vt 0.310768 0.769342
vt 0.332683 0.769342
vt 0.589038 0.630658
vt 0.589038 0.769342
vt 0.569106 0.630658
vt 0.569106 0.769342
vt 0.514580 0.630658
vt 0.514580 0.769342
vt 0.550850 0.630658
vt 0.534060 0.630658
vt 0.534060 0.769342
vt 0.695702 0.969442
vt 0.502673 0.561985
vt 0.714168 0.830558
vt 0.497374 0.550255
vt 0.714168 0.969442
vt 0.481973 0.556282
vt 0.731332 0.830558
vt 0.731332 0.969442
vt 0.484157 0.568673
vt 0.747517 0.830558
vt 0.466752 0.559789
vt 0.465933 0.572510
vt 0.747517 0.969442
vt 0.452032 0.561007
vt 0.762799 0.830558
vt 0.439119 0.561135
vt 0.762799 0.969442
vt 0.428469 0.556670
vt 0.788028 0.830558
vt 0.417147 0.570000
vt 0.776148 0.830558
vt 0.443678 0.574197
vt 0.776148 0.969442
vt 0.340120 0.432787
vt 0.343542 0.416736
vt 0.332089 0.404161
vt 0.788028 0.969442
vt 0.260299 0.830558
vt 0.326558 0.429006
vt 0.243184 0.830558
vt 0.243184 0.969442
vt 0.368168 0.523555
vt 0.260299 0.969442
vt 0.156695 0.830558
vt 0.359302 0.512011
vt 0.344965 0.518343
vt 0.141632 0.830558
vt 0.358710 0.536020
vt 0.141632 0.969442
vt 0.560053 0.404300
vt 0.156695 0.969442
vt 0.544894 0.380118
vt 0.529292 0.830558
vt 0.528901 0.380983
vt 0.543280 0.400315
vt 0.504006 0.830558
vt 0.504006 0.969442
vt 0.529292 0.969442
vt 0.555452 0.474396
vt 0.572428 0.468372
vt 0.610458 0.830558
vt 0.610458 0.969442
vt 0.570825 0.427842
vt 0.553312 0.421666
vt 0.582947 0.830558
vt 0.554038 0.830558
vt 0.559812 0.448467
vt 0.574911 0.448227
vt 0.375255 0.342705
vt 0.369259 0.371030
vt 0.554038 0.969442
vt 0.582947 0.969442
vt 0.392163 0.334050
vt 0.315592 0.830558
vt 0.383798 0.359775
vt 0.445274 0.340481
vt 0.315592 0.969442
vt 0.334847 0.830558
vt 0.334847 0.969442
vt 0.442811 0.326460
vt 0.403948 0.830558
vt 0.421048 0.341197
vt 0.403948 0.969442
vt 0.424318 0.325803
vt 0.378512 0.830558
vt 0.355089 0.830558
vt 0.408535 0.328217
vt 0.400705 0.350436
vt 0.078390 0.265855
vt 0.065403 0.283928
vt 0.050086 0.299037
vt 0.916675 0.305463
vt 0.927972 0.325228
vt 0.990061 0.368330
vt 0.988904 0.354512
vt 0.030711 0.311112
vt 0.019644 0.329980
vt 0.935446 0.347799
vt 0.951310 0.363620
vt 0.031904 0.363298
vt 0.019648 0.368658
vt 0.087170 0.243651
vt 0.090752 0.207402
vt 0.875337 0.292989
vt 0.844292 0.291661
vt 0.899302 0.284770
vt 0.989917 0.380337
vt 0.987372 0.380038
vt 0.007812 0.369470
vt 0.010761 0.369309
vn 0.891676 -0.211091 0.400444
vn 0.901609 -0.196341 0.385424
vn 0.960425 -0.194271 0.199607
vn 0.953171 -0.203692 0.223550
vn 0.823860 -0.191743 0.533376
vn 0.836512 -0.178179 0.518169
vn 0.888215 -0.225342 0.400369
vn 0.827594 -0.189110 0.528513
vn 0.944704 -0.210534 0.251414
vn 0.853088 -0.154447 0.498385
vn 0.918890 -0.168085 0.356915
vn 0.773568 -0.147619 0.616280
vn 0.781355 -0.135933 0.609103
vn 0.759546 -0.127130 0.637909
vn 0.972131 -0.163182 0.168326
vn 0.991122 -0.132957 0.000617
vn 0.987106 -0.158700 0.020879
vn 0.989474 -0.140537 0.034497
vn 0.784500 -0.086355 0.614087
vn 0.870721 -0.088944 0.483666
vn 0.606632 -0.070284 0.791870
vn 0.641302 -0.073940 0.763717
vn 0.544373 -0.032492 0.838214
vn 0.937573 -0.091387 0.335567
vn 0.984352 -0.090148 0.151410
vn 0.996492 -0.083670 0.001526
vn -0.000006 -1.000000 -0.000002
vn -0.000006 -1.000000 -0.000002
vn -0.000002 -1.000000 -0.000002
vn -0.000004 -1.000000 -0.000002
vn 0.000001 -1.000000 -0.000001
vn 0.000002 -1.000000 -0.000000
vn 0.279303 0.101647 0.954808
vn 0.485569 -0.046192 0.872977
vn -0.000004 -1.000000 -0.000001
vn -0.000005 -1.000000 -0.000001
vn -0.000000 -1.000000 0.000000
vn -0.000003 -1.000000 -0.000000
vn 0.963149 -0.071323 -0.259341
vn 0.975058 -0.036472 -0.218932
vn 0.741143 -0.053691 0.669197
vn 0.899074 -0.183661 0.397411
vn 0.765897 0.022731 0.642562
vn 0.220953 0.624602 0.749035
vn 0.364875 0.378635 0.850589
vn 0.917440 0.119677 0.379450
vn 0.498640 0.860499 0.104403
vn 0.995089 -0.025238 0.095713
vn 0.469824 0.139767 0.871625
vn -0.678784 0.734038 -0.020970
vn -0.649383 0.732158 0.205540
vn -0.475125 0.841968 -0.255628
vn -0.530820 0.582260 0.615794
vn -0.800871 0.545594 -0.246845
vn -0.854337 0.517390 -0.049149
vn -0.773136 0.539560 -0.333370
vn -0.465588 -0.034016 0.884347
vn -0.758446 -0.165906 0.630266
vn -0.745904 -0.155786 0.647579
vn -0.508447 -0.022139 0.860809
vn -0.524755 0.003997 0.851244
vn -0.767889 -0.160092 0.620256
vn 0.451157 0.281689 0.846823
vn 0.166500 0.359120 0.918320
vn 0.134907 0.305843 0.942476
vn -0.760296 -0.087257 0.643690
vn -0.549113 -0.058734 0.833682
vn -0.295198 0.259767 0.919445
vn -0.763088 -0.125870 0.633920
vn -0.836227 -0.211069 0.506137
vn -0.833112 -0.206939 0.512934
vn -0.544158 0.146088 0.826166
vn -0.841493 -0.204833 0.499933
vn -0.850911 -0.210638 0.481231
vn -0.888906 -0.228025 0.397304
vn -0.890145 -0.220790 0.398615
vn -0.893800 -0.224325 0.388329
vn -0.955542 -0.209520 0.207461
vn -0.952424 -0.215646 0.215373
vn -0.913038 -0.229907 0.336905
vn -0.955795 -0.213637 0.202027
vn -0.859879 -0.210467 0.465093
vn -0.467326 0.253530 -0.846953
vn 0.127756 0.456262 -0.880627
vn 0.146063 0.350092 -0.925257
vn -0.284859 0.108867 -0.952367
vn -0.785189 0.474380 -0.398048
vn -0.139992 0.719827 -0.679891
vn -0.731817 0.195985 -0.652712
vn -0.874375 0.458912 -0.157699
vn -0.521529 0.017292 -0.853058
vn 0.000810 0.204630 -0.978839
vn -0.336996 -0.094167 -0.936785
vn -0.514743 -0.150418 -0.844046
vn -0.388148 -0.070618 -0.918887
vn -0.565586 -0.078427 -0.820952
vn -0.183737 0.198426 -0.962740
vn 0.538343 0.265484 -0.799816
vn 0.706360 0.153921 -0.690916
vn 0.703288 0.428527 0.567231
vn 0.469496 0.634101 0.614402
vn 0.142097 -0.085345 -0.986167
vn 0.231197 -0.024766 -0.972592
vn 0.313073 0.413710 -0.854886
vn 0.158813 -0.058217 -0.985591
vn 0.076122 0.898427 0.432474
vn 0.781875 0.248866 -0.571609
vn 0.869140 0.454735 0.194454
vn 0.240829 0.185307 -0.952713
vn 0.119476 0.644549 0.755170
vn 0.730196 0.683038 0.016523
vn 0.738676 0.643865 -0.199489
vn 0.403300 0.820936 0.404245
vn 0.708272 0.647882 0.280356
vn -0.434987 0.368862 0.821418
vn 0.590651 0.698457 -0.404091
vn 0.404771 0.910834 0.080887
vn -0.419521 0.834541 0.357133
vn 0.758505 0.547645 -0.353208
vn 0.597276 0.631583 -0.494333
vn -0.265854 0.834845 -0.482032
vn -0.189571 0.740834 -0.644382
vn 0.000007 -1.000000 -0.000004
vn 0.000007 -1.000000 -0.000004
vn -0.000001 -1.000000 -0.000000
vn 0.000001 -1.000000 -0.000002
vn 0.000013 -1.000000 -0.000005
vn 0.000014 -1.000000 -0.000005
vn -0.000000 -1.000000 0.000004
vn -0.000000 -1.000000 0.000003
vn 0.000000 -1.000000 0.000004
vn -0.000001 -1.000000 0.000002
vn 0.487584 0.335842 0.805898
vn -0.327111 0.834248 0.443880
vn -0.089459 0.972319 0.215854
vn 0.579099 0.480227 0.658806
vn 0.384849 0.260859 0.885350
vn -0.404845 0.676156 0.615559
vn 0.640169 0.080345 0.764022
vn 0.455572 0.079495 0.886642
vn 0.721189 0.083271 0.687716
vn -0.789693 0.527889 -0.312601
vn -0.704761 0.549365 -0.448899
vn -0.865648 0.477000 -0.152067
vn -0.647189 0.559818 -0.517446
vn 0.175485 0.982295 0.065594
vn 0.705408 0.524829 0.476397
vn -0.730488 0.031208 -0.682213
vn -0.765153 0.142818 -0.627810
vn -0.753203 0.066182 -0.654451
vn -0.802615 -0.053163 -0.594123
vn -0.839208 0.124203 -0.529437
vn -0.550181 0.637101 -0.539818
vn 0.440772 0.896362 -0.047492
vn -0.707123 -0.077928 -0.702784
vn -0.884580 -0.079049 -0.459640
vn -0.877876 0.114201 -0.465072
vn -0.316185 0.745532 -0.586693
vn -0.954603 -0.078926 -0.287236
vn -0.810833 0.149148 0.565954
vn -0.751578 -0.043499 0.658209
vn -0.973134 0.035929 0.227420
vn -0.998973 0.044865 0.006306
vn 0.612910 0.557858 -0.559585
vn -0.282677 0.595244 -0.752183
vn 0.784671 0.456092 -0.419847
vn -0.989326 0.004360 -0.145652
vn 0.579229 0.536117 -0.614062
vn -0.577883 0.401693 -0.710418
vn 0.832698 0.366597 -0.414995
vn -0.992103 -0.100800 -0.074640
vn 0.000001 -1.000000 -0.000000
vn 0.000001 -1.000000 -0.000000
vn 0.000001 -1.000000 -0.000001
vn 0.000001 -1.000000 -0.000000
vn -0.100490 -0.005608 -0.994922
vn -0.256671 0.232503 -0.938116
vn -0.474042 0.199443 -0.857617
vn -0.694736 0.474383 -0.540650
vn -0.157237 -0.076412 -0.984600
vn -0.494468 0.189138 -0.848368
vn -0.564759 0.541708 -0.622575
vn 0.338426 0.539355 -0.771080
vn 0.795497 0.532784 -0.288662
vn 0.438395 0.310298 0.843519
vn 0.296930 0.208692 0.931816
vn 0.814352 0.351675 -0.461687
vn -0.740348 0.521500 0.424173
vn -0.173661 0.309299 0.934974
vn 0.310925 0.313710 -0.897169
vn -0.548671 0.340371 -0.763615
vn 0.128268 0.163772 -0.978124
vn 0.101797 0.128277 -0.986500
vn 0.651910 0.297092 -0.697674
vn 0.539751 0.217344 -0.813283
vn 0.076168 0.084981 -0.993467
vn -0.370081 0.209847 -0.904989
vn -0.421454 0.199399 -0.884656
vn -0.316998 0.157861 -0.935197
vn 0.062859 0.042523 -0.997116
vn -0.467589 -0.011943 -0.883865
vn 0.606434 -0.022132 -0.794826
vn 0.546218 -0.086576 -0.833157
vn 0.042811 0.042359 -0.998185
vn 0.355869 -0.093204 0.929877
vn 0.325362 -0.164064 0.931248
vn 0.227695 0.124983 0.965678
vn -0.420621 -0.029853 -0.906745
vn 0.233799 0.193774 0.952780
vn -0.025088 0.055203 0.998160
vn -0.023479 -0.022676 0.999467
vn -0.045226 0.113289 0.992532
vn -0.026371 -0.080566 0.996400
vn -0.676520 0.078364 0.732243
vn -0.563933 0.456252 0.688341
vn -0.493207 0.315491 0.810686
vn -0.582624 0.077225 0.809064
vn -0.782815 0.078825 0.617242
vn -0.686128 0.500533 0.527916
vn -0.468961 0.248034 0.847676
vn -0.465380 0.076685 0.881783
vn -0.482385 0.840344 0.247237
vn -0.725386 0.612686 0.313738
vn -0.365881 0.488008 -0.792452
vn 0.002979 0.466765 -0.884377
vn -0.376491 0.400520 0.835367
vn -0.499188 0.298122 0.813594
vn -0.070066 0.431692 0.899296
vn 0.172597 0.099308 -0.979974
vn 0.308400 -0.055766 -0.949621
vn -0.507759 0.293128 0.810097
vn -0.723401 0.521226 0.452785
vn -0.325402 0.078412 0.942319
vn -0.530524 0.549430 -0.645501
vn 0.203716 0.214298 -0.955289
vn -0.278384 0.515198 0.810601
vn -0.227681 0.437813 0.869759
vn -0.283057 0.435596 0.854479
vn 0.446812 0.824073 0.348228
vn 0.537693 0.681977 0.495776
vn 0.522029 0.674877 0.521562
vn 0.404592 0.835254 0.372364
vn -0.502981 0.619883 0.602292
vn 0.847833 0.411472 -0.334470
vn 0.772665 0.359736 -0.523048
vn 0.798384 0.478617 -0.365389
vn 0.446371 0.453630 -0.771345
vn -0.448875 0.699567 -0.555983
vn -0.095792 0.085897 0.991688
vn 0.033007 0.349691 0.936284
vn 0.023581 0.348768 0.936912
vn 0.061975 0.083953 0.994541
vn -0.000003 -1.000000 0.000003
vn 0.000006 -1.000000 0.000003
vn 0.000002 -1.000000 0.000003
vn -0.000003 -1.000000 0.000003
vn -0.480175 0.281768 0.830686
vn -0.613378 0.313160 0.725050
vn -0.098871 0.139731 0.985241
vn -0.438571 0.201713 0.875767
vn 0.105552 0.496506 0.861592
vn -0.598383 0.334729 -0.727938
vn -0.353351 0.360298 -0.863324
vn 0.350628 0.420761 0.836672
vn -0.501349 0.484721 0.716725
vn -0.827154 0.257235 -0.499646
vn 0.377179 -0.037725 0.925372
vn 0.698910 0.101385 -0.707987
vn 0.516087 0.118869 -0.848248
vn 0.739365 0.061880 -0.670456
vn 0.605366 -0.075525 -0.792356
vn 0.554258 -0.121599 -0.823415
vn 0.412394 -0.069451 -0.908354
vn 0.000005 -1.000000 0.000008
vn 0.000000 -1.000000 0.000002
vn 0.000001 -1.000000 0.000005
vn 0.000003 -1.000000 0.000009
vn 0.000009 -1.000000 0.000008
vn 0.000012 -1.000000 0.000008
vn 0.000012 -1.000000 0.000008
vn 0.000011 -1.000000 0.000007
vn 0.000011 -1.000000 0.000007
vn 0.000009 -1.000000 0.000006
vn 0.000009 -1.000000 0.000006
vn 0.000008 -1.000000 0.000003
vn 0.000008 -1.000000 0.000004
vn -0.000001 -1.000000 0.000001
vn -0.000003 -1.000000 0.000000
vn -0.000003 -1.000000 0.000000
vn -0.000001 -1.000000 0.000001
vn -0.485122 0.703404 -0.519499
vn -0.760123 0.496094 -0.419647
vn -0.835376 0.402674 -0.374167
vn -0.872625 0.363131 -0.326590
vn 0.016687 0.109347 -0.993864
vn -0.547890 0.144216 -0.824026
vn -0.002328 0.203720 -0.979026
vn -0.632791 0.345923 -0.692757
vn 0.562489 0.088659 -0.822038
vn 0.443156 0.212092 -0.870994
vn 0.462296 -0.076926 0.883383
vn 0.417676 -0.034779 0.907930
vn -0.029510 -0.092272 0.995296
vn -0.020383 -0.102973 0.994475
vn 0.901081 0.414960 -0.125942
vn 0.840762 0.517702 0.158446
vn 0.930017 0.332703 0.156135
vn 0.799249 0.462985 -0.383204
vn 0.788157 0.556872 -0.262111
vn 0.853661 0.234062 -0.465271
vn 0.832725 0.296311 -0.467727
vn 0.890497 0.196139 -0.410541
vn -0.000004 -1.000000 0.000001
vn -0.000004 -1.000000 0.000001
vn -0.000004 -1.000000 0.000003
vn -0.000004 -1.000000 0.000003
vn -0.540718 -0.031633 0.840609
vn -0.393611 -0.010610 0.919216
vn -0.477031 -0.185390 0.859111
vn -0.556319 -0.070898 0.827939
vn -0.448265 0.613251 0.650371
vn -0.625027 0.627511 0.464296
vn 0.697789 0.557280 -0.450033
vn 0.994133 -0.099995 0.041232
vn 0.810778 0.338892 -0.477275
vn -0.368953 0.654448 -0.659979
vn 0.913791 0.131111 -0.384443
vn -0.059989 0.595099 -0.801410
vn -0.701071 0.500420 -0.508015
vn -0.854219 0.371826 -0.363394
vn 0.959117 0.000413 -0.283010
vn 0.400125 0.452931 -0.796714
vn -0.520315 0.565265 -0.640116
vn -0.831308 0.417581 -0.366814
vn 0.836904 0.180523 -0.516724
vn -0.167534 0.675911 -0.717688
vn 0.888507 0.103985 -0.446926
vn 0.262655 0.686148 -0.678390
vn 0.899437 -0.072176 -0.431050
vn 0.884514 0.027995 -0.465672
vn 0.000000 -1.000000 0.000004
vn 0.000000 -1.000000 0.000004
vn 0.000001 -1.000000 0.000003
vn 0.000001 -1.000000 0.000003
vn -0.000000 -1.000000 0.000002
vn 0.000000 -1.000000 0.000002
vn -0.876788 0.399821 0.267181
vn -0.927691 0.242566 -0.283816
vn -0.233789 0.282759 0.930263
vn -0.773649 0.083079 -0.628145
vn -0.566969 0.084550 -0.819389
vn -0.871692 0.138665 -0.470028
vn -0.862839 0.192631 -0.467336
vn -0.903415 0.141315 -0.404812
vn -0.898760 0.076943 -0.431636
vn -0.887538 0.236369 -0.395482
vn 0.904328 0.080327 -0.419212
vn 0.909804 0.165016 -0.380824
vn 0.857430 0.152287 -0.491551
vn 0.773096 0.080644 -0.629142
vn 0.954256 0.075714 -0.289247
vn 0.949643 0.162641 -0.267816
vn 0.913391 0.290276 -0.285405
vn 0.895852 0.253719 -0.364795
vn 0.860100 0.197649 -0.470279
vn 0.812710 0.412400 -0.411618
vn 0.994184 0.074189 -0.078068
vn 0.978887 0.173621 -0.107868
vn 0.905778 0.361180 -0.221621
vn 0.986920 0.075534 0.142424
vn 0.973546 0.218003 0.068427
vn 0.844569 0.513293 -0.152425
vn 0.950676 0.077660 0.300307
vn 0.930486 0.303099 0.205735
vn 0.683782 0.720266 -0.116874
vn 0.894040 0.079658 0.440848
vn 0.843946 0.427312 0.324283
vn 0.815295 0.082315 0.573166
vn 0.604553 0.530884 0.593868
vn 0.216518 -0.056675 0.974632
vn -0.122244 0.248574 -0.960868
vn 0.666970 0.492456 -0.559140
vn 0.280361 -0.017352 0.959738
vn 0.027337 0.172937 -0.984553
vn -0.268429 -0.027570 0.962905
vn -0.010542 -0.101636 0.994766
vn -0.010615 -0.076494 0.997014
vn -0.234637 -0.060985 0.970168
vn -0.325459 0.613989 0.719092
vn -0.203423 0.652648 0.729842
vn 0.107970 0.860268 0.498278
vn -0.228784 -0.063233 -0.971421
vn -0.349804 0.232125 -0.907610
vn -0.011819 -0.078866 -0.996815
vn 0.447044 0.450957 0.772521
vn 0.756688 0.617950 0.213452
vn 0.636862 0.462899 0.616548
vn 0.747936 0.639147 -0.179116
vn 0.347839 0.299036 0.888586
vn 0.436736 0.214582 0.873623
vn 0.399014 0.276906 0.874134
vn 0.617368 0.557874 0.554647
vn 0.328124 0.077338 0.941464
vn 0.870617 0.469054 0.148371
vn 0.684134 0.728088 -0.042995
vn 0.847597 0.206261 -0.488914
vn 0.744094 0.217430 -0.631702
vn 0.449010 -0.076139 -0.890277
vn 0.653517 0.561513 -0.507561
vn 0.195117 0.776608 -0.599006
vn -0.802073 0.258157 -0.538548
vn -0.361772 0.505693 -0.783195
vn 0.357757 0.565083 -0.743433
vn -0.965345 -0.096483 -0.242486
vn -0.950181 0.013141 -0.311423
vn 0.000013 -1.000000 0.000001
vn 0.000010 -1.000000 0.000001
vn 0.000016 -1.000000 -0.000002
vn 0.000015 -1.000000 -0.000000
vn 0.000016 -1.000000 -0.000005
vn 0.000016 -1.000000 -0.000004
vn 0.000006 -1.000000 -0.000000
vn 0.000002 -1.000000 0.000000
vn 0.000008 -1.000000 0.000003
vn 0.000007 -1.000000 0.000001
vn 0.000008 -1.000000 0.000003
vn -0.943545 0.144164 -0.298228
vn -0.943479 0.072878 -0.323319
vn -0.975114 0.145363 -0.167402
vn -0.987062 0.071408 -0.143561
vn -0.984185 0.176735 0.012015
vn -0.995505 0.073715 0.059459
vn -0.960167 0.230951 0.157292
vn -0.972604 0.075047 0.220020
vn -0.908275 0.311114 0.279722
vn -0.929838 0.076081 0.360019
vn -0.817192 0.423467 0.390989
vn -0.869230 0.077579 0.488283
vn -0.752845 0.595739 0.279856
vn -0.839286 0.170848 -0.516149
vn -0.989290 -0.142591 -0.031185
vn -0.987753 -0.154013 -0.024977
vn -0.954944 -0.203979 0.215580
vn -0.977442 -0.205817 -0.047405
vn -0.992298 -0.095698 -0.078651
vn 0.074583 0.618333 -0.782369
vn -0.041429 0.316778 -0.947595
vn 0.106639 0.163312 -0.980794
vn 0.296653 0.241341 -0.923987
vn -0.492431 0.254765 0.832230
vn -0.809992 0.432731 0.395798
vn 0.368983 0.825884 -0.426341
vn -0.399136 0.245651 0.883372
vn 0.547412 0.270234 -0.792032
vn -0.405283 -0.045395 0.913064
vn -0.739583 0.555635 -0.379851
vn -0.551344 0.749517 -0.366393
vn 0.541397 0.583068 -0.605740
vn -0.318731 0.891157 -0.322878
vn 0.843943 0.059390 -0.533135
vn 0.638378 0.534035 -0.554328
vn 0.878493 -0.080876 -0.470861
vn -0.126818 0.968186 -0.215717
vn -0.919059 0.255533 -0.300056
vn -0.938455 0.269384 -0.216183
vn -0.940450 0.324792 -0.100323
vn -0.906828 0.421191 0.016151
vn -0.842580 0.521417 0.134844
vn -0.000002 -1.000000 -0.000001
vn -0.000002 -1.000000 -0.000001
vn -0.000000 -1.000000 0.000000
vn -0.000001 -1.000000 -0.000001
vn 0.277390 0.365631 0.888464
vn 0.282636 0.719152 0.634774
vn -0.154265 0.644865 0.748567
vn 0.298607 0.079362 0.951071
vn 0.134000 0.837217 -0.530200
vn 0.582031 0.703225 -0.408308
vn -0.491996 0.768161 -0.409719
vn 0.777008 0.156858 -0.609635
vn 0.657638 0.530067 -0.535296
vn 0.798813 -0.080677 -0.596146
vn 0.035940 0.996501 -0.075457
vn 0.756536 0.114846 -0.643789
vn 0.705078 0.524895 -0.476813
vn 0.717372 -0.076884 -0.692435
vn -0.760035 0.603849 0.240238
vn -0.772857 0.570625 -0.277633
vn -0.478595 0.547270 0.686616
vn -0.198662 0.504650 0.840156
vn -0.203581 0.855198 0.476646
vn -0.078565 0.324589 0.942587
vn 0.181217 0.070078 -0.980943
vn 0.362676 0.074437 -0.928938
vn -0.018839 0.070754 -0.997316
vn 0.552047 0.078197 -0.830138
vn 0.172948 0.304531 0.936670
vn 0.349681 0.461203 0.815485
vn 0.418603 0.876986 0.235939
vn -0.219995 0.074801 -0.972629
vn -0.950600 -0.240068 0.196794
vn -0.888750 -0.235846 0.393065
vn -0.980735 -0.100761 0.167351
vn -0.922965 -0.098721 0.372007
vn -0.879756 -0.095205 0.465795
vn -0.395415 0.079790 -0.915030
vn 0.237550 0.965439 0.107225
vn 0.647135 -0.074232 0.758753
vn 0.784982 -0.075375 0.614916
vn -0.897414 0.064752 -0.436412
vn -0.766042 0.066262 -0.639366
vn 0.493562 -0.072428 0.866690
vn -0.565160 0.065041 -0.822414
vn 0.872755 -0.075582 0.482271
vn -0.942239 0.064806 -0.328612
vn 0.939394 -0.075875 0.334339
vn -0.988083 0.064967 -0.139541
vn 0.550469 0.065605 -0.832274
vn 0.765628 0.067182 -0.639766
vn -0.765787 -0.075993 0.638588
vn -0.553586 -0.074145 0.829484
vn 0.902864 0.065994 -0.424831
vn -0.883039 -0.075121 0.463248
vn 0.185814 0.064135 -0.980490
vn 0.365197 0.064731 -0.928677
vn -0.404237 -0.072328 0.911790
vn -0.228956 -0.071709 0.970792
vn 0.314745 -0.070746 -0.946536
vn 0.152092 -0.071000 -0.985813
vn -0.098759 0.061848 0.993188
vn -0.322816 0.061724 0.944447
vn 0.897502 -0.070676 -0.435311
vn 0.877314 -0.070886 -0.474654
vn -0.868779 0.062684 0.491216
vn -0.929237 0.063060 0.364063
vn -0.392367 -0.071450 -0.917030
vn -0.566383 -0.071935 -0.820997
vn 0.453996 0.063943 0.888706
vn 0.325712 0.061692 0.943454
vn 0.645995 0.064392 0.760621
vn -0.709193 -0.071972 -0.701331
vn 0.724013 0.064742 0.686741
vn -0.802083 -0.072350 -0.592813
vn 0.815817 0.065111 0.574633
vn -0.883051 -0.072937 -0.463574
vn 0.893489 0.065483 0.444286
vn -0.954836 -0.074236 -0.287709
vn 0.950347 0.065829 0.304151
vn 0.605925 -0.070906 -0.792356
vn 0.453914 -0.070750 -0.888232
vn -0.464881 0.061779 0.883215
vn -0.586534 0.061520 0.807585
vn 0.719441 -0.070445 -0.690972
vn -0.679346 0.061874 0.731205
vn -0.783572 0.062349 0.618165
vn 0.799175 -0.070565 -0.596943
vn -0.396885 0.064452 -0.915603
vn -0.225880 0.063994 -0.972051
vn 0.210406 -0.071094 0.975026
vn 0.375006 -0.071171 0.924286
vn -0.010799 -0.071116 0.997410
vn -0.021383 0.064239 -0.997706
vn -0.994259 -0.075000 -0.076317
vn 0.986829 0.066364 0.147525
vn -0.982805 -0.075971 0.168294
vn 0.994850 0.066957 -0.076095
vn -0.926169 -0.075138 0.369549
vn 0.953829 0.066322 -0.292935
vn 0.985503 -0.075660 0.151851
vn -0.995866 0.064280 0.064185
vn 0.960564 -0.074153 -0.267987
vn 0.997158 -0.075151 0.005319
vn -0.972366 0.063605 0.224630
vn -0.226329 -0.071442 -0.971427
vn 0.298165 0.062212 0.952485
vn -0.008862 -0.071130 -0.997428
vn 0.061116 0.062035 0.996201
s 1
g Relic_Pride
usemtl T_Relic_Pride01SG
f 1/1/1 3/2/2 4/3/3 181/4/4
f 1/1/1 376/5/5 2/6/6 3/2/2
f 1/1/1 406/7/7 15/8/8 376/5/5
f 1/1/1 181/4/4 179/9/9 406/7/7
f 2/6/6 6/10/10 7/11/11 3/2/2
f 2/6/6 375/12/12 5/13/13 6/10/10
f 2/6/6 376/5/5 285/14/14 375/12/12
f 3/2/2 7/11/11 8/15/15 4/3/3
f 4/3/3 8/15/15 184/16/16 183/17/17
f 4/3/3 183/17/17 182/18/18 181/4/4
f 5/13/13 10/19/19 11/20/20 6/10/10
f 5/13/13 374/21/21 9/22/22 10/19/19
f 5/13/13 375/12/12 283/23/23 374/21/21
f 6/10/10 11/20/20 12/24/24 7/11/11
f 7/11/11 12/24/24 13/25/25 8/15/15
f 8/15/15 13/25/25 14/26/26 184/16/16
s 2
f 438/651/27 439/650/28 440/647/29 441/645/30
f 440/647/29 442/643/31 443/639/32 441/645/30
s 1
f 9/22/22 374/21/21 280/27/33 408/28/34
s 2
f 444/638/35 445/636/36 439/650/28 438/651/27
f 446/633/37 447/632/38 445/636/36 444/638/35
s 1
f 14/26/26 124/29/39 122/30/40 184/16/16
f 15/8/8 17/31/41 285/14/14 376/5/5
f 15/8/8 368/32/42 16/33/43 17/31/41
f 15/8/8 406/7/7 179/9/9 368/32/42
f 16/33/43 18/34/44 19/35/45 17/31/41
f 16/33/43 418/36/46 370/37/47 18/34/44
f 16/33/43 368/32/42 178/38/48 418/36/46
f 17/31/41 19/35/45 284/39/49 285/14/14
f 18/34/44 87/40/50 20/41/51 19/35/45
f 18/34/44 370/37/47 401/42/52 87/40/50
f 19/35/45 20/41/51 282/43/53 284/39/49
f 20/41/51 88/44/54 279/45/55 282/43/53
f 20/41/51 87/40/50 371/46/56 88/44/54
f 21/47/57 24/48/58 319/49/59 22/50/60
f 21/47/57 298/51/61 23/52/62 24/48/58
f 21/47/57 416/53/63 299/54/64 298/51/61
f 21/47/57 22/50/60 155/55/65 416/53/63
f 22/50/60 319/49/59 364/56/66 405/57/67
f 22/50/60 405/57/67 379/58/68 155/55/65
f 23/52/62 306/59/69 297/60/70 25/61/71
f 23/52/62 298/51/61 307/62/72 306/59/69
f 23/52/62 25/61/71 314/63/73 24/48/58
f 24/48/58 314/63/73 318/65/74 319/49/59
f 25/61/71 310/66/75 313/67/76 314/63/73
f 25/61/71 297/60/70 26/68/77 310/66/75
f 26/68/77 308/69/78 309/70/79 310/66/75
f 26/68/77 303/71/80 392/72/81 308/69/78
f 26/68/77 297/60/70 304/73/82 303/71/80
f 27/74/83 272/75/84 271/76/85 28/77/86
f 27/74/83 147/78/87 398/79/88 272/75/84
f 27/74/83 296/80/89 234/81/90 147/78/87
f 27/74/83 28/77/86 393/82/91 296/80/89
f 28/77/86 271/76/85 270/83/92 29/84/93
f 28/77/86 29/84/93 389/85/94 393/82/91
f 29/84/93 435/86/95 419/87/96 389/85/94
f 29/84/93 270/83/92 243/88/97 435/86/95
f 30/89/98 31/90/99 387/91/100 277/92/101
f 30/89/98 430/93/102 54/94/103 31/90/99
f 30/89/98 273/95/104 421/96/105 430/93/102
f 30/89/98 277/92/101 79/97/106 273/95/104
f 31/90/99 396/98/107 287/99/108 387/91/100
f 31/90/99 54/94/103 55/100/109 396/98/107
f 32/101/110 126/102/111 127/103/112 33/104/113
f 32/101/110 299/54/64 432/105/114 126/102/111
f 32/101/110 307/62/72 298/51/61 299/54/64
f 32/101/110 33/104/113 94/106/115 307/62/72
f 33/104/113 127/103/112 34/107/116 394/108/117
f 33/104/113 394/108/117 45/109/118 94/106/115
f 34/107/116 127/103/112 207/110/119 47/111/120
f 34/107/116 46/112/121 45/109/118 394/108/117
f 34/107/116 47/111/120 48/113/122 46/112/121
s 2
f 449/631/123 448/630/124 450/627/125 451/626/126
f 453/623/127 452/622/128 448/630/124 449/631/123
f 454/618/129 455/617/130 456/615/131 457/613/132
s 1
f 35/114/133 36/115/134 37/116/135 164/117/136
f 35/114/133 232/118/137 233/119/138 36/115/134
f 35/114/133 162/120/139 231/121/140 232/118/137
f 35/114/133 164/117/136 163/122/141 162/120/139
f 36/115/134 38/123/142 39/124/143 37/116/135
f 36/115/134 233/119/138 235/125/144 38/123/142
f 37/116/135 39/124/143 40/126/145 167/127/146
f 37/116/135 167/127/146 165/128/147 164/117/136
f 38/123/142 41/129/148 42/130/149 39/124/143
f 38/123/142 235/125/144 236/131/150 41/129/148
f 39/124/143 42/130/149 43/132/151 40/126/145
f 40/126/145 43/132/151 44/133/152 171/134/153
f 40/126/145 171/134/153 168/135/154 167/127/146
f 41/129/148 236/131/150 389/85/94 419/87/96
f 41/129/148 419/87/96 365/136/155 42/130/149
f 42/130/149 365/136/155 43/132/151
f 43/132/151 366/137/156 44/133/152
f 44/133/152 176/138/157 172/139/158 171/134/153
f 44/133/152 366/137/156 433/140/159 176/138/157
f 45/109/118 437/141/160 305/142/161 94/106/115
f 45/109/118 46/112/121 302/143/162 437/141/160
f 46/112/121 48/113/122 49/144/163 302/143/162
f 47/111/120 50/145/164 51/146/165 48/113/122
f 47/111/120 207/110/119 206/147/166 50/145/164
f 48/113/122 51/146/165 52/148/167 49/144/163
f 49/144/163 52/148/167 392/72/81 303/71/80
f 49/144/163 303/71/80 304/73/82 302/143/162
f 50/145/164 194/149/168 195/150/169 51/146/165
f 50/145/164 206/147/166 436/151/170 194/149/168
f 51/146/165 195/150/169 196/152/171 52/148/167
f 52/148/167 196/152/171 308/69/78 392/72/81
s 2
f 458/611/172 459/609/173 460/608/174 461/605/175
s 1
f 53/153/176 290/154/177 55/100/109 54/94/103
f 53/153/176 431/155/178 256/156/179 290/154/177
f 53/153/176 148/157/180 261/158/181 431/155/178
f 53/153/176 54/94/103 430/93/102 148/157/180
f 55/100/109 290/154/177 289/159/182 291/160/183
f 55/100/109 291/160/183 287/99/108 396/98/107
f 56/161/184 425/673/185 258/163/186 251/164/187
f 56/670/184 367/165/188 426/166/189 425/162/185
f 56/670/184 427/671/190 428/168/191 367/165/188
f 56/161/184 251/164/187 250/664/192 427/167/190
f 57/663/193 249/171/194 248/172/195 58/173/196
f 57/663/193 250/664/192 251/164/187 249/171/194
f 57/170/193 82/174/197 80/175/198 250/169/192
f 57/170/193 58/662/196 107/176/199 82/174/197
f 58/662/196 60/661/200 104/178/201 107/176/199
f 58/173/196 248/172/195 59/179/202 60/177/200
f 59/179/202 349/180/203 91/181/204 60/177/200
f 59/179/202 62/182/205 93/183/206 349/180/203
f 59/179/202 248/172/195 61/184/207 62/182/205
f 60/661/200 91/656/204 352/186/208 104/178/201
f 61/184/207 248/172/195 249/171/194 257/187/209
f 61/184/207 105/660/210 102/659/211 62/182/205
f 61/184/207 257/187/209 108/190/212 105/660/210
f 62/182/205 102/659/211 100/654/213 93/183/206
f 63/193/214 111/194/215 112/195/216 64/196/217
f 63/193/214 192/197/218 193/198/219 111/194/215
f 64/196/217 112/195/216 70/199/220 415/200/221
f 65/201/222 68/202/223 69/203/224 66/204/225
f 65/201/222 77/205/226 67/206/227 68/202/223
f 65/201/222 79/97/106 78/207/228 77/205/226
f 65/201/222 66/204/225 273/95/104 79/97/106
f 66/204/225 69/203/224 274/208/229 397/209/230
f 66/204/225 397/209/230 421/96/105 273/95/104
f 67/206/227 75/210/231 245/211/232 68/202/223
f 67/206/227 415/200/221 70/199/220 75/210/231
f 67/206/227 77/205/226 97/212/233 415/200/221
f 68/202/223 245/211/232 246/213/234 69/203/224
f 69/203/224 246/213/234 247/214/235 274/208/229
f 70/199/220 112/195/216 356/215/236 71/216/237
f 70/199/220 71/216/237 72/217/238 75/210/231
f 71/216/237 356/215/236 329/218/239 73/219/240
f 71/216/237 73/219/240 74/220/241 72/217/238
f 72/217/238 74/220/241 423/221/242 76/222/243
f 72/217/238 76/222/243 245/211/232 75/210/231
f 73/219/240 84/223/244 327/224/245 74/220/241
f 73/219/240 329/218/239 324/225/246 84/223/244
f 74/220/241 327/224/245 237/226/247 423/221/242
f 76/222/243 424/227/248 246/213/234 245/211/232
f 76/222/243 423/221/242 237/226/247 424/227/248
f 77/205/226 78/207/228 98/228/249 97/212/233
f 78/207/228 79/97/106 277/92/101 417/229/250
f 98/228/249 78/207/228 417/229/250 399/230/251 262/231/252
s 2
f 462/602/253 463/599/254 464/598/255 465/597/256
s 1
f 80/175/198 82/174/197 109/232/257 81/233/258
f 80/175/198 428/168/191 427/671/190 250/169/192
f 80/175/198 81/233/258 367/165/188 428/168/191
f 81/233/258 109/232/257 108/658/212 110/657/259
f 81/233/258 110/657/259 426/166/189 367/165/188
f 82/174/197 107/176/199 106/235/260 109/232/257
f 83/236/261 323/237/262 322/238/263 143/239/264
f 83/236/261 128/240/265 129/241/266 323/237/262
f 83/236/261 408/28/34 280/27/33 128/240/265
f 83/236/261 143/239/264 372/242/267 408/28/34
f 84/223/244 85/243/268 86/244/269 327/224/245
f 84/223/244 324/225/246 275/245/270 85/243/268
f 85/243/268 275/245/270 414/246/271 420/247/272
f 85/243/268 420/247/272 158/248/273 86/244/269
f 86/244/269 158/248/273 274/208/229 247/214/235
f 86/244/269 247/214/235 237/226/247 327/224/245
s 2
f 467/595/274 466/593/275 468/591/276 469/589/277 470/587/278
f 471/585/279 467/595/274 470/587/278 472/584/280
f 473/582/281 471/585/279 472/584/280 474/579/282
f 475/577/283 476/575/284 473/582/281 474/579/282
f 477/502/285 476/575/284 475/577/283 478/501/286
f 479/500/287 480/499/288 481/498/289 482/497/290
s 1
f 87/40/50 401/42/52 227/249/291 371/46/56
f 88/44/54 371/46/56 116/250/292 402/251/293
f 88/44/54 402/251/293 238/252/294 279/45/55
f 89/655/295 351/254/296 352/186/208 91/656/204
f 89/655/295 429/669/297 293/256/298 351/254/296
f 89/253/295 90/257/299 320/258/300 429/255/297
f 89/253/295 91/181/204 349/180/203 90/257/299
f 90/257/299 349/180/203 93/183/206 92/259/301
f 90/257/299 92/259/301 358/260/302 320/258/300
f 92/259/301 93/183/206 100/654/213 99/653/303
f 92/259/301 99/653/303 145/652/304 358/260/302
f 94/106/115 305/142/161 306/59/69 307/62/72
f 95/263/305 96/264/306 416/53/63 230/265/307
f 95/263/305 205/266/308 125/267/309 96/264/306
f 95/263/305 413/268/310 244/269/311 205/266/308
f 95/263/305 230/265/307 228/270/312 413/268/310
f 96/264/306 432/105/114 299/54/64 416/53/63
f 96/264/306 125/267/309 126/102/111 432/105/114
s 2
f 480/499/288 483/496/313 484/495/314 481/498/289
f 486/494/315 485/493/316 484/495/314 483/496/313
s 1
f 99/261/303 350/271/317 294/272/318 145/262/304
f 99/261/303 100/191/213 101/273/319 350/271/317
f 100/191/213 102/189/211 103/274/320 101/273/319
f 101/273/319 103/274/320 104/178/201 352/186/208
f 101/273/319 352/186/208 351/254/296 350/271/317
f 102/189/211 105/188/210 106/235/260 103/274/320
f 103/274/320 106/235/260 107/176/199 104/178/201
f 105/188/210 108/658/212 109/232/257 106/235/260
f 108/190/212 257/187/209 258/163/186 110/234/259
f 110/234/259 258/163/186 425/673/185 426/672/189
f 111/194/215 328/275/321 356/215/236 112/195/216
f 111/194/215 193/198/219 348/276/322 328/275/321
f 113/277/323 178/38/48 180/278/324 114/279/325
f 113/277/323 370/37/47 418/36/46 178/38/48
f 113/277/323 227/249/291 401/42/52 370/37/47
f 113/277/323 114/279/325 115/280/326 227/249/291
f 114/279/325 180/278/324 182/18/18 117/281/327
f 114/279/325 117/281/327 118/282/328 115/280/326
f 115/280/326 118/282/328 119/283/329 116/250/292
f 115/280/326 116/250/292 371/46/56 227/249/291
f 116/250/292 119/283/329 340/284/330 402/251/293
f 117/281/327 182/18/18 183/17/17 120/285/331
f 117/281/327 120/285/331 121/286/332 118/282/328
f 118/282/328 121/286/332 208/287/333 119/283/329
f 119/283/329 208/287/333 341/288/334 340/284/330
f 120/285/331 183/17/17 184/16/16 122/30/40
f 120/285/331 122/30/40 123/289/335 121/286/332
f 121/286/332 123/289/335 209/290/336 208/287/333
f 122/30/40 124/29/39 210/291/337 123/289/335
f 123/289/335 210/291/337 211/292/338 209/290/336
f 124/29/39 404/293/339 212/294/340 210/291/337
f 125/267/309 205/266/308 206/147/166 207/110/119
f 125/267/309 207/110/119 127/103/112 126/102/111
s 2
f 488/492/341 487/491/342 489/490/343 490/489/344
f 488/492/341 491/488/345 492/487/346 487/491/342
s 1
f 128/240/265 278/295/347 239/296/348 129/241/266
f 128/240/265 280/27/33 281/297/349 278/295/347
f 129/241/266 412/298/350 336/299/351 323/237/262
f 129/241/266 239/296/348 130/300/352 412/298/350
f 130/300/352 239/296/348 238/252/294 410/301/353
f 130/300/352 214/302/354 185/303/355 412/298/350
f 130/300/352 410/301/353 221/304/356 214/302/354
f 131/305/357 132/306/358 156/307/359 407/308/360
f 131/305/357 134/309/361 135/310/362 132/306/358
f 132/306/358 135/310/362 159/311/363 133/312/364
f 132/306/358 133/312/364 157/313/365 156/307/359
f 133/312/364 159/311/363 175/314/366 436/151/170
f 133/312/364 436/151/170 244/269/311 157/313/365
f 134/309/361 136/315/367 137/316/368 135/310/362
f 135/310/362 137/316/368 160/317/369 159/311/363
f 136/315/367 138/318/370 139/319/371 137/316/368
f 137/316/368 139/319/371 170/320/372 160/317/369
f 138/318/370 140/321/373 161/322/374 139/319/371
f 139/319/371 161/322/374 169/323/375 170/320/372
f 140/321/373 141/324/376 166/325/377 161/322/374
f 141/324/376 142/326/378 165/128/147 166/325/377
f 142/326/378 163/122/141 164/117/136 165/128/147
s 2
f 443/639/32 442/643/31 490/489/344 489/490/343
s 1
f 143/239/264 144/327/379 411/328/380 372/242/267
f 143/239/264 322/238/263 321/329/381 144/327/379
f 144/327/379 359/330/382 357/331/383 411/328/380
f 144/327/379 321/329/381 391/332/384 359/330/382
f 145/262/304 294/272/318 295/333/385 146/334/386
f 145/652/304 146/665/386 357/331/383 358/260/302
f 146/665/386 373/666/387 411/328/380 357/331/383
f 146/334/386 295/333/385 403/336/388 373/335/387
f 147/78/87 234/81/90 153/337/389 150/338/390
f 147/78/87 150/338/390 409/339/391 398/79/88
f 148/157/180 434/340/392 386/341/393 261/158/181
f 148/157/180 430/93/102 300/342/394 434/340/392
f 149/343/395 269/344/396 409/339/391 150/338/390
f 149/343/395 267/345/397 268/346/398 269/344/396
f 149/343/395 152/347/399 151/348/400 267/345/397
f 149/343/395 150/338/390 153/337/389 152/347/399
f 151/348/400 152/347/399 232/118/137 231/121/140
f 151/348/400 353/349/401 354/350/402 267/345/397
f 151/348/400 231/121/140 400/351/403 353/349/401
f 152/347/399 153/337/389 233/119/138 232/118/137
f 153/337/389 234/81/90 235/125/144 233/119/138
f 154/352/404 155/55/65 379/58/68 378/353/405
f 154/352/404 230/265/307 416/53/63 155/55/65
f 154/352/404 229/354/406 228/270/312 230/265/307
f 154/352/404 378/353/405 377/355/407 229/354/406
f 156/307/359 229/354/406 377/355/407 407/308/360
f 156/307/359 157/313/365 228/270/312 229/354/406
f 157/313/365 244/269/311 413/268/310 228/270/312
f 158/248/273 369/356/408 397/209/230 274/208/229
f 158/248/273 420/247/272 414/246/271 369/356/408
f 159/311/363 160/317/369 174/357/409 175/314/366
f 160/317/369 170/320/372 173/358/410 174/357/409
f 161/322/374 166/325/377 168/135/154 169/323/375
f 165/128/147 167/127/146 168/135/154 166/325/377
f 168/135/154 171/134/153 172/139/158 169/323/375
f 169/323/375 172/139/158 173/358/410 170/320/372
f 172/139/158 176/138/157 177/359/411 173/358/410
f 173/358/410 177/359/411 388/360/412 174/357/409
f 174/357/409 388/360/412 197/361/413 175/314/366
f 175/314/366 197/361/413 194/149/168 436/151/170
f 176/138/157 433/140/159 201/362/414 177/359/411
f 177/359/411 201/362/414 200/363/415 388/360/412
s 2
f 493/486/416 477/502/285 478/501/286 494/485/417
f 495/484/418 493/486/416 494/485/417 496/483/419
f 497/482/420 495/484/418 496/483/419 498/481/421
f 452/622/128 453/623/127 497/482/420 498/481/421
s 1
f 178/38/48 368/32/42 179/9/9 180/278/324
f 179/9/9 181/4/4 182/18/18 180/278/324
s 2
f 499/480/422 500/479/423 447/632/38 446/633/37
f 485/493/316 486/494/315 462/602/253 465/597/256
f 463/599/254 501/478/424 502/477/425 503/476/426 464/598/255
f 502/477/425 500/479/423 499/480/422 503/476/426
s 1
f 185/303/355 214/302/354 215/364/427 186/365/428
f 186/365/428 215/364/427 216/366/429 187/367/430
f 187/367/430 216/366/429 217/368/431 188/369/432
f 188/369/432 217/368/431 218/370/433 189/371/434
f 189/371/434 218/370/433 219/372/435 190/373/436
f 190/373/436 219/372/435 220/374/437 191/375/438
f 191/375/438 220/374/437 193/198/219 192/197/218
f 193/198/219 220/374/437 347/376/439 348/276/322
f 194/149/168 197/361/413 198/377/440 195/150/169
f 195/150/169 198/377/440 199/378/441 196/152/171
f 196/152/171 199/378/441 309/70/79 308/69/78
f 197/361/413 388/360/412 200/363/415 198/377/440
f 198/377/440 200/363/415 311/379/442 199/378/441
f 199/378/441 311/379/442 312/380/443 309/70/79
f 200/363/415 201/362/414 315/381/444 311/379/442
f 201/362/414 433/140/159 360/382/445 315/381/444
f 202/383/446 203/384/447 265/385/448 266/386/449
f 202/383/446 204/387/450 380/388/451 203/384/447
f 202/383/446 226/389/452 330/390/453 204/387/450
f 202/383/446 266/386/449 333/391/454 226/389/452
f 203/384/447 429/669/297 391/667/384 265/385/448
f 203/384/447 380/388/451 293/256/298 429/669/297
f 204/387/450 403/336/388 295/333/385 380/388/451
f 204/387/450 330/390/453 390/392/455 403/336/388
f 205/266/308 244/269/311 436/151/170 206/147/166
f 208/287/333 209/290/336 342/393/456 341/288/334
f 209/290/336 211/292/338 343/394/457 342/393/456
f 210/291/337 212/294/340 213/395/458 211/292/338
f 211/292/338 213/395/458 344/396/459 343/394/457
f 212/294/340 252/397/460 253/398/461 213/395/458
f 212/294/340 404/293/339 381/399/462 252/397/460
f 213/395/458 253/398/461 346/400/463 344/396/459
f 214/302/354 221/304/356 222/401/464 215/364/427
f 215/364/427 222/401/464 223/402/465 216/366/429
f 216/366/429 223/402/465 224/403/466 217/368/431
f 217/368/431 224/403/466 225/404/467 218/370/433
f 218/370/433 225/404/467 345/405/468 219/372/435
f 219/372/435 345/405/468 347/376/439 220/374/437
f 221/304/356 402/251/293 340/284/330 222/401/464
f 221/304/356 410/301/353 238/252/294 402/251/293
f 222/401/464 340/284/330 341/288/334 223/402/465
f 223/402/465 341/288/334 342/393/456 224/403/466
f 224/403/466 342/393/456 343/394/457 225/404/467
f 225/404/467 343/394/457 344/396/459 345/405/468
f 226/389/452 378/353/405 379/58/68 330/390/453
f 226/389/452 333/391/454 377/355/407 378/353/405
f 234/81/90 296/80/89 236/131/150 235/125/144
f 236/131/150 296/80/89 393/82/91 389/85/94
f 237/226/247 247/214/235 246/213/234 424/227/248
f 238/252/294 239/296/348 278/295/347 279/45/55
s 2
f 468/591/276 466/593/275 504/475/469 505/474/470
f 505/474/470 504/475/469 506/473/471 507/472/472
s 1
f 240/406/473 241/407/474 354/350/402 353/349/401
f 240/406/473 399/230/251 384/408/475 241/407/474
f 240/406/473 263/409/476 262/231/252 399/230/251
f 240/406/473 353/349/401 400/351/403 263/409/476
f 241/407/474 242/410/477 355/411/478 354/350/402
f 241/407/474 384/408/475 385/412/479 242/410/477
f 242/410/477 243/88/97 270/83/92 355/411/478
f 242/410/477 385/412/479 386/341/393 243/88/97
f 243/88/97 386/341/393 434/340/392 435/86/95
f 249/171/194 251/164/187 258/163/186 257/187/209
f 252/397/460 254/413/480 337/414/481 253/398/461
f 252/397/460 381/399/462 382/415/482 254/413/480
f 253/398/461 337/414/481 325/416/483 346/400/463
f 254/413/480 338/417/484 339/418/485 337/414/481
f 254/413/480 382/415/482 383/419/486 338/417/484
f 255/420/487 256/156/179 260/421/488 259/422/489
f 255/420/487 289/159/182 290/154/177 256/156/179
f 255/420/487 301/423/490 422/424/491 289/159/182
f 255/420/487 259/422/489 286/425/492 301/423/490
f 256/156/179 431/155/178 261/158/181 260/421/488
f 259/422/489 260/421/488 385/412/479 384/408/475
f 259/422/489 384/408/475 399/230/251 286/425/492
f 260/421/488 261/158/181 386/341/393 385/412/479
f 264/426/493 331/427/494 266/386/449 265/385/448
f 264/426/493 265/385/448 391/667/384 292/668/495
f 266/386/449 331/427/494 332/429/496 333/391/454
f 267/345/397 354/350/402 355/411/478 268/346/398
f 268/346/398 271/76/85 272/75/84 269/344/396
f 268/346/398 355/411/478 270/83/92 271/76/85
f 269/344/396 272/75/84 398/79/88 409/339/391
f 275/245/270 324/225/246 339/418/485 338/417/484
f 275/245/270 338/417/484 383/419/486 414/246/271
s 2
f 460/608/174 459/609/173 479/500/287 482/497/290
s 1
f 276/430/497 387/91/100 287/99/108 288/431/498
f 276/430/497 417/229/250 277/92/101 387/91/100
f 276/430/497 286/425/492 399/230/251 417/229/250
f 276/430/497 288/431/498 301/423/490 286/425/492
f 278/295/347 281/297/349 282/43/53 279/45/55
f 280/27/33 374/21/21 283/23/23 281/297/349
f 281/297/349 283/23/23 284/39/49 282/43/53
f 283/23/23 375/12/12 285/14/14 284/39/49
f 287/99/108 291/160/183 395/432/499 288/431/498
f 288/431/498 395/432/499 422/424/491 301/423/490
f 289/159/182 422/424/491 395/432/499 291/160/183
f 292/428/495 391/332/384 321/329/381 334/433/500
f 293/256/298 380/388/451 295/333/385 294/272/318
f 293/256/298 294/272/318 350/271/317 351/254/296
f 297/60/70 306/59/69 305/142/161 304/73/82
s 2
f 458/611/172 461/605/175 507/472/472 506/473/471
s 1
f 300/342/394 430/93/102 421/96/105
f 302/143/162 304/73/82 305/142/161 437/141/160
f 309/70/79 312/380/443 313/67/76 310/66/75
f 311/379/442 315/381/444 316/434/501 312/380/443
f 312/380/443 316/434/501 317/435/502 313/67/76
f 313/67/76 317/435/502 318/65/74 314/63/73
f 315/381/444 360/382/445 361/436/503 316/434/501
f 316/434/501 361/436/503 362/437/504 317/435/502
f 317/435/502 362/437/504 363/438/505 318/65/74
f 318/65/74 363/438/505 364/56/66 319/49/59
f 320/258/300 358/260/302 357/331/383 359/330/382
f 320/258/300 359/330/382 391/332/384 429/255/297
f 321/329/381 322/238/263 335/439/506 334/433/500
f 322/238/263 323/237/262 336/299/351 335/439/506
s 2
f 455/617/130 492/487/346 491/488/345 456/615/131
s 1
f 324/225/246 329/218/239 326/440/507 339/418/485
f 325/416/483 326/440/507 328/275/321 348/276/322
f 325/416/483 337/414/481 339/418/485 326/440/507
f 325/416/483 348/276/322 347/376/439 346/400/463
f 326/440/507 329/218/239 356/215/236 328/275/321
s 2
f 454/618/129 457/613/132 451/626/126 450/627/125
s 1
f 330/390/453 379/58/68 405/57/67 390/392/455
f 332/429/496 407/308/360 377/355/407 333/391/454
f 344/396/459 346/400/463 347/376/439 345/405/468
f 10/64/19 9/573/22 440/572/508 439/571/509
f 412/185/350 185/192/355 438/649/510 441/648/511
f 9/573/22 408/570/34 442/569/512 440/572/508
f 336/646/351 412/185/350 441/648/511 443/644/513
f 11/568/20 10/64/19 439/571/509 445/567/514
f 185/192/355 186/642/428 444/641/515 438/649/510
f 12/566/24 11/568/20 445/567/514 447/565/516
f 186/642/428 187/640/430 446/637/517 444/641/515
f 407/635/360 332/634/496 450/629/518 448/628/519
f 405/564/67 364/563/66 449/562/520 451/561/521
f 131/625/357 407/635/360 448/628/519 452/624/522
f 364/563/66 363/560/505 453/559/523 449/562/520
f 331/621/494 264/620/493 455/619/524 454/616/525
f 403/558/388 390/557/455 457/556/526 456/555/527
f 421/554/105 397/553/230 459/552/528 458/551/529
f 97/614/233 98/612/249 461/610/530 460/607/531
f 381/550/462 404/549/339 463/548/532 462/547/533
f 190/606/436 191/604/438 465/603/534 464/601/535
f 419/546/96 435/545/95 466/544/536 467/543/537
f 400/600/403 231/596/140 469/594/538 468/592/539
f 231/596/140 162/590/139 470/588/540 469/594/538
f 365/542/155 419/546/96 467/543/537 471/541/541
f 162/590/139 163/586/141 472/583/542 470/588/540
f 43/540/151 365/542/155 471/541/541 473/539/543
f 163/586/141 142/581/378 474/580/544 472/583/542
f 366/538/156 43/540/151 473/539/543 476/537/545
f 142/581/378 141/578/376 475/576/546 474/580/544
f 433/536/159 366/538/156 476/537/545 477/535/547
f 141/578/376 140/574/373 478/471/548 475/576/546
f 369/534/408 414/533/271 480/532/549 479/531/550
f 64/470/217 415/469/221 482/468/551 481/467/552
f 414/533/271 383/530/486 483/529/553 480/532/549
f 63/466/214 64/470/217 481/467/552 484/465/554
f 192/464/218 63/466/214 484/465/554 485/463/555
f 383/530/486 382/528/482 486/527/556 483/529/553
f 334/462/500 335/461/506 489/460/557 487/459/558
f 372/526/267 411/525/380 488/524/559 490/523/560
f 411/525/380 373/522/387 491/521/561 488/524/559
f 292/458/495 334/462/500 487/459/558 492/457/562
f 408/570/34 372/526/267 490/523/560 442/569/512
f 335/461/506 336/646/351 443/644/513 489/460/557
f 360/520/445 433/536/159 477/535/547 493/519/563
f 140/574/373 138/456/370 494/455/564 478/471/548
f 361/518/503 360/520/445 493/519/563 495/517/565
f 138/456/370 136/454/367 496/453/566 494/455/564
f 362/516/504 361/518/503 495/517/565 497/515/567
f 136/454/367 134/452/361 498/451/568 496/453/566
f 363/560/505 362/516/504 497/515/567 453/559/523
f 134/452/361 131/625/357 452/624/522 498/451/568
f 13/514/25 12/566/24 447/565/516 500/513/569
f 187/640/430 188/450/432 499/449/570 446/637/517
f 382/528/482 381/550/462 462/547/533 486/527/556
f 191/604/438 192/464/218 485/463/555 465/603/534
f 404/549/339 124/512/39 501/511/571 463/548/532
f 124/512/39 14/510/26 502/509/572 501/511/571
f 189/448/434 190/606/436 464/601/535 503/447/573
f 14/510/26 13/514/25 500/513/569 502/509/572
f 188/450/432 189/448/434 503/447/573 499/449/570
f 435/545/95 434/504/392 504/503/574 466/544/536
f 263/446/476 400/600/403 468/592/539 505/445/575
f 434/508/392 300/506/394 506/505/576 504/507/574
f 262/444/252 263/442/476 505/441/575 507/443/577
f 397/553/230 369/534/408 479/531/550 459/552/528
f 415/469/221 97/614/233 460/607/531 482/468/551
f 461/610/530 98/612/249 262/444/252 507/443/577
f 458/551/529 506/505/576 300/506/394 421/554/105
f 264/620/493 292/458/495 492/457/562 455/619/524
f 373/522/387 403/558/388 456/555/527 491/521/561
f 390/557/455 405/564/67 451/561/521 457/556/526
f 332/634/496 331/621/494 454/616/525 450/629/518
