# This file uses centimeters as units for non-parametric coordinates.

mtllib Relic_Lust01.mtl
g default
v -1.181290 13.225871 1.181290
v 1.181290 13.225871 1.181290
v -1.181290 14.913001 1.181289
v 1.181290 14.913001 1.181290
v -1.181290 14.913001 -1.181290
v 1.181290 14.913001 -1.181290
v -1.181290 13.225871 -1.181289
v 1.181290 13.225871 -1.181290
v -1.594741 15.208249 0.000000
v 1.594741 14.069436 -1.594741
v 0.000000 12.930623 -1.594741
v -1.594741 14.069436 -1.594741
v 1.594741 12.930623 0.000000
v -1.594741 12.930623 0.000000
v 0.000000 12.930623 1.594741
v 1.594741 14.069436 1.594741
v 0.000000 15.208249 1.594741
v -1.594741 14.069436 1.594741
v 1.594741 15.208249 0.000000
v 0.000000 15.208249 -1.594741
v 0.000000 14.069436 2.126321
v 0.000000 15.587853 0.000000
v 0.000000 14.069436 -2.126321
v 0.000000 12.551019 0.000000
v 2.126321 14.069436 0.000000
v -2.126321 14.069436 0.000000
v 2.598076 0.000000 -1.500000
v 1.500000 0.000000 -2.598076
v 0.000000 0.000000 -3.000000
v -1.500000 0.000000 -2.598076
v -2.598076 0.000000 -1.500000
v -3.000000 0.000000 0.000000
v -2.598076 0.000000 1.500000
v -1.500000 0.000000 2.598076
v 0.000000 0.000000 3.000000
v 1.500000 0.000000 2.598076
v 2.598076 0.000000 1.500000
v 3.000000 0.000000 0.000000
v 0.000000 0.000000 0.000000
v 1.474591 10.366410 -0.851356
v 0.851356 10.366410 -1.474591
v -0.000000 10.366410 -1.702712
v -0.851356 10.366410 -1.474591
v -1.474591 10.366410 -0.851356
v -1.702712 10.366410 0.000000
v -1.474591 10.366410 0.851356
v -0.851356 10.366410 1.474591
v 0.000000 10.366410 1.702712
v 0.851356 10.366410 1.474591
v 1.474591 10.366410 0.851356
v 1.702712 10.366410 0.000000
v 0.986443 12.000003 -1.708567
v 1.708567 12.000003 -0.986443
v -0.000000 12.000003 -1.972885
v -0.986443 12.000003 -1.708567
v -1.708567 12.000003 -0.986443
v -1.972885 12.000003 -0.000000
v -1.708567 12.000003 0.986443
v -0.986443 12.000003 1.708567
v 0.000000 12.000003 1.972885
v 0.986443 12.000003 1.708567
v 1.708567 12.000003 0.986443
v 1.972885 12.000003 0.000000
v 2.866646 9.078194 -1.655058
v 3.263388 7.980638 -1.884117
v 3.310116 9.078194 0.000000
v 3.768234 7.980638 0.000000
v 1.655058 9.078194 -2.866646
v 1.884117 7.980638 -3.263388
v -0.000000 9.078194 -3.310116
v -0.000000 7.980638 -3.768234
v -1.655058 9.078194 -2.866646
v -1.884117 7.980638 -3.263388
v -2.866646 9.078194 -1.655058
v -3.263388 7.980638 -1.884117
v -3.310116 9.078194 0.000000
v -3.768234 7.980638 0.000000
v -2.866646 9.078194 1.655058
v -3.263388 7.980638 1.884117
v -1.655058 9.078194 2.866646
v -1.884117 7.980638 3.263388
v -0.000000 9.078194 3.310116
v -0.000000 7.980638 3.768234
v 1.655058 9.078194 2.866646
v 1.884117 7.980638 3.263388
v 2.866646 9.078194 1.655058
v 3.263388 7.980638 1.884117
v 2.014490 12.531259 -1.163065
v 1.163065 12.531259 -2.014490
v -0.000000 12.531259 -2.326130
v -1.163065 12.531259 -2.014490
v -2.014490 12.531259 -1.163065
v -2.326130 12.531259 -0.000000
v -2.014490 12.531259 1.163065
v -1.163065 12.531259 2.014490
v 0.000000 12.531259 2.326130
v 1.163065 12.531259 2.014490
v 2.014490 12.531259 1.163065
v 2.326130 12.531259 -0.000000
v 1.224679 13.187379 -2.121201
v 2.121201 13.187379 -1.224679
v 0.000000 13.187379 -2.449357
v -1.224679 13.187379 -2.121201
v -2.121201 13.187379 -1.224679
v -2.449357 13.187379 -0.000000
v -2.121201 13.187379 1.224679
v -1.224679 13.187379 2.121201
v 0.000000 13.187379 2.449357
v 1.224679 13.187379 2.121201
v 2.121201 13.187379 1.224679
v 2.449357 13.187379 -0.000000
v 0.673338 13.337614 -1.166255
v 1.166255 13.337614 -0.673338
v 0.000000 13.337614 -1.346676
v -0.673338 13.337614 -1.166255
v -1.166255 13.337614 -0.673338
v -1.346676 13.337614 -0.000000
v -1.166255 13.337614 0.673338
v -0.673338 13.337614 1.166255
v 0.000000 13.337614 1.346676
v 0.673338 13.337614 1.166255
v 1.166255 13.337614 0.673338
v 1.346676 13.337614 0.000000
vt 0.178494 0.825805
vt 0.125982 0.814050
vt 0.505022 0.847671
vt 0.472154 0.764967
vt 0.072690 0.821506
vt 0.044263 0.790670
vt 0.442078 0.900422
vt 0.451855 0.847506
vt 0.442406 0.794531
vt 0.389297 0.847312
vt 0.389491 0.784754
vt 0.389103 0.909871
vt 0.336187 0.900094
vt 0.326738 0.847118
vt 0.336515 0.794203
vt 0.118744 0.992188
vt 0.202623 0.962444
vt 0.306440 0.929658
vt 0.068391 0.927310
vt 0.120903 0.939064
vt 0.174195 0.931609
vt 0.123443 0.876557
vt 0.185950 0.879097
vt 0.060936 0.874018
vt 0.388938 0.963037
vt 0.389655 0.731587
vt 0.209330 0.797377
vt 0.239073 0.881256
vt 0.306951 0.764455
vt 0.037556 0.955737
vt 0.007812 0.871859
vt 0.471642 0.930169
vt 0.273572 0.846954
vt 0.128141 0.760927
vt 0.835247 0.787190
vt 0.770540 0.799414
vt 0.780084 0.672558
vt 0.885173 0.744251
vt 0.906940 0.682101
vt 0.894716 0.617395
vt 0.851777 0.567469
vt 0.789627 0.545702
vt 0.724921 0.557926
vt 0.674995 0.600865
vt 0.653228 0.663014
vt 0.665452 0.727721
vt 0.708391 0.777647
vt 0.361441 0.722297
vt 0.324239 0.725888
vt 0.314548 0.656347
vt 0.357653 0.652186
vt 0.287472 0.732605
vt 0.271947 0.664130
vt 0.251404 0.742401
vt 0.230156 0.675480
vt 0.216290 0.755206
vt 0.189471 0.690317
vt 0.182383 0.770928
vt 0.150183 0.708534
vt 0.611849 0.784035
vt 0.578963 0.766274
vt 0.609690 0.703142
vt 0.647793 0.723720
vt 0.544696 0.751352
vt 0.569986 0.685852
vt 0.509292 0.739375
vt 0.528964 0.671974
vt 0.473004 0.730428
vt 0.486918 0.661607
vt 0.436090 0.724575
vt 0.444146 0.654826
vt 0.398813 0.721859
vt 0.400955 0.651678
vt 0.504450 0.396348
vt 0.509316 0.346537
vt 0.577951 0.352363
vt 0.569924 0.401626
vt 0.439135 0.393590
vt 0.441003 0.343599
vt 0.373791 0.393251
vt 0.372582 0.343456
vt 0.647372 0.361416
vt 0.635739 0.409850
vt 0.718125 0.374222
vt 0.702033 0.421956
vt 0.790990 0.391059
vt 0.768679 0.440003
vt 0.867669 0.409869
vt 0.834161 0.469620
vt 0.045656 0.458711
vt 0.008734 0.402453
vt 0.087565 0.380105
vt 0.109095 0.428193
vt 0.161873 0.363681
vt 0.175655 0.411077
vt 0.233583 0.352780
vt 0.242205 0.401065
vt 0.303611 0.346333
vt 0.308218 0.395540
vt 0.496793 0.483077
vt 0.437708 0.480387
vt 0.555088 0.487751
vt 0.611566 0.494755
vt 0.664673 0.504860
vt 0.711743 0.519648
vt 0.747735 0.542159
vt 0.128925 0.524930
vt 0.163785 0.503948
vt 0.210766 0.491536
vt 0.263913 0.484461
vt 0.320381 0.480801
vt 0.378641 0.479587
vt 0.513935 0.008837
vt 0.587968 0.011915
vt 0.661299 0.016627
vt 0.733608 0.022174
vt 0.804569 0.027242
vt 0.873892 0.029648
vt 0.007812 0.033665
vt 0.074956 0.030851
vt 0.145172 0.024577
vt 0.217378 0.017939
vt 0.290848 0.012508
vt 0.365038 0.009038
vt 0.439519 0.007812
vt 0.331174 0.522682
vt 0.283637 0.537143
vt 0.272741 0.510993
vt 0.325500 0.494926
vt 0.239762 0.560464
vt 0.224054 0.536893
vt 0.201167 0.591779
vt 0.181274 0.571655
vt 0.169190 0.629962
vt 0.146069 0.613914
vt 0.144577 0.674106
vt 0.119336 0.661048
vt 0.617498 0.671898
vt 0.593035 0.627781
vt 0.616133 0.611362
vt 0.643132 0.658859
vt 0.560816 0.589835
vt 0.580411 0.569391
vt 0.521901 0.558922
vt 0.537217 0.535093
vt 0.477774 0.536080
vt 0.488230 0.509751
vt 0.430082 0.522140
vt 0.435288 0.494292
vt 0.380602 0.517618
vt 0.380363 0.489289
vt 0.380648 0.544645
vt 0.336409 0.549197
vt 0.293867 0.562159
vt 0.254602 0.583046
vt 0.220067 0.611067
vt 0.191532 0.645111
vt 0.170396 0.683663
vt 0.591859 0.681144
vt 0.570831 0.642857
vt 0.541975 0.609158
vt 0.507133 0.581550
vt 0.467629 0.561130
vt 0.424938 0.548673
vt 0.615756 0.973739
vt 0.579383 0.933895
vt 0.621251 0.912171
vt 0.641153 0.933991
vt 0.567805 0.881202
vt 0.614926 0.883322
vt 0.584125 0.829780
vt 0.623872 0.855177
vt 0.623968 0.793407
vt 0.645693 0.835275
vt 0.676661 0.781829
vt 0.674541 0.828950
vt 0.728083 0.798148
vt 0.702687 0.837896
vt 0.764456 0.837992
vt 0.722589 0.859716
vt 0.776035 0.890685
vt 0.728914 0.888565
vt 0.759715 0.942107
vt 0.719968 0.916711
vt 0.719871 0.978480
vt 0.698147 0.936612
vt 0.667179 0.990058
vt 0.669299 0.942938
vn -0.497429 -0.710725 0.497429
vn 0.000000 -0.797354 0.603512
vn 0.000000 0.000000 1.000000
vn -0.707107 0.000000 0.707107
vn 0.497429 -0.710725 0.497429
vn 0.707107 0.000000 0.707107
vn 0.497429 0.710725 0.497429
vn 0.000000 0.797354 0.603512
vn -0.497429 0.710725 0.497429
vn 0.000000 1.000000 0.000000
vn -0.603512 0.797354 -0.000000
vn 0.603512 0.797354 0.000000
vn 0.497429 0.710725 -0.497429
vn 0.000000 0.797354 -0.603512
vn -0.497429 0.710725 -0.497429
vn 0.000000 -0.000000 -1.000000
vn -0.707107 -0.000000 -0.707107
vn 0.707107 0.000000 -0.707107
vn 0.497429 -0.710725 -0.497429
vn 0.000000 -0.797354 -0.603512
vn -0.497429 -0.710725 -0.497429
vn 0.000000 -1.000000 0.000000
vn -0.603512 -0.797354 0.000000
vn 0.603512 -0.797354 0.000000
vn 1.000000 -0.000000 0.000000
vn -1.000000 0.000000 -0.000000
vn 0.000000 -1.000000 0.000000
vn 0.000000 -1.000000 0.000000
vn 0.000000 -1.000000 0.000000
vn 0.000000 -1.000000 0.000000
vn 0.000000 -1.000000 0.000000
vn 0.000000 -1.000000 0.000000
vn 0.000000 -1.000000 0.000000
vn 0.000000 -1.000000 0.000000
vn 0.000000 -1.000000 0.000000
vn 0.000000 -1.000000 0.000000
vn 0.000000 -1.000000 0.000000
vn 0.000000 -1.000000 0.000000
vn 0.000000 -1.000000 0.000000
vn 0.742480 0.514746 -0.428672
vn 0.428671 0.514746 -0.742480
vn 0.493299 -0.163169 -0.854419
vn 0.854419 -0.163169 -0.493299
vn 0.000000 0.514746 -0.857343
vn 0.000000 -0.163169 -0.986598
vn -0.428671 0.514746 -0.742481
vn -0.493299 -0.163169 -0.854419
vn -0.742480 0.514746 -0.428671
vn -0.854419 -0.163169 -0.493299
vn -0.857343 0.514746 0.000000
vn -0.986598 -0.163169 -0.000000
vn -0.742480 0.514746 0.428672
vn -0.854419 -0.163169 0.493299
vn -0.428671 0.514746 0.742480
vn -0.493299 -0.163169 0.854419
vn -0.000000 0.514746 0.857343
vn -0.000000 -0.163169 0.986598
vn 0.428671 0.514746 0.742481
vn 0.493299 -0.163169 0.854419
vn 0.742480 0.514746 0.428671
vn 0.854419 -0.163169 0.493299
vn 0.857343 0.514746 0.000000
vn 0.986598 -0.163169 0.000000
vn 0.691621 0.601842 -0.399308
vn 0.865513 -0.034411 -0.499704
vn 0.499704 -0.034411 -0.865513
vn 0.399308 0.601842 -0.691621
vn 0.798615 0.601842 -0.000000
vn 0.999408 -0.034411 -0.000000
vn 0.691621 0.601842 0.399307
vn 0.865513 -0.034411 0.499704
vn 0.000000 -0.034411 -0.999408
vn -0.000000 0.601842 -0.798615
vn -0.499704 -0.034411 -0.865513
vn -0.399308 0.601842 -0.691621
vn -0.865513 -0.034411 -0.499704
vn -0.691621 0.601842 -0.399307
vn -0.999408 -0.034411 0.000000
vn -0.798615 0.601842 -0.000000
vn -0.865513 -0.034411 0.499704
vn -0.691621 0.601842 0.399307
vn -0.499704 -0.034411 0.865513
vn -0.399308 0.601842 0.691621
vn 0.000000 -0.034411 0.999408
vn 0.000000 0.601842 0.798615
vn 0.499704 -0.034411 0.865513
vn 0.399308 0.601842 0.691621
vn 0.862041 -0.095819 -0.497699
vn 0.497699 -0.095819 -0.862041
vn 0.000000 -0.095819 -0.995399
vn -0.497699 -0.095819 -0.862041
vn -0.862041 -0.095819 -0.497699
vn -0.995399 -0.095819 0.000000
vn -0.862041 -0.095819 0.497699
vn -0.497699 -0.095819 0.862041
vn 0.000000 -0.095819 0.995399
vn 0.497699 -0.095819 0.862041
vn 0.862041 -0.095819 0.497699
vn 0.995399 -0.095819 0.000000
vn 0.851146 -0.184578 -0.491408
vn 0.491408 -0.184578 -0.851146
vn 0.491410 -0.184578 -0.851145
vn 0.851145 -0.184578 -0.491410
vn 0.000000 -0.184579 -0.982818
vn 0.000000 -0.184579 -0.982818
vn -0.491408 -0.184578 -0.851146
vn -0.491410 -0.184578 -0.851145
vn -0.851146 -0.184578 -0.491408
vn -0.851145 -0.184578 -0.491410
vn -0.982818 -0.184579 0.000000
vn -0.982818 -0.184579 0.000000
vn -0.851146 -0.184578 0.491408
vn -0.851145 -0.184578 0.491410
vn -0.491408 -0.184578 0.851146
vn -0.491410 -0.184578 0.851145
vn -0.000000 -0.184579 0.982818
vn -0.000000 -0.184579 0.982818
vn 0.491408 -0.184578 0.851146
vn 0.491410 -0.184578 0.851145
vn 0.851146 -0.184578 0.491408
vn 0.851145 -0.184578 0.491410
vn 0.982818 -0.184579 -0.000000
vn 0.982818 -0.184579 -0.000000
vn 0.721154 -0.553699 -0.416358
vn 0.832718 -0.553698 0.000000
vn 0.832718 -0.553698 0.000000
vn 0.721154 -0.553699 -0.416359
vn 0.416358 -0.553699 -0.721155
vn 0.416359 -0.553699 -0.721154
vn 0.000000 -0.553698 -0.832718
vn 0.000000 -0.553698 -0.832718
vn -0.416358 -0.553699 -0.721155
vn -0.416359 -0.553699 -0.721154
vn -0.721155 -0.553699 -0.416358
vn -0.721154 -0.553699 -0.416359
vn -0.832718 -0.553698 -0.000000
vn -0.832718 -0.553698 -0.000000
vn -0.721154 -0.553699 0.416358
vn -0.721154 -0.553699 0.416359
vn -0.416358 -0.553699 0.721155
vn -0.416359 -0.553699 0.721154
vn -0.000000 -0.553698 0.832718
vn -0.000000 -0.553698 0.832718
vn 0.416358 -0.553699 0.721155
vn 0.416359 -0.553699 0.721154
vn 0.721155 -0.553699 0.416358
vn 0.721154 -0.553699 0.416359
vn 0.116912 0.990846 -0.067500
vn 0.067499 0.990846 -0.116913
vn 0.067499 0.990846 -0.116913
vn 0.116912 0.990846 -0.067500
vn 0.000000 0.990846 -0.134998
vn 0.000000 0.990846 -0.134998
vn -0.067499 0.990846 -0.116912
vn -0.067499 0.990846 -0.116912
vn -0.116912 0.990846 -0.067500
vn -0.116912 0.990846 -0.067500
vn -0.134998 0.990846 0.000000
vn -0.134998 0.990846 0.000000
vn -0.116912 0.990846 0.067500
vn -0.116912 0.990846 0.067500
vn -0.067499 0.990846 0.116913
vn -0.067499 0.990846 0.116913
vn 0.000000 0.990846 0.134998
vn 0.000000 0.990846 0.134998
vn 0.067499 0.990846 0.116912
vn 0.067499 0.990846 0.116912
vn 0.116912 0.990846 0.067500
vn 0.116912 0.990846 0.067500
vn 0.134998 0.990846 -0.000000
vn 0.134998 0.990846 0.000000
s 1
g Relic_Lust Fix
usemtl T_Relic_Lust01SG
f 1/1/1 15/2/2 21/34/3 18/27/4
f 15/2/2 2/5/5 16/6/6 21/34/3
f 21/3/3 16/32/6 4/7/7 17/8/8
f 18/4/4 21/3/3 17/8/8 3/9/9
f 3/9/9 17/8/8 22/10/10 9/11/11
f 17/8/8 4/7/7 19/12/12 22/10/10
f 22/10/10 19/12/12 6/13/13 20/14/14
f 9/11/11 22/10/10 20/14/14 5/15/15
f 5/15/15 20/14/14 23/33/16 12/29/17
f 20/14/14 6/13/13 10/18/18 23/33/16
f 23/16/16 10/30/18 8/19/19 11/20/20
f 12/17/17 23/16/16 11/20/20 7/21/21
f 7/21/21 11/20/20 24/22/22 14/23/23
f 11/20/20 8/19/19 13/24/24 24/22/22
f 24/22/22 13/24/24 2/5/5 15/2/2
f 14/23/23 24/22/22 15/2/2 1/1/1
f 2/5/5 13/24/24 25/31/25 16/6/6
f 13/24/24 8/19/19 10/30/18 25/31/25
f 25/25/25 10/18/18 6/13/13 19/12/12
f 16/32/6 25/25/25 19/12/12 4/7/7
f 7/21/21 14/23/23 26/28/26 12/17/17
f 14/23/23 1/1/1 18/27/4 26/28/26
f 26/26/26 18/4/4 3/9/9 9/11/11
f 12/29/17 26/26/26 9/11/11 5/15/15
s 2
f 28/35/27 27/36/28 39/37/29
f 29/38/30 28/35/27 39/37/29
f 30/39/31 29/38/30 39/37/29
f 31/40/32 30/39/31 39/37/29
f 32/41/33 31/40/32 39/37/29
f 33/42/34 32/41/33 39/37/29
f 34/43/35 33/42/34 39/37/29
f 35/44/36 34/43/35 39/37/29
f 36/45/37 35/44/36 39/37/29
f 37/46/38 36/45/37 39/37/29
f 38/47/39 37/46/38 39/37/29
f 27/36/28 38/47/39 39/37/29
s 3
f 40/48/40 41/49/41 52/50/42 53/51/43
f 41/49/41 42/52/44 54/53/45 52/50/42
f 42/52/44 43/54/46 55/55/47 54/53/45
f 43/54/46 44/56/48 56/57/49 55/55/47
f 44/56/48 45/58/50 57/59/51 56/57/49
f 45/60/50 46/61/52 58/62/53 57/63/51
f 46/61/52 47/64/54 59/65/55 58/62/53
f 47/64/54 48/66/56 60/67/57 59/65/55
f 48/66/56 49/68/58 61/69/59 60/67/57
f 49/68/58 50/70/60 62/71/61 61/69/59
f 50/70/60 51/72/62 63/73/63 62/71/61
f 51/72/62 40/48/40 53/51/43 63/73/63
f 64/74/64 65/75/65 69/76/66 68/77/67
f 65/75/65 64/74/64 66/78/68 67/79/69
f 67/79/69 66/78/68 86/80/70 87/81/71
f 68/77/67 69/76/66 71/82/72 70/83/73
f 70/83/73 71/82/72 73/84/74 72/85/75
f 72/85/75 73/84/74 75/86/76 74/87/77
f 74/87/77 75/86/76 77/88/78 76/89/79
f 76/90/79 77/91/78 79/92/80 78/93/81
f 78/93/81 79/92/80 81/94/82 80/95/83
f 80/95/83 81/94/82 83/96/84 82/97/85
f 82/97/85 83/96/84 85/98/86 84/99/87
f 84/99/87 85/98/86 87/81/71 86/80/70
f 64/74/64 40/100/40 51/101/62 66/78/68
f 40/100/40 64/74/64 68/77/67 41/102/41
f 41/102/41 68/77/67 70/83/73 42/103/44
f 42/103/44 70/83/73 72/85/75 43/104/46
f 43/104/46 72/85/75 74/87/77 44/105/48
f 44/105/48 74/87/77 76/89/79 45/106/50
f 45/107/50 76/90/79 78/93/81 46/108/52
f 46/108/52 78/93/81 80/95/83 47/109/54
f 47/109/54 80/95/83 82/97/85 48/110/56
f 48/110/56 82/97/85 84/99/87 49/111/58
f 49/111/58 84/99/87 86/80/70 50/112/60
f 50/112/60 86/80/70 66/78/68 51/101/62
f 27/113/88 28/114/89 69/76/66 65/75/65
f 28/114/89 29/115/90 71/82/72 69/76/66
f 29/115/90 30/116/91 73/84/74 71/82/72
f 30/116/91 31/117/92 75/86/76 73/84/74
f 31/117/92 32/118/93 77/88/78 75/86/76
f 32/119/93 33/120/94 79/92/80 77/91/78
f 33/120/94 34/121/95 81/94/82 79/92/80
f 34/121/95 35/122/96 83/96/84 81/94/82
f 35/122/96 36/123/97 85/98/86 83/96/84
f 36/123/97 37/124/98 87/81/71 85/98/86
f 37/124/98 38/125/99 67/79/69 87/81/71
f 38/125/99 27/113/88 65/75/65 67/79/69
s 5
f 88/126/100 89/127/101 100/128/102 101/129/103
f 89/127/101 90/130/104 102/131/105 100/128/102
f 90/130/104 91/132/106 103/133/107 102/131/105
f 91/132/106 92/134/108 104/135/109 103/133/107
f 92/134/108 93/136/110 105/137/111 104/135/109
f 93/138/110 94/139/112 106/140/113 105/141/111
f 94/139/112 95/142/114 107/143/115 106/140/113
f 95/142/114 96/144/116 108/145/117 107/143/115
f 96/144/116 97/146/118 109/147/119 108/145/117
f 97/146/118 98/148/120 110/149/121 109/147/119
f 98/148/120 99/150/122 111/151/123 110/149/121
f 99/150/122 88/126/100 101/129/103 111/151/123
s 6
f 88/126/124 99/150/125 63/152/126 53/153/127
f 89/127/128 88/126/124 53/153/127 52/154/129
f 90/130/130 89/127/128 52/154/129 54/155/131
f 91/132/132 90/130/130 54/155/131 55/156/133
f 92/134/134 91/132/132 55/156/133 56/157/135
f 93/136/136 92/134/134 56/157/135 57/158/137
f 94/139/138 93/138/136 57/159/137 58/160/139
f 95/142/140 94/139/138 58/160/139 59/161/141
f 96/144/142 95/142/140 59/161/141 60/162/143
f 97/146/144 96/144/142 60/162/143 61/163/145
f 98/148/146 97/146/144 61/163/145 62/164/147
f 99/150/125 98/148/146 62/164/147 63/152/126
s 7
f 101/165/148 100/166/149 112/167/150 113/168/151
f 100/166/149 102/169/152 114/170/153 112/167/150
f 102/169/152 103/171/154 115/172/155 114/170/153
f 103/171/154 104/173/156 116/174/157 115/172/155
f 104/173/156 105/175/158 117/176/159 116/174/157
f 105/175/158 106/177/160 118/178/161 117/176/159
f 106/177/160 107/179/162 119/180/163 118/178/161
f 107/179/162 108/181/164 120/182/165 119/180/163
f 108/181/164 109/183/166 121/184/167 120/182/165
f 109/183/166 110/185/168 122/186/169 121/184/167
f 110/185/168 111/187/170 123/188/171 122/186/169
f 111/187/170 101/165/148 113/168/151 123/188/171
