# This file uses centimeters as units for non-parametric coordinates.

mtllib Relic_Sloth01.mtl
g default
v 0.000000 0.000000 0.000000
v 6.928203 0.749925 -4.000000
v 6.255839 0.000000 -3.611810
v 4.000000 0.749925 -6.928203
v 3.611810 0.000000 -6.255839
v 0.000000 0.749925 -8.000000
v 0.000000 0.000000 -7.223620
v -4.000000 0.749925 -6.928203
v -3.611810 0.000000 -6.255839
v -6.928203 0.749925 -4.000000
v -6.255839 0.000000 -3.611810
v -8.000000 0.749925 0.000000
v -7.223620 0.000000 0.000000
v -6.928203 0.749925 4.000000
v -6.255839 0.000000 3.611810
v -4.000000 0.749925 6.928203
v -3.611810 0.000000 6.255839
v 0.000000 0.749925 8.000000
v 0.000000 0.000000 7.223620
v 4.000000 0.749925 6.928203
v 3.611810 0.000000 6.255839
v 6.928203 0.749925 4.000000
v 6.255839 0.000000 3.611810
v 8.000000 0.749925 0.000000
v 7.223620 0.000000 0.000000
v 6.222197 3.547282 -3.592387
v 6.928203 2.759835 -4.000000
v 3.592387 3.547282 -6.222197
v 4.000000 2.759835 -6.928203
v 0.000000 3.547282 -7.184774
v 0.000000 2.759835 -8.000000
v -3.592387 3.547282 -6.222197
v -4.000000 2.759835 -6.928203
v -6.222197 3.547282 -3.592387
v -6.928203 2.759835 -4.000000
v -7.184774 3.547282 0.000000
v -8.000000 2.759835 0.000000
v -6.222197 3.547282 3.592387
v -6.928203 2.759835 4.000000
v -3.592387 3.547282 6.222197
v -4.000000 2.759835 6.928203
v 0.000000 3.547282 7.184774
v 0.000000 2.759835 8.000000
v 3.592387 3.547282 6.222197
v 4.000000 2.759835 6.928203
v 6.222197 3.547282 3.592387
v 6.928203 2.759835 4.000000
v 7.184774 3.547282 0.000000
v 8.000000 2.759835 0.000000
v 3.230041 3.547282 -5.594594
v 5.594594 3.547282 -3.230041
v 0.000000 3.547282 -6.460081
v -3.230041 3.547282 -5.594594
v -5.594594 3.547282 -3.230041
v -6.460081 3.547282 0.000000
v -5.594594 3.547282 3.230041
v -3.230041 3.547282 5.594594
v 0.000000 3.547282 6.460081
v 3.230041 3.547282 5.594594
v 5.594594 3.547282 3.230041
v 6.460081 3.547282 0.000000
v 3.230041 3.057522 -5.594594
v 5.594594 3.057522 -3.230041
v 0.000000 3.057522 0.000000
v 0.000000 3.057522 -6.460081
v -3.230041 3.057522 -5.594594
v -5.594594 3.057522 -3.230041
v -6.460081 3.057522 0.000000
v -5.594594 3.057522 3.230041
v -3.230041 3.057522 5.594594
v 0.000000 3.057522 6.460081
v 3.230041 3.057522 5.594594
v 5.594594 3.057522 3.230041
v 6.460081 3.057522 0.000000
v -9.391967 1.024924 0.746579
v -7.370194 1.024924 0.746579
v -9.391967 2.518083 0.746579
v -7.370194 2.518083 0.746579
v -9.391967 2.518083 -0.746579
v -7.370194 2.518083 -0.746579
v -9.391967 1.024924 -0.746579
v -7.370194 1.024924 -0.746579
v -10.625804 0.967800 0.884865
v -9.423803 0.967800 0.884865
v -10.625804 2.737531 0.884865
v -9.423803 2.737531 0.884865
v -10.625804 2.737530 -0.884865
v -9.423803 2.737531 -0.884865
v -10.625804 0.967800 -0.884865
v -9.423803 0.967800 -0.884865
v -10.836154 3.047234 0.000000
v -9.213453 1.852666 -1.194568
v -10.024803 0.658098 -1.194568
v -10.836154 1.852666 -1.194568
v -9.213453 0.658098 0.000000
v -10.836154 0.658098 0.000000
v -10.024803 0.658098 1.194568
v -9.213453 1.852666 1.194568
v -10.024803 3.047234 1.194568
v -10.836154 1.852666 1.194568
v -9.213453 3.047234 0.000000
v -10.024803 3.047234 -1.194568
v -10.024803 1.852666 1.592757
v -10.024803 3.445423 0.000000
v -10.024803 1.852666 -1.592757
v -10.024803 0.259908 0.000000
v -8.943003 1.852666 0.000000
v -11.106605 1.852666 0.000000
v -9.241911 1.758109 -1.702224
v -10.689909 1.758109 -2.754257
v -12.479733 1.758109 -2.754256
v -13.927731 1.758109 -1.702224
v -14.480816 1.758109 0.000000
v -13.927731 1.758109 1.702224
v -12.479733 1.758109 2.754256
v -10.689909 1.758109 2.754256
v -9.241911 1.758109 1.702224
v -8.688825 1.758109 0.000000
v -8.907209 2.171823 -1.945399
v -10.562064 2.171823 -3.147722
v -12.607577 2.171823 -3.147721
v -14.262432 2.171823 -1.945399
v -14.894531 2.171823 0.000000
v -14.262432 2.171823 1.945399
v -12.607576 2.171823 3.147721
v -10.562064 2.171823 3.147721
v -8.907209 2.171823 1.945399
v -8.275110 2.171823 0.000000
v -8.572508 1.758109 -2.188574
v -10.434219 1.758109 -3.541187
v -12.735422 1.758109 -3.541186
v -14.597134 1.758109 -2.188573
v -15.308245 1.758109 0.000000
v -14.597134 1.758109 2.188574
v -12.735421 1.758109 3.541186
v -10.434219 1.758109 3.541186
v -8.572508 1.758109 2.188573
v -7.861397 1.758109 0.000000
v -8.907209 1.344395 -1.945399
v -10.562064 1.344395 -3.147722
v -12.607577 1.344395 -3.147721
v -14.262432 1.344395 -1.945399
v -14.894531 1.344395 0.000000
v -14.262432 1.344395 1.945399
v -12.607576 1.344395 3.147721
v -10.562064 1.344395 3.147721
v -8.907209 1.344395 1.945399
v -8.275110 1.344395 0.000000
vt 0.669139 0.604909
vt 0.039434 0.361184
vt 0.125684 0.447332
vt 0.537331 0.627965
vt 0.797080 0.565689
vt 0.007812 0.243453
vt 0.243452 0.478813
vt 0.403716 0.634490
vt 0.361183 0.447192
vt 0.270446 0.624347
vt 0.447331 0.360942
vt 0.139585 0.597871
vt 0.478812 0.243173
vt 0.806681 0.748875
vt 0.447191 0.125442
vt 0.677637 0.784889
vt 0.360941 0.039294
vt 0.546032 0.810071
vt 0.243172 0.007813
vt 0.412552 0.818437
vt 0.125441 0.039434
vt 0.279036 0.810038
vt 0.039293 0.125684
vt 0.147572 0.785118
vt 0.243312 0.243313
vt 0.644891 0.504887
vt 0.653749 0.540680
vt 0.530005 0.562334
vt 0.525647 0.525726
vt 0.760628 0.469441
vt 0.044332 0.682612
vt 0.404501 0.568506
vt 0.404704 0.531676
vt 0.278974 0.559164
vt 0.283800 0.522813
vt 0.154159 0.534546
vt 0.164501 0.499653
vt 0.030205 0.492847
vt 0.768559 0.648146
vt 0.662775 0.722110
vt 0.653103 0.687356
vt 0.538233 0.744922
vt 0.533471 0.708594
vt 0.412698 0.752476
vt 0.412489 0.715651
vt 0.287313 0.744528
vt 0.291660 0.707921
vt 0.163896 0.721125
vt 0.172743 0.685332
vt 0.803352 0.036094
vt 0.346939 0.992188
vt 0.697934 0.218420
vt 0.455958 0.992188
vt 0.564976 0.992188
vt 0.673995 0.992188
vt 0.007812 0.966534
vt 0.116831 0.966534
vt 0.225850 0.966534
vt 0.334868 0.966534
vt 0.443887 0.966534
vt 0.552905 0.966534
vt 0.128902 0.992188
vt 0.346939 0.976221
vt 0.237921 0.976221
vt 0.455958 0.976221
vt 0.564976 0.976221
vt 0.673995 0.976221
vt 0.007813 0.950567
vt 0.116831 0.950567
vt 0.225850 0.950567
vt 0.334868 0.950567
vt 0.443887 0.950567
vt 0.552905 0.950567
vt 0.128902 0.976221
vt 0.237921 0.992188
vt 0.698066 0.007812
vt 0.592744 0.035963
vt 0.515609 0.113002
vt 0.487327 0.218288
vt 0.515477 0.323610
vt 0.592517 0.400745
vt 0.697803 0.429027
vt 0.803124 0.400877
vt 0.880260 0.323837
vt 0.908541 0.218551
vt 0.880391 0.113230
vt 0.639681 0.482303
vt 0.752660 0.447676
vt 0.178659 0.662923
vt 0.294754 0.684955
vt 0.412704 0.692492
vt 0.530711 0.685643
vt 0.646590 0.665116
vt 0.753813 0.628208
vt 0.171565 0.477806
vt 0.287253 0.499984
vt 0.405211 0.508523
vt 0.523275 0.502674
vt 0.783013 0.976221
vt 0.783013 0.992188
vt 0.139243 0.818442
vt 0.007812 0.776127
vt 0.274897 0.844134
vt 0.412639 0.852774
vt 0.550134 0.844146
vt 0.684191 0.818804
vt 0.007812 0.596114
vt 0.132761 0.631119
vt 0.266190 0.658325
vt 0.403466 0.668821
vt 0.541303 0.662083
vt 0.677303 0.638275
vt 0.050449 0.458934
vt 0.065338 0.439590
vt 0.009024 0.559868
vt 0.789195 0.681534
vt 0.808069 0.785998
vt 0.057546 0.648189
vt 0.066193 0.626686
vt 0.020206 0.744091
vt 0.773853 0.503861
vt 0.809316 0.597788
vt 0.661924 0.950567
vt 0.661924 0.966534
vt 0.744037 0.881115
vt 0.744037 0.815203
vt 0.792715 0.815203
vt 0.792715 0.881115
vt 0.841394 0.815203
vt 0.841394 0.881115
vt 0.890074 0.815203
vt 0.890074 0.881115
vt 0.938752 0.815203
vt 0.938752 0.881115
vt 0.861675 0.394779
vt 0.852700 0.373083
vt 0.903274 0.373818
vt 0.891979 0.401051
vt 0.531384 0.362425
vt 0.520124 0.383027
vt 0.489320 0.385997
vt 0.481025 0.357706
vt 0.461790 0.400131
vt 0.441188 0.388871
vt 0.939522 0.409093
vt 0.917827 0.418068
vt 0.938787 0.459667
vt 0.911555 0.448372
vt 0.464760 0.430934
vt 0.436469 0.439229
vt 0.478894 0.458465
vt 0.467634 0.479067
vt 0.903512 0.495915
vt 0.894537 0.474220
vt 0.852938 0.495180
vt 0.864233 0.467948
vt 0.509697 0.455494
vt 0.517993 0.483785
vt 0.537228 0.441361
vt 0.557830 0.452621
vt 0.816690 0.459905
vt 0.838385 0.450930
vt 0.817425 0.409331
vt 0.844657 0.420626
vt 0.534258 0.410557
vt 0.562549 0.402262
vt 0.499509 0.420746
vt 0.878106 0.434499
vt 0.603383 0.863645
vt 0.665592 0.862451
vt 0.671005 0.882040
vt 0.603878 0.882538
vt 0.538287 0.863030
vt 0.538136 0.881859
vt 0.472865 0.862702
vt 0.472645 0.881556
vt 0.407422 0.862476
vt 0.407195 0.881338
vt 0.341979 0.862271
vt 0.341751 0.881135
vt 0.276535 0.862076
vt 0.276308 0.880938
vt 0.211099 0.861904
vt 0.210864 0.880755
vt 0.145715 0.861830
vt 0.145407 0.880621
vt 0.080755 0.861991
vt 0.079668 0.880597
vt 0.019245 0.859176
vt 0.013273 0.878049
vt 0.675384 0.902368
vt 0.604024 0.901106
vt 0.537995 0.900631
vt 0.472489 0.900405
vt 0.407040 0.900202
vt 0.341596 0.900002
vt 0.276153 0.899803
vt 0.210705 0.899605
vt 0.145200 0.899390
vt 0.079173 0.898932
vt 0.007812 0.897694
vt 0.669918 0.922010
vt 0.603524 0.919440
vt 0.537786 0.919400
vt 0.472330 0.919255
vt 0.406887 0.919067
vt 0.341444 0.918869
vt 0.276001 0.918668
vt 0.210553 0.918455
vt 0.145064 0.918163
vt 0.079324 0.917500
vt 0.012199 0.918020
vt 0.663940 0.940881
vt 0.602433 0.938045
vt 0.537477 0.938190
vt 0.472097 0.938106
vt 0.406664 0.937929
vt 0.341223 0.937732
vt 0.275781 0.937530
vt 0.210339 0.937310
vt 0.144920 0.936992
vt 0.079826 0.936393
vt 0.017619 0.937607
vn 0.840835 -0.239435 -0.485456
vn 0.190348 -0.975546 -0.109897
vn 0.109897 -0.975546 -0.190348
vn 0.485456 -0.239435 -0.840835
vn 0.970912 -0.239435 0.000000
vn 0.219795 -0.975546 0.000000
vn 0.000000 -0.975546 -0.219795
vn 0.000000 -0.239435 -0.970912
vn -0.109897 -0.975546 -0.190348
vn -0.485456 -0.239435 -0.840835
vn -0.190348 -0.975546 -0.109897
vn -0.840835 -0.239435 -0.485456
vn -0.219795 -0.975546 0.000000
vn -0.970912 -0.239435 0.000000
vn -0.190348 -0.975546 0.109897
vn -0.840835 -0.239435 0.485456
vn -0.109897 -0.975546 0.190348
vn -0.485456 -0.239435 0.840835
vn 0.000000 -0.975546 0.219795
vn 0.000000 -0.239435 0.970912
vn 0.109897 -0.975546 0.190348
vn 0.485456 -0.239435 0.840835
vn 0.190348 -0.975546 0.109897
vn 0.840835 -0.239435 0.485456
vn 0.000000 -1.000000 0.000000
vn 0.448659 0.855340 -0.259033
vn 0.839090 0.247462 -0.484449
vn 0.484449 0.247462 -0.839090
vn 0.259033 0.855340 -0.448659
vn 0.518067 0.855340 -0.000000
vn 0.968898 0.247462 -0.000000
vn 0.000000 0.247462 -0.968898
vn 0.000000 0.855340 -0.518067
vn -0.484449 0.247462 -0.839090
vn -0.259033 0.855340 -0.448659
vn -0.839090 0.247462 -0.484449
vn -0.448659 0.855340 -0.259033
vn -0.968898 0.247462 0.000000
vn -0.518067 0.855340 0.000000
vn -0.839090 0.247462 0.484449
vn -0.448659 0.855340 0.259033
vn -0.484449 0.247462 0.839090
vn -0.259033 0.855340 0.448659
vn 0.000000 0.247462 0.968898
vn 0.000000 0.855340 0.518067
vn 0.484449 0.247462 0.839090
vn 0.259033 0.855340 0.448659
vn 0.839090 0.247462 0.484449
vn 0.448659 0.855340 0.259033
vn 0.000000 1.000000 0.000000
vn 0.000000 1.000000 0.000000
vn 0.000000 1.000000 0.000000
vn 0.000000 1.000000 0.000000
vn 0.000000 1.000000 0.000000
vn 0.000000 1.000000 0.000000
vn 0.000000 1.000000 0.000000
vn 0.000000 1.000000 0.000000
vn 0.000000 1.000000 0.000000
vn 0.000000 1.000000 0.000000
vn 0.000000 1.000000 0.000000
vn 0.000000 1.000000 0.000000
vn 0.000000 1.000000 0.000000
vn 0.000000 1.000000 -0.000000
vn 0.000000 1.000000 0.000000
vn 0.000000 1.000000 -0.000000
vn 0.000000 1.000000 -0.000000
vn 0.000000 1.000000 0.000000
vn 0.000000 1.000000 0.000000
vn 0.000000 1.000000 -0.000000
vn 0.000000 1.000000 0.000000
vn 0.000000 1.000000 0.000000
vn 0.000000 1.000000 0.000000
vn 0.000000 1.000000 -0.000000
vn 0.000000 1.000000 0.000000
vn -0.866025 0.000000 0.500000
vn -0.500000 0.000000 0.866025
vn -0.500000 0.000000 0.866025
vn -0.866025 0.000000 0.500000
vn 0.000000 0.000000 1.000000
vn 0.000000 0.000000 1.000000
vn 0.500000 0.000000 0.866025
vn 0.500000 0.000000 0.866025
vn 0.866025 0.000000 0.500000
vn 0.866025 0.000000 0.500000
vn 1.000000 0.000000 0.000000
vn 1.000000 0.000000 0.000000
vn 0.866025 0.000000 -0.500000
vn 0.866025 0.000000 -0.500000
vn 0.500000 0.000000 -0.866025
vn 0.500000 0.000000 -0.866025
vn 0.000000 0.000000 -1.000000
vn 0.000000 0.000000 -1.000000
vn -0.500000 0.000000 -0.866025
vn -0.500000 0.000000 -0.866025
vn -0.866025 0.000000 -0.500000
vn -0.866025 0.000000 -0.500000
vn -1.000000 0.000000 0.000000
vn -1.000000 0.000000 0.000000
vn 0.000000 -0.707107 0.707107
vn 0.000000 -0.707107 0.707107
vn 0.000000 0.707107 0.707107
vn 0.000000 0.707107 0.707107
vn 0.000000 0.707107 -0.707107
vn 0.000000 0.707107 -0.707107
vn 0.000000 -0.707107 -0.707107
vn 0.000000 -0.707107 -0.707107
vn -0.728803 -0.484173 0.484173
vn -0.000000 -0.707107 0.707107
vn -0.000000 0.000000 1.000000
vn -0.809586 -0.000000 0.587001
vn 0.728803 -0.484172 0.484172
vn 0.809587 0.000000 0.587001
vn 0.728803 0.484172 0.484172
vn -0.000000 0.707107 0.707107
vn -0.728803 0.484173 0.484173
vn -0.000000 1.000000 0.000000
vn -0.809586 0.587001 0.000000
vn 0.809587 0.587001 0.000000
vn 0.728803 0.484172 -0.484172
vn -0.000000 0.707107 -0.707107
vn -0.728803 0.484173 -0.484173
vn -0.000000 -0.000000 -1.000000
vn -0.809586 0.000000 -0.587001
vn 0.809587 -0.000000 -0.587001
vn 0.728803 -0.484172 -0.484172
vn -0.000000 -0.707107 -0.707107
vn -0.728803 -0.484173 -0.484173
vn -0.000000 -1.000000 0.000000
vn -0.809586 -0.587001 -0.000000
vn 0.809587 -0.587000 0.000000
vn 1.000000 0.000000 0.000000
vn -1.000000 -0.000000 -0.000000
vn -0.309017 -0.000000 0.951057
vn -0.809017 0.000000 0.587785
vn 0.159406 0.980396 -0.115815
vn 0.060888 0.980396 -0.187393
vn 0.309017 -0.000000 0.951056
vn -0.060888 0.980396 -0.187393
vn 0.809017 0.000000 0.587785
vn -0.159406 0.980396 -0.115815
vn 1.000000 0.000000 0.000000
vn -0.197037 0.980396 0.000000
vn 0.809017 -0.000000 -0.587785
vn -0.159406 0.980396 0.115816
vn 0.309017 -0.000000 -0.951056
vn -0.060888 0.980396 0.187393
vn -0.309017 0.000000 -0.951056
vn 0.060888 0.980396 0.187393
vn -0.809017 0.000000 -0.587785
vn 0.159406 0.980396 0.115815
vn -1.000000 0.000001 0.000000
vn 0.197036 0.980396 -0.000000
vn 0.809017 0.000000 -0.587785
vn 0.309017 -0.000000 -0.951057
vn -0.309017 0.000000 -0.951057
vn -0.809017 0.000000 -0.587785
vn -1.000000 -0.000000 0.000000
vn -0.809017 0.000000 0.587785
vn -0.309017 0.000000 0.951056
vn 0.309017 0.000000 0.951057
vn 0.809017 0.000000 0.587785
vn 1.000000 -0.000000 -0.000000
vn 0.159406 -0.980396 -0.115815
vn 0.060887 -0.980396 -0.187393
vn -0.060888 -0.980396 -0.187393
vn -0.159406 -0.980396 -0.115815
vn -0.197037 -0.980396 0.000000
vn -0.159406 -0.980396 0.115816
vn -0.060888 -0.980396 0.187393
vn 0.060888 -0.980396 0.187393
vn 0.159406 -0.980396 0.115815
vn 0.197037 -0.980396 -0.000000
s 1
g Relic_Sloth01 Fix
usemtl lambert3SG
f 2/1/1 3/112/2 5/111/3 4/4/4
f 3/112/2 2/1/1 24/5/5 25/122/6
f 4/4/4 5/111/3 7/110/7 6/8/8
f 6/8/8 7/110/7 9/109/9 8/10/10
f 8/10/10 9/109/9 11/108/11 10/12/12
f 10/12/12 11/108/11 13/107/13 12/115/14
f 12/14/14 13/117/13 15/106/15 14/16/16
f 14/16/16 15/106/15 17/105/17 16/18/18
f 16/18/18 17/105/17 19/104/19 18/20/20
f 18/20/20 19/104/19 21/103/21 20/22/22
f 20/22/22 21/103/21 23/101/23 22/24/24
f 22/24/24 23/101/23 25/102/6 24/120/5
f 5/3/3 3/2/2 1/25/25
f 7/7/7 5/3/3 1/25/25
f 9/9/9 7/7/7 1/25/25
f 11/11/11 9/9/9 1/25/25
f 13/13/13 11/11/11 1/25/25
f 15/15/15 13/13/13 1/25/25
f 17/17/17 15/15/15 1/25/25
f 19/19/19 17/17/17 1/25/25
f 21/21/21 19/19/19 1/25/25
f 23/23/23 21/21/21 1/25/25
f 25/6/6 23/23/23 1/25/25
f 3/2/2 25/6/6 1/25/25
f 26/26/26 27/27/27 29/28/28 28/29/29
f 27/27/27 26/26/26 48/30/30 49/121/31
f 28/29/29 29/28/28 31/32/32 30/33/33
f 30/33/33 31/32/32 33/34/34 32/35/35
f 32/35/35 33/34/34 35/36/36 34/37/37
f 34/37/37 35/36/36 37/38/38 36/113/39
f 36/39/39 37/116/38 39/40/40 38/41/41
f 38/41/41 39/40/40 41/42/42 40/43/43
f 40/43/43 41/42/42 43/44/44 42/45/45
f 42/45/45 43/44/44 45/46/46 44/47/47
f 44/47/47 45/46/46 47/48/48 46/49/49
f 46/49/49 47/48/48 49/31/31 48/118/30
s 3
f 63/50/50 62/86/51 64/52/52
f 62/86/51 65/85/53 64/52/52
f 65/85/53 66/84/54 64/52/52
f 66/84/54 67/83/55 64/52/52
f 67/83/55 68/82/56 64/52/52
f 68/82/56 69/81/57 64/52/52
f 69/81/57 70/80/58 64/52/52
f 70/80/58 71/79/59 64/52/52
f 71/79/59 72/78/60 64/52/52
f 72/78/60 73/77/61 64/52/52
f 73/77/61 74/76/62 64/52/52
f 74/76/62 63/50/50 64/52/52
s 1
f 2/1/1 4/4/4 29/28/28 27/27/27
f 4/4/4 6/8/8 31/32/32 29/28/28
f 6/8/8 8/10/10 33/34/34 31/32/32
f 8/10/10 10/12/12 35/36/36 33/34/34
f 10/12/12 12/115/14 37/38/38 35/36/36
f 12/14/14 14/16/16 39/40/40 37/116/38
f 14/16/16 16/18/18 41/42/42 39/40/40
f 16/18/18 18/20/20 43/44/44 41/42/42
f 18/20/20 20/22/22 45/46/46 43/44/44
f 20/22/22 22/24/24 47/48/48 45/46/46
f 22/24/24 24/120/5 49/31/31 47/48/48
f 24/5/5 2/1/1 27/27/27 49/121/31
f 26/26/26 28/29/29 50/98/63 51/87/64
f 28/29/29 30/33/33 52/97/65 50/98/63
f 30/33/33 32/35/35 53/96/66 52/97/65
f 32/35/35 34/37/37 54/95/67 53/96/66
f 34/37/37 36/113/39 55/114/68 54/95/67
f 36/39/39 38/41/41 56/93/69 55/94/68
f 38/41/41 40/43/43 57/92/70 56/93/69
f 40/43/43 42/45/45 58/91/71 57/92/70
f 42/45/45 44/47/47 59/90/72 58/91/71
f 44/47/47 46/49/49 60/89/73 59/90/72
f 46/49/49 48/118/30 61/119/74 60/89/73
f 48/30/30 26/26/26 51/87/64 61/88/74
s 4
f 51/64/75 50/63/76 62/51/77 63/75/78
f 50/63/76 52/65/79 65/53/80 62/51/77
f 52/65/79 53/66/81 66/54/82 65/53/80
f 53/66/81 54/67/83 67/55/84 66/54/82
f 54/67/83 55/99/85 68/100/86 67/55/84
f 55/68/85 56/69/87 69/57/88 68/56/86
f 56/69/87 57/70/89 70/58/90 69/57/88
f 57/70/89 58/71/91 71/59/92 70/58/90
f 58/71/91 59/72/93 72/60/94 71/59/92
f 59/72/93 60/73/95 73/61/96 72/60/94
f 60/73/95 61/123/97 74/124/98 73/61/96
f 61/74/97 51/64/75 63/75/78 74/62/98
s 5
f 75/125/99 76/126/100 78/127/101 77/128/102
f 77/128/102 78/127/101 80/129/103 79/130/104
f 79/130/104 80/129/103 82/131/105 81/132/106
f 81/132/106 82/131/105 76/133/100 75/134/99
s 6
f 83/135/107 97/136/108 103/137/109 100/138/110
f 97/139/108 84/140/111 98/141/112 103/142/109
f 103/142/109 98/141/112 86/143/113 99/144/114
f 100/138/110 103/137/109 99/145/114 85/146/115
f 85/146/115 99/145/114 104/147/116 91/148/117
f 99/144/114 86/143/113 101/149/118 104/150/116
f 104/150/116 101/149/118 88/151/119 102/152/120
f 91/148/117 104/147/116 102/153/120 87/154/121
f 87/154/121 102/153/120 105/155/122 94/156/123
f 102/152/120 88/151/119 92/157/124 105/158/122
f 105/158/122 92/157/124 90/159/125 93/160/126
f 94/156/123 105/155/122 93/161/126 89/162/127
f 89/162/127 93/161/126 106/163/128 96/164/129
f 93/160/126 90/159/125 95/165/130 106/166/128
f 106/166/128 95/165/130 84/140/111 97/139/108
f 96/164/129 106/163/128 97/136/108 83/135/107
f 84/140/111 95/165/130 107/167/131 98/141/112
f 95/165/130 90/159/125 92/157/124 107/167/131
f 107/167/131 92/157/124 88/151/119 101/149/118
f 98/141/112 107/167/131 101/149/118 86/143/113
f 89/162/127 96/164/129 108/168/132 94/156/123
f 96/164/129 83/135/107 100/138/110 108/168/132
f 108/168/132 100/138/110 85/146/115 91/148/117
f 94/156/123 108/168/132 91/148/117 87/154/121
s 7
f 110/169/133 109/170/134 119/171/135 120/172/136
f 111/173/137 110/169/133 120/172/136 121/174/138
f 112/175/139 111/173/137 121/174/138 122/176/140
f 113/177/141 112/175/139 122/176/140 123/178/142
f 114/179/143 113/177/141 123/178/142 124/180/144
f 115/181/145 114/179/143 124/180/144 125/182/146
f 116/183/147 115/181/145 125/182/146 126/184/148
f 117/185/149 116/183/147 126/184/148 127/186/150
f 118/187/151 117/185/149 127/186/150 128/188/152
f 109/189/134 118/187/151 128/188/152 119/190/135
f 120/172/136 119/171/135 129/191/153 130/192/154
f 121/174/138 120/172/136 130/192/154 131/193/155
f 122/176/140 121/174/138 131/193/155 132/194/156
f 123/178/142 122/176/140 132/194/156 133/195/157
f 124/180/144 123/178/142 133/195/157 134/196/158
f 125/182/146 124/180/144 134/196/158 135/197/159
f 126/184/148 125/182/146 135/197/159 136/198/160
f 127/186/150 126/184/148 136/198/160 137/199/161
f 128/188/152 127/186/150 137/199/161 138/200/162
f 119/190/135 128/188/152 138/200/162 129/201/153
f 130/192/154 129/191/153 139/202/163 140/203/164
f 131/193/155 130/192/154 140/203/164 141/204/165
f 132/194/156 131/193/155 141/204/165 142/205/166
f 133/195/157 132/194/156 142/205/166 143/206/167
f 134/196/158 133/195/157 143/206/167 144/207/168
f 135/197/159 134/196/158 144/207/168 145/208/169
f 136/198/160 135/197/159 145/208/169 146/209/170
f 137/199/161 136/198/160 146/209/170 147/210/171
f 138/200/162 137/199/161 147/210/171 148/211/172
f 129/201/153 138/200/162 148/211/172 139/212/163
f 140/203/164 139/202/163 109/213/134 110/214/133
f 141/204/165 140/203/164 110/214/133 111/215/137
f 142/205/166 141/204/165 111/215/137 112/216/139
f 143/206/167 142/205/166 112/216/139 113/217/141
f 144/207/168 143/206/167 113/217/141 114/218/143
f 145/208/169 144/207/168 114/218/143 115/219/145
f 146/209/170 145/208/169 115/219/145 116/220/147
f 147/210/171 146/209/170 116/220/147 117/221/149
f 148/211/172 147/210/171 117/221/149 118/222/151
f 139/212/163 148/211/172 118/222/151 109/223/134
