# This file uses centimeters as units for non-parametric coordinates.

mtllib Relic_Gluttony01.mtl
g default
v 14.265857 1.567105 -4.635258
v 12.135263 1.567105 -8.816784
v 8.816784 1.567105 -12.135262
v 4.635257 1.567105 -14.265855
v 0.000000 1.567105 -15.000008
v -4.635257 1.567105 -14.265854
v -8.816782 1.567105 -12.135260
v -12.626269 1.567105 -8.281133
v -14.265852 1.567105 -4.635256
v -15.000004 1.567105 0.000000
v -14.265852 1.567105 4.635256
v -12.135258 1.567105 8.816780
v -8.816780 1.567105 12.135257
v -4.635256 1.567105 14.265850
v -0.000000 1.567105 15.000002
v 4.635254 1.567105 14.265849
v 8.816778 1.567105 12.135256
v 12.135255 1.567105 8.816779
v 14.265848 1.567105 4.635255
v 15.000000 1.567105 0.000000
v 14.265857 2.268395 -4.635258
v 12.135263 2.268395 -8.816784
v 8.816784 2.268395 -12.135262
v 4.635257 2.268395 -14.265855
v 0.000000 2.268395 -15.000008
v -4.635257 2.268395 -14.265854
v -8.816782 2.268395 -12.135260
v -12.626269 2.268395 -8.281133
v -14.265852 2.268395 -4.635256
v -15.000004 2.268395 0.000000
v -14.265852 2.268395 4.635256
v -12.135258 2.268395 8.816780
v -8.816780 2.268395 12.135257
v -4.635256 2.268395 14.265850
v -0.000000 2.268395 15.000002
v 4.635254 2.268395 14.265849
v 8.816778 2.268395 12.135256
v 12.135255 2.268395 8.816779
v 14.265848 2.268395 4.635255
v 15.000000 2.268395 0.000000
v -0.000000 0.000001 -0.000001
v 3.566462 0.000000 1.158814
v 3.033814 0.000000 2.204195
v 2.204195 0.000000 3.033814
v 1.158814 0.000000 3.566462
v -0.000000 0.000000 3.750000
v -1.158814 0.000000 3.566463
v -2.204195 0.000000 3.033814
v -3.033814 0.000000 2.204195
v -3.566463 0.000000 1.158814
v -3.750001 0.000000 0.000000
v -3.566463 0.000000 -1.158814
v -3.033815 0.000000 -2.204195
v -2.204195 0.000000 -3.033815
v -1.158814 0.000000 -3.566463
v 0.000000 0.000000 -3.750002
v 1.158814 0.000000 -3.566464
v 2.204196 0.000000 -3.033816
v 3.033816 0.000000 -2.204196
v 3.566464 0.000000 -1.158814
v 3.750000 0.000000 0.000000
v 11.238709 2.268395 -3.651682
v 9.560219 2.268395 -6.945905
v 0.000000 0.293048 0.000000
v 6.945906 2.268394 -9.560219
v 3.651678 2.268395 -11.238709
v 0.000000 2.268395 -11.817079
v -3.651677 2.268395 -11.238708
v -6.945902 2.268395 -9.560217
v -9.976830 2.268395 -6.082914
v -11.386733 2.268395 -3.820850
v -11.817074 2.268395 0.000000
v -11.238707 2.268395 3.651676
v -9.560215 2.268395 6.945900
v -6.945901 2.268395 9.560213
v -3.651676 2.268395 11.238705
v -0.000001 2.268395 11.817073
v 3.651675 2.268395 11.238704
v 6.945899 2.268395 9.560212
v 9.560212 2.268395 6.945900
v 11.238703 2.268395 3.651675
v 11.817071 2.268395 -0.000003
v -6.144887 0.470131 -3.786185
v -6.744559 0.470131 -2.624680
v -6.039491 1.462288 -3.709610
v -6.620658 1.462288 -2.584421
v -10.003470 1.128315 -6.102269
v -8.839809 1.865341 -3.202636
v -8.917418 0.799223 -3.227853
v -5.649725 1.462288 -2.764464
v -5.764374 0.470131 -2.822881
v -7.609533 1.865341 -5.528649
v -7.675551 0.799223 -5.576614
v -11.472131 1.136237 -3.848598
vt 0.406272 0.625881
vt 0.406272 0.556723
vt 0.417871 0.556723
vt 0.417871 0.625881
vt 0.406272 0.501839
vt 0.417871 0.501839
vt 0.406272 0.702544
vt 0.417871 0.702544
vt 0.406272 0.779206
vt 0.417871 0.779206
vt 0.406272 0.848364
vt 0.417871 0.848364
vt 0.406272 0.903248
vt 0.417871 0.903248
vt 0.354515 0.779206
vt 0.354515 0.702544
vt 0.366113 0.702544
vt 0.366113 0.779206
vt 0.354515 0.625881
vt 0.366113 0.625881
vt 0.354515 0.556723
vt 0.366113 0.556723
vt 0.354515 0.501839
vt 0.366113 0.501839
vt 0.260438 0.502805
vt 0.276847 0.501839
vt 0.276847 0.517471
vt 0.260438 0.518737
vt 0.283513 0.547556
vt 0.265881 0.548349
vt 0.435797 0.310471
vt 0.408036 0.364954
vt 0.249920 0.250076
vt 0.485863 0.326739
vt 0.450625 0.395897
vt 0.364798 0.408193
vt 0.445362 0.250077
vt 0.395741 0.450781
vt 0.498005 0.250076
vt 0.310315 0.435953
vt 0.435797 0.189682
vt 0.326583 0.486019
vt 0.485862 0.173414
vt 0.249920 0.445519
vt 0.408036 0.135198
vt 0.249920 0.498161
vt 0.450625 0.104256
vt 0.189525 0.435953
vt 0.364798 0.091960
vt 0.173258 0.486019
vt 0.395741 0.049372
vt 0.135042 0.408193
vt 0.310315 0.064200
vt 0.104100 0.450781
vt 0.326582 0.014134
vt 0.150033 0.311430
vt 0.249920 0.054634
vt 0.041095 0.387038
vt 0.084914 0.350682
vt 0.249920 0.001992
vt 0.124066 0.341515
vt 0.156480 0.295798
vt 0.189525 0.064200
vt 0.173258 0.014134
vt 0.140421 0.292820
vt 0.135042 0.091960
vt 0.104100 0.049372
vt 0.054478 0.250076
vt 0.091804 0.135198
vt 0.049216 0.104256
vt 0.103719 0.303045
vt 0.064044 0.189682
vt 0.013978 0.173414
vt 0.061595 0.313269
vt 0.001836 0.250076
vt 0.013978 0.326739
vt 0.730595 0.769089
vt 0.721785 0.786379
vt 0.671609 0.749924
vt 0.872313 0.895744
vt 0.907551 0.826586
vt 0.708064 0.800100
vt 0.733630 0.749924
vt 0.817429 0.950628
vt 0.919693 0.749924
vt 0.690775 0.808909
vt 0.730595 0.730758
vt 0.748271 0.985866
vt 0.907551 0.673261
vt 0.671609 0.811945
vt 0.721785 0.713468
vt 0.671609 0.998008
vt 0.872314 0.604103
vt 0.652443 0.808909
vt 0.708064 0.699748
vt 0.594947 0.985866
vt 0.817429 0.549219
vt 0.635154 0.800100
vt 0.690775 0.690938
vt 0.525789 0.950628
vt 0.748271 0.513981
vt 0.621433 0.786379
vt 0.671609 0.687903
vt 0.470904 0.895744
vt 0.671609 0.501839
vt 0.612623 0.769089
vt 0.652443 0.690938
vt 0.435667 0.826586
vt 0.594947 0.513981
vt 0.609588 0.749924
vt 0.635154 0.699748
vt 0.423525 0.749924
vt 0.525789 0.549219
vt 0.612623 0.730758
vt 0.621433 0.713468
vt 0.524124 0.696538
vt 0.560061 0.706514
vt 0.544663 0.657692
vt 0.569979 0.687304
vt 0.481872 0.686272
vt 0.506162 0.648998
vt 0.576272 0.703236
vt 0.435667 0.673261
vt 0.462784 0.612962
vt 0.400618 0.501839
vt 0.400618 0.570997
vt 0.389020 0.570997
vt 0.389020 0.501839
vt 0.400618 0.647660
vt 0.389020 0.647660
vt 0.400618 0.724322
vt 0.389020 0.724322
vt 0.400618 0.793480
vt 0.389020 0.793480
vt 0.400618 0.856485
vt 0.389020 0.856485
vt 0.371767 0.793480
vt 0.371767 0.724322
vt 0.383366 0.724322
vt 0.383366 0.793480
vt 0.371767 0.647659
vt 0.383366 0.647659
vt 0.371767 0.570997
vt 0.383366 0.570997
vt 0.371767 0.501839
vt 0.383366 0.501839
vt 0.332451 0.517897
vt 0.332451 0.501839
vt 0.348861 0.503735
vt 0.348861 0.519946
vt 0.343418 0.555883
vt 0.325785 0.554600
vt 0.319119 0.596723
vt 0.337844 0.598136
vt 0.330718 0.644341
vt 0.319119 0.644341
vt 0.289167 0.502931
vt 0.306799 0.501839
vt 0.313466 0.540992
vt 0.294610 0.541432
vt 0.301867 0.584811
vt 0.313466 0.584811
vn 0.951057 0.000000 -0.309016
vn 0.809017 0.000000 -0.587785
vn 0.809017 0.000000 -0.587785
vn 0.951057 0.000000 -0.309016
vn 0.587785 0.000000 -0.809017
vn 0.587785 0.000000 -0.809017
vn 0.309017 0.000000 -0.951057
vn 0.309017 0.000000 -0.951057
vn -0.000000 0.000000 -1.000000
vn -0.000000 0.000000 -1.000000
vn -0.309017 0.000000 -0.951057
vn -0.309017 0.000000 -0.951057
vn -0.599453 0.000000 -0.800410
vn -0.599453 0.000000 -0.800410
vn -0.711213 0.000000 -0.702976
vn -0.711213 0.000000 -0.702976
vn -0.987688 0.000000 -0.156434
vn -1.000000 0.000000 0.000000
vn -1.000000 0.000000 0.000000
vn -0.987688 0.000000 -0.156434
vn -0.951057 0.000000 0.309017
vn -0.951057 0.000000 0.309017
vn -0.809017 0.000000 0.587785
vn -0.809017 0.000000 0.587785
vn -0.587785 0.000000 0.809017
vn -0.587785 0.000000 0.809017
vn -0.309017 0.000000 0.951057
vn -0.309017 0.000000 0.951057
vn 0.000000 0.000000 1.000000
vn 0.000000 0.000000 1.000000
vn 0.309017 0.000000 0.951056
vn 0.309017 0.000000 0.951056
vn 0.587785 0.000000 0.809017
vn 0.587785 0.000000 0.809017
vn 0.809017 0.000000 0.587785
vn 0.809017 0.000000 0.587785
vn 0.951057 0.000000 0.309017
vn 0.951057 0.000000 0.309017
vn 1.000000 0.000000 0.000001
vn 1.000000 0.000000 0.000001
vn -0.156803 0.986315 0.050948
vn -0.133385 0.986315 0.096910
vn -0.009401 0.999945 -0.004718
vn -0.096910 0.986315 0.133385
vn -0.050948 0.986315 0.156803
vn 0.000000 0.986315 0.164873
vn 0.050948 0.986315 0.156803
vn 0.088828 0.986096 0.140442
vn 0.138978 0.982859 0.121137
vn 0.127030 0.984692 0.119354
vn 0.123388 0.986263 0.109818
vn 0.160737 0.983127 0.087320
vn 0.162331 0.986212 0.032151
vn 0.164087 0.986369 -0.012323
vn 0.156803 0.986315 -0.050948
vn 0.133385 0.986315 -0.096910
vn 0.096910 0.986315 -0.133385
vn 0.050948 0.986315 -0.156803
vn -0.000000 0.986315 -0.164873
vn -0.050949 0.986315 -0.156803
vn -0.096910 0.986315 -0.133385
vn -0.133385 0.986315 -0.096910
vn -0.156803 0.986315 -0.050948
vn -0.164873 0.986315 -0.000000
vn -0.000000 -1.000000 0.000000
vn -0.000000 -1.000000 0.000000
vn -0.000000 -1.000000 0.000000
vn -0.000000 -1.000000 0.000000
vn -0.000000 -1.000000 0.000000
vn -0.000000 -1.000000 0.000000
vn -0.000000 -1.000000 -0.000000
vn -0.000000 -1.000000 -0.000000
vn -0.000000 -1.000000 -0.000000
vn -0.000000 -1.000000 -0.000000
vn -0.000000 -1.000000 -0.000000
vn -0.000000 -1.000000 -0.000000
vn 0.000000 -1.000000 -0.000000
vn 0.000000 -1.000000 -0.000000
vn 0.000000 -1.000000 -0.000000
vn 0.000000 -1.000000 -0.000000
vn 0.000000 -1.000000 -0.000000
vn 0.000000 -1.000000 -0.000000
vn 0.000000 -1.000000 0.000000
vn 0.000000 -1.000000 0.000000
vn 0.000000 -1.000000 0.000000
vn 0.000000 -1.000000 0.000000
vn 0.000000 -1.000000 0.000000
vn 0.000000 -1.000000 0.000000
vn 0.000000 -1.000000 0.000000
vn 0.000000 -1.000000 0.000000
vn 0.000000 -1.000000 0.000000
vn 0.000000 -1.000000 0.000000
vn 0.000000 -1.000000 0.000000
vn 0.000000 -1.000000 0.000000
vn 0.000000 -1.000000 0.000000
vn 0.000000 -1.000000 0.000000
vn 0.000000 -1.000000 0.000000
vn 0.000000 -1.000000 0.000000
vn 0.000000 -1.000000 0.000000
vn 0.000000 -1.000000 0.000000
vn 0.000000 -1.000000 0.000000
vn 0.000000 -1.000000 0.000000
vn 0.000000 -1.000000 0.000000
vn 0.000000 -1.000000 0.000000
vn 0.000000 -1.000000 0.000000
vn 0.000000 -1.000000 0.000000
vn -0.000000 -1.000000 0.000000
vn -0.000000 -1.000000 0.000000
vn -0.000000 -1.000000 0.000000
vn -0.000000 -1.000000 0.000000
vn -0.000000 -1.000000 0.000000
vn -0.000000 -1.000000 0.000000
vn -0.000000 -1.000000 0.000000
vn -0.000000 -1.000000 0.000000
vn -0.000000 -1.000000 0.000000
vn -0.000000 -1.000000 0.000000
vn -0.000000 -1.000000 0.000000
vn -0.000000 -1.000000 0.000000
vn -0.000000 -1.000000 0.000000
vn -0.000000 -1.000000 0.000000
vn -0.000000 -1.000000 0.000000
vn -0.000000 -1.000000 0.000000
vn -0.000000 -1.000000 0.000000
vn -0.000000 -1.000000 0.000000
vn 0.111617 -0.990437 0.081094
vn 0.111617 -0.990437 0.081094
vn 0.131214 -0.990437 0.042634
vn 0.131214 -0.990437 0.042634
vn 0.081094 -0.990437 0.111617
vn 0.081094 -0.990437 0.111617
vn 0.042634 -0.990437 0.131214
vn 0.042634 -0.990437 0.131214
vn 0.000000 -0.990437 0.137966
vn 0.000000 -0.990437 0.137966
vn -0.042634 -0.990437 0.131214
vn -0.042634 -0.990437 0.131214
vn -0.081094 -0.990437 0.111617
vn -0.081094 -0.990437 0.111617
vn -0.111617 -0.990437 0.081094
vn -0.111617 -0.990437 0.081094
vn -0.131214 -0.990437 0.042634
vn -0.131214 -0.990437 0.042634
vn -0.138328 -0.990326 0.010942
vn -0.138096 -0.990348 0.011810
vn -0.146020 -0.989011 -0.023127
vn -0.135385 -0.990705 -0.013189
vn -0.102361 -0.989904 -0.098047
vn -0.070631 -0.990359 -0.119166
vn -0.111333 -0.989723 -0.089742
vn -0.104889 -0.990646 -0.087286
vn -0.042634 -0.990437 -0.131213
vn -0.042634 -0.990437 -0.131213
vn -0.072526 -0.990474 -0.117050
vn -0.000000 -0.990437 -0.137966
vn -0.000000 -0.990437 -0.137966
vn 0.042634 -0.990437 -0.131213
vn 0.042634 -0.990437 -0.131214
vn 0.081094 -0.990437 -0.111617
vn 0.081094 -0.990437 -0.111617
vn 0.111617 -0.990437 -0.081094
vn 0.111617 -0.990437 -0.081094
vn 0.131213 -0.990437 -0.042634
vn 0.131214 -0.990437 -0.042634
vn 0.137966 -0.990437 0.000000
vn 0.137966 -0.990437 0.000000
vn 0.000000 1.000000 -0.000000
vn -0.000000 1.000000 0.000000
vn -0.000000 1.000000 0.000000
vn 0.000000 1.000000 -0.000000
vn -0.000000 1.000000 0.000000
vn -0.000000 1.000000 0.000000
vn 0.000000 1.000000 0.000000
vn 0.000000 1.000000 0.000000
vn 0.000000 1.000000 -0.000000
vn 0.000000 1.000000 -0.000000
vn 0.000000 1.000000 -0.000000
vn 0.000000 1.000000 -0.000000
vn 0.000000 1.000000 -0.000000
vn 0.000000 1.000000 -0.000000
vn 0.000000 1.000000 0.000000
vn 0.000000 1.000000 0.000000
vn 0.000000 1.000000 -0.000000
vn 0.000000 1.000000 -0.000000
vn 0.000000 1.000000 -0.000000
vn 0.000000 1.000000 -0.000000
vn 0.000000 1.000000 0.000000
vn 0.000000 1.000000 0.000000
vn 0.000000 1.000000 0.000000
vn 0.000000 1.000000 0.000000
vn 0.000000 1.000000 -0.000000
vn 0.000000 1.000000 -0.000000
vn 0.000000 1.000000 -0.000000
vn 0.000000 1.000000 -0.000000
vn 0.000000 1.000000 0.000000
vn 0.000000 1.000000 0.000000
vn 0.000000 1.000000 0.000000
vn 0.000000 1.000000 0.000000
vn 0.000000 1.000000 -0.000000
vn 0.000000 1.000000 0.000000
vn 0.000000 1.000000 0.000000
vn 0.000000 1.000000 0.000000
vn 0.000000 1.000000 0.000000
vn 0.000000 1.000000 0.000000
vn 0.000000 1.000000 -0.000000
vn 0.000000 1.000000 -0.000000
vn -0.137692 -0.990153 -0.025249
vn -0.123228 -0.990052 -0.067908
vn -0.138940 -0.989067 -0.049415
vn -0.189830 0.071515 -0.979209
vn -0.883301 0.116444 -0.454114
vn -0.881757 0.116440 -0.457107
vn -0.189830 0.071515 -0.979209
vn 0.248082 0.004961 -0.968726
vn 0.248828 0.004903 -0.968535
vn 0.271484 0.003110 -0.962438
vn 0.272187 0.000000 -0.962245
vn 0.272187 0.000000 -0.962245
vn 0.272187 0.000000 -0.962245
vn -0.755986 0.023377 0.654170
vn -0.490118 -0.000505 0.871656
vn -0.518353 0.001800 0.855165
vn -0.755986 0.023377 0.654170
vn -0.638529 0.000000 0.769598
vn -0.638529 0.000000 0.769598
vn -0.638529 0.000000 0.769598
vn -0.397577 -0.011893 0.917492
vn -0.404480 -0.011536 0.914474
vn -0.638821 0.001866 0.769354
vn -0.105946 -0.990028 -0.092846
vn -0.091109 -0.991761 -0.090053
vn 0.251731 0.005145 -0.967784
vn 0.250261 0.005215 -0.968164
vn 0.268596 0.004345 -0.963243
vn 0.268596 0.004345 -0.963243
vn 0.152222 0.988198 0.017145
vn 0.163250 0.986197 0.027648
vn -0.924553 0.077139 0.373164
vn -0.924553 0.077139 0.373164
vn -0.138025 -0.990193 -0.021594
s 1
g Relic_Gluttony01 Fix
usemtl T_Relic_Gluttony01SG
f 1/1/1 2/2/2 22/3/3 21/4/4
f 2/2/2 3/5/5 23/6/6 22/3/3
f 3/125/5 4/126/7 24/127/8 23/128/6
f 4/126/7 5/129/9 25/130/10 24/127/8
f 5/129/9 6/131/11 26/132/12 25/130/10
f 6/131/11 7/133/13 27/134/14 26/132/12
f 7/133/13 8/135/15 28/136/16 27/134/14
f 9/15/17 10/16/18 30/17/19 29/18/20
f 10/16/18 11/19/21 31/20/22 30/17/19
f 11/19/21 12/21/23 32/22/24 31/20/22
f 12/21/23 13/23/25 33/24/26 32/22/24
f 13/137/25 14/138/27 34/139/28 33/140/26
f 14/138/27 15/141/29 35/142/30 34/139/28
f 15/141/29 16/143/31 36/144/32 35/142/30
f 16/143/31 17/145/33 37/146/34 36/144/32
f 17/13/33 18/11/35 38/12/36 37/14/34
f 18/11/35 19/9/37 39/10/38 38/12/36
f 19/9/37 20/7/39 40/8/40 39/10/38
f 20/7/39 1/1/1 21/4/4 40/8/40
s 3
f 62/31/41 63/32/42 64/33/43
f 63/32/42 65/36/44 64/33/43
f 65/36/44 66/40/45 64/33/43
f 66/40/45 67/44/46 64/33/43
f 67/44/46 68/48/47 64/33/43
f 68/48/47 69/52/48 64/33/43
f 69/52/48 70/59/49 92/61/50
f 85/56/51 90/62/52 64/33/43
f 86/65/53 72/68/54 64/33/43
f 72/68/54 73/72/55 64/33/43
f 73/72/55 74/69/56 64/33/43
f 74/69/56 75/66/57 64/33/43
f 75/66/57 76/63/58 64/33/43
f 76/63/58 77/57/59 64/33/43
f 77/57/59 78/53/60 64/33/43
f 78/53/60 79/49/61 64/33/43
f 79/49/61 80/45/62 64/33/43
f 80/45/62 81/41/63 64/33/43
f 81/41/63 82/37/64 64/33/43
f 82/37/64 62/31/41 64/33/43
s off
f 42/77/65 43/78/66 41/79/67
f 43/78/68 44/82/69 41/79/70
f 44/82/71 45/86/72 41/79/73
f 45/86/74 46/90/75 41/79/76
f 46/90/77 47/94/78 41/79/79
f 47/94/80 48/98/81 41/79/82
f 48/98/83 49/102/84 41/79/85
f 49/102/86 50/106/87 41/79/88
f 50/106/89 51/110/90 41/79/91
f 51/110/92 52/114/93 41/79/94
f 52/114/95 53/115/96 41/79/97
f 53/115/98 54/111/99 41/79/100
f 54/111/101 55/107/102 41/79/103
f 55/107/104 56/103/105 41/79/106
f 56/103/107 57/99/108 41/79/109
f 57/99/110 58/95/111 41/79/112
f 58/95/113 59/91/114 41/79/115
f 59/91/116 60/87/117 41/79/118
f 60/87/119 61/83/120 41/79/121
f 61/83/122 42/77/123 41/79/124
s 7
f 18/80/125 43/78/126 42/77/127 19/81/128
f 17/84/129 44/82/130 43/78/126 18/80/125
f 16/88/131 45/86/132 44/82/130 17/84/129
f 15/92/133 46/90/134 45/86/132 16/88/131
f 14/96/135 47/94/136 46/90/134 15/92/133
f 13/100/137 48/98/138 47/94/136 14/96/135
f 12/104/139 49/102/140 48/98/138 13/100/137
f 11/108/141 50/106/142 49/102/140 12/104/139
f 10/112/143 51/110/144 50/106/142 11/108/141
f 9/123/145 94/120/146 10/112/143
f 93/118/147 54/111/148 53/115/149 83/119/150
f 6/109/151 55/107/152 54/111/148 7/113/153
f 5/105/154 56/103/155 55/107/152 6/109/151
f 4/101/156 57/99/157 56/103/155 5/105/154
f 3/97/158 58/95/159 57/99/157 4/101/156
f 2/93/160 59/91/161 58/95/159 3/97/158
f 1/89/162 60/87/163 59/91/161 2/93/160
f 20/85/164 61/83/165 60/87/163 1/89/162
f 19/81/128 42/77/127 61/83/165 20/85/164
s 11
f 21/34/166 22/35/167 63/32/168 62/31/169
f 22/35/167 23/38/170 65/36/171 63/32/168
f 23/38/170 24/42/172 66/40/173 65/36/171
f 24/42/172 25/46/174 67/44/175 66/40/173
f 25/46/174 26/50/176 68/48/177 67/44/175
f 26/50/176 27/54/178 69/52/179 68/48/177
f 27/54/178 28/58/180 70/59/181 69/52/179
f 29/76/182 30/75/183 72/68/184 71/74/185
f 30/75/183 31/73/186 73/72/187 72/68/184
f 31/73/186 32/70/188 74/69/189 73/72/187
f 32/70/188 33/67/190 75/66/191 74/69/189
f 33/67/190 34/64/192 76/63/193 75/66/191
f 34/64/192 35/60/194 77/57/195 76/63/193
f 35/60/194 36/55/196 78/53/197 77/57/195
f 36/55/196 37/51/198 79/49/199 78/53/197
f 37/51/198 38/47/200 80/45/201 79/49/199
f 38/47/200 39/43/202 81/41/203 80/45/201
f 39/43/202 40/39/204 82/37/205 81/41/203
f 40/39/204 21/34/166 62/31/169 82/37/205
s 7
f 84/117/206 91/122/207 52/114/208
s 14
f 86/147/209 90/148/210 91/149/211 84/150/212
s 15
f 71/153/213 94/154/214 9/155/215
s off
f 71/153/216 9/155/217 29/156/218
s 16
f 85/27/219 92/29/220 93/30/221 83/28/222
s off
f 70/159/223 28/162/224 8/161/225
s 16
f 87/160/226 70/159/227 8/161/228
s 7
f 7/113/153 87/121/229 8/124/230
s 15
f 89/151/231 88/152/232 86/147/233 84/150/234
s 3
f 71/74/235 72/68/54 88/71/236
f 88/71/236 72/68/54 86/65/53
f 69/52/48 85/56/51 64/33/43
s 14
f 91/25/211 90/26/210 85/27/237 83/28/238
s 3
f 64/33/43 90/62/52 86/65/53
s 7
f 53/115/149 91/122/207 83/119/150
f 52/114/208 91/122/207 53/115/149
s 16
f 93/157/221 92/158/220 70/159/227 87/160/226
s 3
f 69/52/48 92/61/50 85/56/51
s 7
f 7/113/153 54/111/148 93/118/147
f 7/113/153 93/118/147 87/121/229
s 15
f 71/153/213 88/152/232 89/151/231 94/154/214
s 7
f 10/112/143 94/120/146 89/116/239
f 10/112/143 89/116/239 84/117/206 51/110/144
f 51/110/144 84/117/206 52/114/208
