# This file uses centimeters as units for non-parametric coordinates.

mtllib Relic_Envy01.mtl
g default
v -0.489522 2.000000 0.489522
v -0.000000 2.000000 0.692288
v 0.489522 2.000000 0.489522
v 0.692288 2.000000 0.000000
v 0.489522 2.000000 -0.489522
v 0.000000 2.000000 -0.692288
v -0.489522 2.000000 -0.489522
v -0.692288 2.000000 -0.000000
v -0.489522 14.821785 0.489522
v -0.000000 14.821785 0.692288
v 0.489522 14.821785 0.489522
v 0.692288 14.821785 0.000000
v 0.489522 14.821785 -0.489522
v 0.000000 14.821785 -0.692288
v -0.489522 14.821785 -0.489522
v -0.692288 14.821785 -0.000000
v -4.330127 -0.000000 2.500000
v -2.500000 -0.000000 4.330127
v -0.000000 -0.000000 5.000000
v 2.500000 -0.000000 4.330127
v 4.330127 -0.000000 2.500000
v 5.000000 -0.000000 0.000000
v 4.330127 -0.000000 -2.500000
v 2.500000 -0.000000 -4.330127
v 0.000000 -0.000000 -5.000000
v -2.500000 -0.000000 -4.330127
v -4.330127 -0.000000 -2.500000
v -5.000000 -0.000000 -0.000000
v -4.330127 1.000000 2.500000
v -2.500000 1.000000 4.330127
v -0.000000 1.000000 5.000000
v 2.500000 1.000000 4.330127
v 4.330127 1.000000 2.500000
v 5.000000 1.000000 0.000000
v 4.330127 1.000000 -2.500000
v 2.500000 1.000000 -4.330127
v 0.000000 1.000000 -5.000000
v -2.500000 1.000000 -4.330127
v -4.330127 1.000000 -2.500000
v -5.000000 1.000000 -0.000000
v 0.000000 -0.000000 0.000000
v 0.000000 2.649956 0.000000
v -0.663687 14.821785 0.663687
v -0.000000 14.821785 0.938596
v 0.663687 14.821785 0.663687
v 0.938596 14.821785 0.000000
v 0.663687 14.821785 -0.663687
v 0.000000 14.821785 -0.938596
v -0.663687 14.821785 -0.663687
v -0.938596 14.821785 -0.000000
v -0.663687 17.539577 0.663687
v -0.000000 17.539577 0.938596
v 0.663687 17.539577 0.663687
v 0.938596 17.539577 0.000000
v 0.663687 17.539577 -0.663687
v 0.000000 17.539577 -0.938596
v -0.663687 17.539577 -0.663687
v -0.938596 17.539577 -0.000000
v -0.000000 14.821787 -0.000000
v -0.000000 18.460424 -0.000000
v 0.399685 18.490423 -0.399685
v -0.399685 18.490423 -0.399685
v 0.399685 19.289793 -0.399685
v -0.399685 19.289793 -0.399685
v 0.399685 19.289793 0.399685
v -0.399685 19.289793 0.399685
v 0.399685 18.490423 0.399685
v -0.399685 18.490423 0.399685
v 0.539575 19.429682 0.000000
v -0.539575 18.890108 0.539575
v -0.000000 18.350534 0.539575
v 0.539575 18.890108 0.539575
v -0.539575 18.350534 -0.000000
v 0.539575 18.350534 0.000000
v 0.000000 18.350534 -0.539575
v -0.539575 18.890108 -0.539575
v 0.000000 19.429682 -0.539575
v 0.539575 18.890108 -0.539575
v -0.539575 19.429682 -0.000000
v -0.000000 19.429682 0.539575
v 0.000000 18.890108 -0.719433
v 0.000000 19.609541 0.000000
v -0.000000 18.890108 0.719433
v 0.000000 18.170675 0.000000
v -0.719433 18.890108 -0.000000
v 0.719433 18.890108 0.000000
v 0.399685 13.080126 -11.006333
v -0.399685 13.080126 -11.006333
v 0.399685 14.267986 -11.006333
v -0.399685 14.267986 -11.006333
v 0.399685 14.267986 -10.206964
v -0.399685 14.267986 -10.206964
v 0.399685 13.080126 -10.206964
v -0.399685 13.080126 -10.206964
v 0.539575 14.475864 -10.606648
v -0.539575 13.674055 -10.067074
v 0.000000 12.872252 -10.067074
v 0.539575 13.674055 -10.067074
v -0.539575 12.872252 -10.606648
v 0.539575 12.872252 -10.606648
v 0.000000 12.872252 -11.146223
v -0.539575 13.674055 -11.146223
v 0.000000 14.475864 -11.146223
v 0.539575 13.674055 -11.146223
v -0.539575 14.475864 -10.606648
v 0.000000 14.475864 -10.067074
v 0.000000 13.674055 -11.326081
v 0.000000 14.743132 -10.606648
v 0.000000 13.674055 -9.887216
v 0.000000 12.604980 -10.606648
v -0.719433 13.674055 -10.606648
v 0.719433 13.674055 -10.606648
v -1.953778 5.678957 -13.842186
v -1.888312 5.610506 -13.728796
v -0.096708 12.780739 -10.626408
v -0.031243 12.712288 -10.513018
v 0.031243 12.780739 -10.700280
v 0.096708 12.712288 -10.586890
v -1.825826 5.678957 -13.916059
v -1.760361 5.610506 -13.802669
v 3.778946 5.678957 -10.680902
v 3.648015 5.610506 -10.680902
v 0.065466 12.780739 -10.680521
v -0.065466 12.712288 -10.680521
v 0.065466 12.780739 -10.532776
v -0.065466 12.712288 -10.532776
v 3.778947 5.678957 -10.533155
v 3.648015 5.610506 -10.533155
v -1.825168 5.678957 -7.296858
v -1.759703 5.610506 -7.410248
v 0.031243 12.780739 -10.513017
v 0.096708 12.712288 -10.626407
v -0.096708 12.780739 -10.586889
v -0.031243 12.712288 -10.700279
v -1.953120 5.678957 -7.370731
v -1.887654 5.610506 -7.484121
v -0.815669 8.193927 10.135721
v -0.470927 8.193927 9.790979
v -0.000000 8.193927 9.664795
v 0.470927 8.193927 9.790979
v 0.815669 8.193927 10.135721
v 0.941854 8.193927 10.606648
v 0.815669 8.193927 11.077576
v 0.470927 8.193927 11.422318
v -0.000000 8.193927 11.548502
v -0.470927 8.193927 11.422318
v -0.815669 8.193927 11.077576
v -0.941854 8.193927 10.606648
v -1.575752 8.460524 9.696888
v -0.909761 8.460524 9.030896
v -0.000000 8.460524 8.787127
v 0.909761 8.460524 9.030896
v 1.575752 8.460524 9.696888
v 1.819522 8.460524 10.606648
v 1.575752 8.460524 11.516409
v 0.909761 8.460524 12.182400
v -0.000000 8.460524 12.426170
v -0.909761 8.460524 12.182400
v -1.575752 8.460524 11.516409
v -1.819522 8.460524 10.606648
v -2.228450 8.884620 9.320052
v -1.286596 8.884620 8.378199
v -0.000000 8.884620 8.033457
v 1.286596 8.884620 8.378199
v 2.228450 8.884620 9.320052
v 2.573192 8.884620 10.606648
v 2.228450 8.884620 11.893245
v 1.286596 8.884620 12.835098
v -0.000000 8.884620 13.179841
v -1.286596 8.884620 12.835098
v -2.228450 8.884620 11.893245
v -2.573192 8.884620 10.606648
v -2.729282 9.437310 9.030896
v -1.575752 9.437310 7.877366
v -0.000000 9.437310 7.455145
v 1.575752 9.437310 7.877366
v 2.729282 9.437310 9.030896
v 3.151504 9.437310 10.606648
v 2.729282 9.437310 12.182400
v 1.575752 9.437310 13.335932
v -0.000000 9.437310 13.758152
v -1.575752 9.437310 13.335932
v -2.729282 9.437310 12.182400
v -3.151504 9.437310 10.606648
v -3.044119 10.080935 8.849126
v -1.757523 10.080935 7.562531
v -0.000000 10.080935 7.091602
v 1.757523 10.080935 7.562531
v 3.044119 10.080935 8.849126
v 3.515046 10.080935 10.606648
v 3.044119 10.080935 12.364172
v 1.757523 10.080935 13.650766
v -0.000000 10.080935 14.121695
v -1.757523 10.080935 13.650766
v -3.044119 10.080935 12.364172
v -3.515046 10.080935 10.606648
v -3.151504 10.771626 8.787127
v -1.819522 10.771626 7.455145
v -0.000000 10.771626 6.967606
v 1.819522 10.771626 7.455145
v 3.151504 10.771626 8.787127
v 3.639043 10.771626 10.606648
v 3.151504 10.771626 12.426170
v 1.819522 10.771626 13.758152
v -0.000000 10.771626 14.245693
v -1.819522 10.771626 13.758152
v -3.151504 10.771626 12.426170
v -3.639043 10.771626 10.606648
v -0.000000 8.102996 10.606648
v -0.855462 8.068172 10.112747
v -0.493901 8.068172 9.751186
v -0.000000 8.068172 9.618846
v 0.493901 8.068172 9.751186
v 0.855462 8.068172 10.112747
v 0.987803 8.068172 10.606648
v 0.855462 8.068172 11.100550
v 0.493901 8.068172 11.462111
v -0.000000 8.068172 11.594451
v -0.493901 8.068172 11.462111
v -0.855462 8.068172 11.100550
v -0.987803 8.068172 10.606648
v -1.652626 8.347775 9.652504
v -0.954144 8.347775 8.954022
v -0.000000 8.347775 8.698360
v 0.954144 8.347775 8.954022
v 1.652626 8.347775 9.652504
v 1.908288 8.347775 10.606648
v 1.652626 8.347775 11.560793
v 0.954144 8.347775 12.259274
v -0.000000 8.347775 12.514936
v -0.954144 8.347775 12.259274
v -1.652626 8.347775 11.560793
v -1.908288 8.347775 10.606648
v -2.337166 8.792560 9.257285
v -1.349364 8.792560 8.269483
v -0.000000 8.792560 7.907921
v 1.349364 8.792560 8.269483
v 2.337166 8.792560 9.257285
v 2.698727 8.792560 10.606648
v 2.337166 8.792560 11.956013
v 1.349364 8.792560 12.943815
v -0.000000 8.792560 13.305376
v -1.349364 8.792560 12.943815
v -2.337166 8.792560 11.956013
v -2.698727 8.792560 10.606648
v -2.862432 9.372215 8.954022
v -1.652626 9.372215 7.744216
v -0.000000 9.372215 7.301395
v 1.652626 9.372215 7.744216
v 2.862432 9.372215 8.954022
v 3.305253 9.372215 10.606648
v 2.862432 9.372215 12.259275
v 1.652626 9.372215 13.469080
v -0.000000 9.372215 13.911901
v -1.652626 9.372215 13.469080
v -2.862432 9.372215 12.259275
v -3.305253 9.372215 10.606648
v -3.192628 10.047238 8.763384
v -1.843265 10.047238 7.414021
v -0.000000 10.047238 6.920118
v 1.843265 10.047238 7.414021
v 3.192628 10.047238 8.763384
v 3.686530 10.047238 10.606648
v 3.192628 10.047238 12.449914
v 1.843265 10.047238 13.799276
v -0.000000 10.047238 14.293179
v -1.843265 10.047238 13.799276
v -3.192628 10.047238 12.449914
v -3.686530 10.047238 10.606648
v -3.305252 10.771626 8.698360
v -1.908288 10.771626 7.301395
v -0.000000 10.771626 6.790071
v 1.908288 10.771626 7.301395
v 3.305252 10.771626 8.698360
v 3.816577 10.771626 10.606648
v 3.305252 10.771626 12.514936
v 1.908288 10.771626 13.911901
v -0.000000 10.771626 14.423225
v -1.908288 10.771626 13.911901
v -3.305252 10.771626 12.514936
v -3.816577 10.771626 10.606648
v -0.000000 7.972804 10.606648
v 3.778946 10.758917 10.680902
v 3.648015 10.690466 10.680902
v 0.065466 17.860699 10.680521
v -0.065466 17.792248 10.680521
v 0.065466 17.860699 10.532776
v -0.065466 17.792248 10.532776
v 3.778947 10.758917 10.533155
v 3.648015 10.690466 10.533155
v -1.825168 10.758917 7.296858
v -1.759703 10.690466 7.410248
v 0.031243 17.860699 10.513017
v 0.096708 17.792248 10.626407
v -0.096708 17.860699 10.586889
v -0.031243 17.792248 10.700279
v -1.953120 10.758917 7.370731
v -1.887654 10.690466 7.484121
v 0.399685 18.160086 11.006333
v -0.399685 18.160086 11.006333
v 0.399685 19.347946 11.006333
v -0.399685 19.347946 11.006333
v 0.399685 19.347946 10.206964
v -0.399685 19.347946 10.206964
v 0.399685 18.160086 10.206964
v -0.399685 18.160086 10.206964
v 0.539575 19.555824 10.606648
v -0.539575 18.754015 10.067074
v -0.000000 17.952211 10.067074
v 0.539575 18.754015 10.067074
v -0.539575 17.952211 10.606648
v 0.539575 17.952211 10.606648
v -0.000000 17.952211 11.146223
v -0.539575 18.754015 11.146223
v -0.000000 19.555824 11.146223
v 0.539575 18.754015 11.146223
v -0.539575 19.555824 10.606648
v -0.000000 19.555824 10.067074
v -0.000000 18.754015 11.326081
v -0.000000 19.823092 10.606648
v -0.000000 18.754015 9.887216
v -0.000000 17.684940 10.606648
v -0.719433 18.754015 10.606648
v 0.719433 18.754015 10.606648
v -1.953778 10.758917 13.842186
v -1.888312 10.690466 13.728796
v -0.096708 17.860699 10.626408
v -0.031243 17.792248 10.513018
v 0.031243 17.860699 10.700280
v 0.096708 17.792248 10.586890
v -1.825826 10.758917 13.916059
v -1.760361 10.690466 13.802669
v 0.346022 13.444250 -10.171165
v -0.346022 13.444250 -10.171165
v 0.346022 13.948914 -10.296897
v -0.346022 13.948914 -10.296897
v 0.346022 19.077229 10.287183
v -0.346022 19.077229 10.287183
v 0.346022 18.572565 10.412914
v -0.346022 18.572565 10.412914
v 0.346022 16.978746 -0.120875
v -0.346022 16.978746 -0.120875
v -0.346022 15.510615 0.244895
v 0.346022 15.510615 0.244895
v 0.346022 17.290485 5.266895
v -0.346022 17.290485 5.266895
v -0.346022 18.084188 5.069152
v 0.346022 18.084188 5.069152
v 0.346022 15.520031 -5.222888
v -0.346022 15.520031 -5.222888
v -0.346022 14.726328 -5.025146
v 0.346022 14.726328 -5.025146
v -0.346022 15.174674 -2.404128
v -0.346022 16.337708 -2.693885
v 0.346022 16.337708 -2.693885
v 0.346022 15.174674 -2.404128
v 0.346022 17.619785 2.452135
v -0.346022 17.619785 2.452135
v -0.346022 16.456753 2.741892
v 0.346022 16.456753 2.741892
v -0.815669 3.113966 -10.135721
v -0.470927 3.113966 -9.790979
v 0.000000 3.113966 -9.664795
v 0.470927 3.113966 -9.790979
v 0.815669 3.113966 -10.135721
v 0.941854 3.113966 -10.606648
v 0.815669 3.113966 -11.077576
v 0.470927 3.113966 -11.422318
v 0.000000 3.113966 -11.548502
v -0.470927 3.113966 -11.422318
v -0.815669 3.113966 -11.077576
v -0.941854 3.113966 -10.606648
v -1.575752 3.380563 -9.696888
v -0.909761 3.380563 -9.030896
v 0.000000 3.380563 -8.787127
v 0.909761 3.380563 -9.030896
v 1.575752 3.380563 -9.696888
v 1.819522 3.380563 -10.606648
v 1.575752 3.380563 -11.516409
v 0.909761 3.380563 -12.182400
v 0.000000 3.380563 -12.426170
v -0.909761 3.380563 -12.182400
v -1.575752 3.380563 -11.516409
v -1.819522 3.380563 -10.606648
v -2.228450 3.804659 -9.320052
v -1.286596 3.804659 -8.378199
v 0.000000 3.804659 -8.033457
v 1.286596 3.804659 -8.378199
v 2.228450 3.804659 -9.320052
v 2.573192 3.804659 -10.606648
v 2.228450 3.804659 -11.893245
v 1.286596 3.804659 -12.835098
v 0.000000 3.804659 -13.179841
v -1.286596 3.804659 -12.835098
v -2.228450 3.804659 -11.893245
v -2.573192 3.804659 -10.606648
v -2.729282 4.357350 -9.030896
v -1.575752 4.357350 -7.877366
v 0.000000 4.357350 -7.455145
v 1.575752 4.357350 -7.877366
v 2.729282 4.357350 -9.030896
v 3.151504 4.357350 -10.606648
v 2.729282 4.357350 -12.182400
v 1.575752 4.357350 -13.335932
v 0.000000 4.357350 -13.758152
v -1.575752 4.357350 -13.335932
v -2.729282 4.357350 -12.182400
v -3.151504 4.357350 -10.606648
v -3.044119 5.000974 -8.849126
v -1.757523 5.000974 -7.562531
v 0.000000 5.000974 -7.091602
v 1.757523 5.000974 -7.562531
v 3.044119 5.000974 -8.849126
v 3.515046 5.000974 -10.606648
v 3.044119 5.000974 -12.364172
v 1.757523 5.000974 -13.650766
v 0.000000 5.000974 -14.121695
v -1.757523 5.000974 -13.650766
v -3.044119 5.000974 -12.364172
v -3.515046 5.000974 -10.606648
v -3.151504 5.691666 -8.787127
v -1.819522 5.691666 -7.455145
v 0.000000 5.691666 -6.967606
v 1.819522 5.691666 -7.455145
v 3.151504 5.691666 -8.787127
v 3.639043 5.691666 -10.606648
v 3.151504 5.691666 -12.426170
v 1.819522 5.691666 -13.758152
v 0.000000 5.691666 -14.245693
v -1.819522 5.691666 -13.758152
v -3.151504 5.691666 -12.426170
v -3.639043 5.691666 -10.606648
v 0.000000 3.023036 -10.606648
v -0.855462 2.988211 -10.112747
v -0.493901 2.988211 -9.751186
v 0.000000 2.988211 -9.618846
v 0.493901 2.988211 -9.751186
v 0.855462 2.988211 -10.112747
v 0.987803 2.988211 -10.606648
v 0.855462 2.988211 -11.100550
v 0.493901 2.988211 -11.462111
v 0.000000 2.988211 -11.594451
v -0.493901 2.988211 -11.462111
v -0.855462 2.988211 -11.100550
v -0.987803 2.988211 -10.606648
v -1.652626 3.267814 -9.652504
v -0.954144 3.267814 -8.954022
v 0.000000 3.267814 -8.698360
v 0.954144 3.267814 -8.954022
v 1.652626 3.267814 -9.652504
v 1.908288 3.267814 -10.606648
v 1.652626 3.267814 -11.560793
v 0.954144 3.267814 -12.259274
v 0.000000 3.267814 -12.514936
v -0.954144 3.267814 -12.259274
v -1.652626 3.267814 -11.560793
v -1.908288 3.267814 -10.606648
v -2.337166 3.712599 -9.257285
v -1.349364 3.712599 -8.269483
v 0.000000 3.712599 -7.907921
v 1.349364 3.712599 -8.269483
v 2.337166 3.712599 -9.257285
v 2.698727 3.712599 -10.606648
v 2.337166 3.712599 -11.956013
v 1.349364 3.712599 -12.943815
v 0.000000 3.712599 -13.305376
v -1.349364 3.712599 -12.943815
v -2.337166 3.712599 -11.956013
v -2.698727 3.712599 -10.606648
v -2.862432 4.292255 -8.954022
v -1.652626 4.292255 -7.744216
v 0.000000 4.292255 -7.301395
v 1.652626 4.292255 -7.744216
v 2.862432 4.292255 -8.954022
v 3.305253 4.292255 -10.606648
v 2.862432 4.292255 -12.259275
v 1.652626 4.292255 -13.469080
v 0.000000 4.292255 -13.911901
v -1.652626 4.292255 -13.469080
v -2.862432 4.292255 -12.259275
v -3.305253 4.292255 -10.606648
v -3.192628 4.967278 -8.763384
v -1.843265 4.967278 -7.414021
v 0.000000 4.967278 -6.920118
v 1.843265 4.967278 -7.414021
v 3.192628 4.967278 -8.763384
v 3.686530 4.967278 -10.606648
v 3.192628 4.967278 -12.449914
v 1.843265 4.967278 -13.799276
v 0.000000 4.967278 -14.293179
v -1.843265 4.967278 -13.799276
v -3.192628 4.967278 -12.449914
v -3.686530 4.967278 -10.606648
v -3.305252 5.691666 -8.698360
v -1.908288 5.691666 -7.301395
v 0.000000 5.691666 -6.790071
v 1.908288 5.691666 -7.301395
v 3.305252 5.691666 -8.698360
v 3.816577 5.691666 -10.606648
v 3.305252 5.691666 -12.514936
v 1.908288 5.691666 -13.911901
v 0.000000 5.691666 -14.423225
v -1.908288 5.691666 -13.911901
v -3.305252 5.691666 -12.514936
v -3.816577 5.691666 -10.606648
v 0.000000 2.892844 -10.606648
vt 0.832135 0.431754
vt 0.847377 0.431754
vt 0.862619 0.431754
vt 0.877862 0.431754
vt 0.893104 0.431754
vt 0.908346 0.431754
vt 0.923588 0.431754
vt 0.938830 0.431754
vt 0.954073 0.431754
vt 0.832135 0.800596
vt 0.847377 0.800596
vt 0.862619 0.800596
vt 0.877862 0.800596
vt 0.893104 0.800596
vt 0.908346 0.800596
vt 0.923588 0.800596
vt 0.938830 0.800596
vt 0.954073 0.800596
vt 0.901259 0.933861
vt 0.826805 0.933861
vt 0.826805 0.905095
vt 0.901259 0.905094
vt 0.752351 0.933861
vt 0.752351 0.905095
vt 0.677897 0.933861
vt 0.677897 0.905095
vt 0.603444 0.933861
vt 0.603444 0.905095
vt 0.528990 0.933861
vt 0.528990 0.905095
vt 0.454536 0.933861
vt 0.454536 0.905095
vt 0.380082 0.933861
vt 0.380082 0.905095
vt 0.305628 0.933861
vt 0.305628 0.905095
vt 0.231174 0.933861
vt 0.231174 0.905095
vt 0.156720 0.933861
vt 0.156720 0.905095
vt 0.082266 0.933861
vt 0.082266 0.905095
vt 0.007812 0.933861
vt 0.007812 0.905095
vt 0.222873 0.331636
vt 0.275809 0.383992
vt 0.151644 0.456595
vt 0.150851 0.312763
vt 0.079041 0.332430
vt 0.026685 0.385366
vt 0.007812 0.457388
vt 0.027479 0.529198
vt 0.080416 0.581554
vt 0.152438 0.600427
vt 0.224247 0.580760
vt 0.276603 0.527823
vt 0.295476 0.455801
vt 0.283721 0.229601
vt 0.229601 0.283721
vt 0.155671 0.155672
vt 0.155671 0.303531
vt 0.081742 0.283721
vt 0.027622 0.229601
vt 0.007812 0.155672
vt 0.027622 0.081743
vt 0.081742 0.027623
vt 0.155671 0.007813
vt 0.229601 0.027623
vt 0.283721 0.081743
vt 0.303530 0.155672
vt 0.007812 0.609662
vt 0.028478 0.609662
vt 0.028478 0.687844
vt 0.007812 0.687844
vt 0.049143 0.609662
vt 0.049143 0.687844
vt 0.069808 0.609662
vt 0.069808 0.687844
vt 0.090473 0.609662
vt 0.090473 0.687844
vt 0.111139 0.609662
vt 0.111139 0.687844
vt 0.131804 0.609662
vt 0.131804 0.687844
vt 0.152469 0.609662
vt 0.152469 0.687844
vt 0.173134 0.609662
vt 0.173134 0.687844
vt 0.830136 0.210235
vt 0.841218 0.185614
vt 0.850792 0.210859
vt 0.776359 0.153839
vt 0.766114 0.122880
vt 0.795250 0.137527
vt 0.831643 0.160368
vt 0.852299 0.160992
vt 0.866463 0.176039
vt 0.865839 0.196695
vt 0.815972 0.195188
vt 0.816596 0.174532
vt 0.736979 0.108233
vt 0.755870 0.091921
vt 0.780761 0.093745
vt 0.797073 0.112635
vt 0.751468 0.152015
vt 0.735156 0.133125
vt 0.718305 0.153333
vt 0.727463 0.145897
vt 0.734083 0.167519
vt 0.718329 0.165884
vt 0.323890 0.058200
vt 0.315517 0.049889
vt 0.316790 0.037403
vt 0.332628 0.037344
vt 0.315425 0.024926
vt 0.323736 0.016553
vt 0.723166 0.187321
vt 0.715729 0.178163
vt 0.701544 0.193941
vt 0.703178 0.178187
vt 0.302938 0.023653
vt 0.302879 0.007815
vt 0.290462 0.025019
vt 0.282089 0.016708
vt 0.681741 0.183024
vt 0.690899 0.175587
vt 0.675121 0.161402
vt 0.690875 0.163036
vt 0.289189 0.037505
vt 0.273351 0.037564
vt 0.290554 0.049982
vt 0.282243 0.058355
vt 0.686038 0.141599
vt 0.693475 0.150757
vt 0.707660 0.134980
vt 0.706026 0.150733
vt 0.303041 0.051255
vt 0.303099 0.067093
vt 0.302989 0.037454
vt 0.704602 0.164460
vt 0.934688 0.027717
vt 0.942413 0.017219
vt 0.953101 0.045570
vt 0.936477 0.045266
vt 0.633784 0.077630
vt 0.641099 0.088418
vt 0.638637 0.105885
vt 0.622014 0.105550
vt 0.640394 0.123437
vt 0.632649 0.133921
vt 0.941382 0.073512
vt 0.934046 0.062737
vt 0.920799 0.082170
vt 0.921108 0.065319
vt 0.653223 0.126514
vt 0.652883 0.143364
vt 0.666166 0.123956
vt 0.673481 0.134744
vt 0.900548 0.072764
vt 0.908273 0.062265
vt 0.889861 0.044412
vt 0.906484 0.044716
vt 0.668628 0.106489
vt 0.685251 0.106824
vt 0.666871 0.088938
vt 0.674616 0.078453
vt 0.901580 0.016471
vt 0.908915 0.027245
vt 0.922162 0.007812
vt 0.921853 0.024664
vt 0.654042 0.085860
vt 0.654382 0.069010
vt 0.653632 0.106187
vt 0.921481 0.044991
vt 0.615924 0.421944
vt 0.611674 0.421944
vt 0.611674 0.191404
vt 0.615924 0.191404
vt 0.603173 0.191404
vt 0.607424 0.191404
vt 0.607424 0.421944
vt 0.603173 0.421944
vt 0.598923 0.421944
vt 0.598923 0.191404
vt 0.968000 0.238355
vt 0.963749 0.238355
vt 0.963749 0.007816
vt 0.968000 0.007816
vt 0.972250 0.007816
vt 0.976500 0.007816
vt 0.976500 0.238355
vt 0.972250 0.238355
vt 0.980750 0.238355
vt 0.980750 0.007816
vt 0.916465 0.091405
vt 0.920715 0.091405
vt 0.920715 0.321945
vt 0.916465 0.321945
vt 0.912215 0.321945
vt 0.907965 0.321945
vt 0.907965 0.091405
vt 0.912215 0.091405
vt 0.903715 0.091405
vt 0.903715 0.321945
vt 0.319189 0.713083
vt 0.332098 0.711373
vt 0.341614 0.733923
vt 0.316156 0.737370
vt 0.342422 0.703438
vt 0.361938 0.718209
vt 0.347395 0.691403
vt 0.371682 0.694438
vt 0.345685 0.678495
vt 0.368235 0.668979
vt 0.337749 0.668171
vt 0.352520 0.648655
vt 0.325715 0.663198
vt 0.328749 0.638911
vt 0.312806 0.664908
vt 0.303291 0.642358
vt 0.302482 0.672843
vt 0.282966 0.658072
vt 0.297509 0.684878
vt 0.273222 0.681844
vt 0.299220 0.697786
vt 0.276670 0.707302
vt 0.307155 0.708110
vt 0.292384 0.727627
vt 0.350824 0.755336
vt 0.313425 0.760520
vt 0.380621 0.732148
vt 0.394831 0.697168
vt 0.389648 0.659769
vt 0.366460 0.629973
vt 0.331480 0.615762
vt 0.294081 0.620944
vt 0.264284 0.644133
vt 0.250073 0.679113
vt 0.255256 0.716512
vt 0.278445 0.746309
vt 0.359604 0.775395
vt 0.311000 0.782281
vt 0.398253 0.745129
vt 0.416592 0.699594
vt 0.409707 0.650990
vt 0.379442 0.612340
vt 0.333907 0.594001
vt 0.285302 0.600886
vt 0.246651 0.631151
vt 0.228312 0.676687
vt 0.235198 0.725292
vt 0.265464 0.763942
vt 0.367959 0.794250
vt 0.308808 0.802787
vt 0.414916 0.757281
vt 0.437099 0.701787
vt 0.428562 0.642636
vt 0.391594 0.595678
vt 0.336100 0.573494
vt 0.276948 0.582030
vt 0.229989 0.618999
vt 0.207806 0.674495
vt 0.216343 0.733647
vt 0.253312 0.780605
vt 0.376057 0.812541
vt 0.306675 0.822676
vt 0.431075 0.769073
vt 0.456988 0.703920
vt 0.446853 0.634539
vt 0.403387 0.579520
vt 0.338234 0.553605
vt 0.268851 0.563739
vt 0.213831 0.607207
vt 0.187917 0.672362
vt 0.198052 0.741745
vt 0.241521 0.796763
vt 0.322452 0.688141
vt 0.433974 0.126868
vt 0.415933 0.108607
vt 0.439309 0.095207
vt 0.445803 0.120042
vt 0.466253 0.095291
vt 0.459459 0.120046
vt 0.489545 0.108836
vt 0.471285 0.126877
vt 0.502945 0.132211
vt 0.478110 0.138705
vt 0.502861 0.159155
vt 0.478107 0.152362
vt 0.489317 0.182448
vt 0.471275 0.164187
vt 0.465941 0.195847
vt 0.459447 0.171012
vt 0.438997 0.195764
vt 0.445790 0.171009
vt 0.415704 0.182219
vt 0.433965 0.164178
vt 0.402304 0.158843
vt 0.427139 0.152349
vt 0.402388 0.131899
vt 0.427143 0.138693
vt 0.398871 0.091098
vt 0.433287 0.071513
vt 0.472885 0.071761
vt 0.507054 0.091774
vt 0.526639 0.126189
vt 0.526392 0.165787
vt 0.506379 0.199956
vt 0.471963 0.219541
vt 0.432366 0.219294
vt 0.398196 0.199282
vt 0.378611 0.164866
vt 0.378858 0.125268
vt 0.382950 0.074550
vt 0.427774 0.049221
vt 0.479256 0.049698
vt 0.523602 0.075852
vt 0.548931 0.120675
vt 0.548454 0.172157
vt 0.522301 0.216504
vt 0.477478 0.241833
vt 0.425996 0.241357
vt 0.381648 0.215204
vt 0.356319 0.170380
vt 0.356795 0.118897
vt 0.368024 0.058895
vt 0.422675 0.028202
vt 0.485350 0.028945
vt 0.539257 0.060927
vt 0.569951 0.115576
vt 0.569208 0.178251
vt 0.537228 0.232157
vt 0.482578 0.262852
vt 0.419903 0.262111
vt 0.365995 0.230130
vt 0.335299 0.175480
vt 0.336042 0.112803
vt 0.353543 0.043716
vt 0.417723 0.007815
vt 0.491255 0.008814
vt 0.554436 0.046445
vt 0.590337 0.110624
vt 0.589339 0.184155
vt 0.551710 0.247336
vt 0.487531 0.283238
vt 0.414000 0.282242
vt 0.350817 0.244613
vt 0.314913 0.180432
vt 0.315911 0.106898
vt 0.452625 0.145527
vt 0.805160 0.072175
vt 0.809769 0.069975
vt 0.820142 0.125852
vt 0.815050 0.125453
vt 0.772847 0.026770
vt 0.769956 0.030980
vt 0.796977 0.176538
vt 0.801186 0.179430
vt 0.719270 0.007815
vt 0.718871 0.012906
vt 0.663393 0.018187
vt 0.665593 0.022796
vt 0.620188 0.055109
vt 0.624398 0.058001
vt 0.601232 0.108687
vt 0.606324 0.109086
vt 0.611605 0.164564
vt 0.616214 0.162364
vt 0.648527 0.207768
vt 0.651418 0.203559
vt 0.702104 0.226724
vt 0.702504 0.221632
vt 0.755782 0.211742
vt 0.757982 0.216351
vt 0.888757 0.314018
vt 0.888757 0.083479
vt 0.893007 0.083479
vt 0.893007 0.314018
vt 0.884507 0.083479
vt 0.884507 0.314018
vt 0.880257 0.314018
vt 0.880257 0.083479
vt 0.876006 0.314018
vt 0.876006 0.083479
vt 0.940291 0.088872
vt 0.940291 0.319411
vt 0.936041 0.319411
vt 0.936041 0.088872
vt 0.944542 0.319411
vt 0.944542 0.088872
vt 0.948792 0.088872
vt 0.948792 0.319411
vt 0.953042 0.088872
vt 0.953042 0.319411
vt 0.834385 0.027720
vt 0.832596 0.045269
vt 0.815972 0.045573
vt 0.826659 0.017222
vt 0.735825 0.033463
vt 0.747595 0.061382
vt 0.730972 0.061717
vt 0.728509 0.044251
vt 0.736959 0.089754
vt 0.729215 0.079269
vt 0.835026 0.062740
vt 0.827691 0.073514
vt 0.847964 0.065321
vt 0.848273 0.082172
vt 0.716725 0.099197
vt 0.716386 0.082346
vt 0.696127 0.090576
vt 0.703443 0.079788
vt 0.860799 0.062268
vt 0.868524 0.072766
vt 0.862588 0.044719
vt 0.879212 0.044414
vt 0.684357 0.062657
vt 0.700981 0.062322
vt 0.694993 0.034286
vt 0.702737 0.044770
vt 0.860157 0.027248
vt 0.867493 0.016473
vt 0.847219 0.024666
vt 0.846911 0.007815
vt 0.715227 0.024842
vt 0.715567 0.041693
vt 0.715976 0.062020
vt 0.847592 0.044994
vt 0.963750 0.478130
vt 0.963750 0.247591
vt 0.968000 0.247591
vt 0.968000 0.478130
vt 0.976500 0.247591
vt 0.976500 0.478130
vt 0.972250 0.478130
vt 0.972250 0.247591
vt 0.980750 0.247591
vt 0.980750 0.478130
vt 0.701192 0.992187
vt 0.701192 0.972266
vt 0.777525 0.972266
vt 0.777525 0.992187
vt 0.458424 0.963030
vt 0.458424 0.943097
vt 0.534798 0.943098
vt 0.534798 0.963030
vt 0.571461 0.814333
vt 0.571461 0.848812
vt 0.495181 0.843100
vt 0.495181 0.819569
vt 0.465492 0.857572
vt 0.465492 0.881103
vt 0.389212 0.886815
vt 0.389212 0.852336
vt 0.472196 0.992187
vt 0.472196 0.972266
vt 0.548528 0.972266
vt 0.548528 0.992188
vt 0.800301 0.819570
vt 0.800301 0.843100
vt 0.724021 0.848812
vt 0.724021 0.814333
vt 0.687544 0.963030
vt 0.687545 0.943098
vt 0.763918 0.943098
vt 0.763918 0.963030
vt 0.236652 0.852336
vt 0.236652 0.886815
vt 0.160372 0.881103
vt 0.160372 0.857572
vt 0.305677 0.963030
vt 0.305677 0.943098
vt 0.342621 0.843100
vt 0.342621 0.828138
vt 0.930189 0.972266
vt 0.930189 0.992188
vt 0.618052 0.881103
vt 0.618052 0.866141
vt 0.319531 0.992188
vt 0.319531 0.972266
vt 0.952860 0.843100
vt 0.952860 0.828138
vt 0.916665 0.943097
vt 0.916665 0.963030
vt 0.007812 0.881103
vt 0.007812 0.866141
vt 0.647741 0.857857
vt 0.647741 0.814333
vt 0.624860 0.972266
vt 0.624860 0.992187
vt 0.312932 0.852336
vt 0.312932 0.895860
vt 0.611171 0.963030
vt 0.611171 0.943098
vt 0.690541 0.605339
vt 0.693575 0.629626
vt 0.668116 0.626179
vt 0.677633 0.603628
vt 0.647792 0.610464
vt 0.667309 0.595693
vt 0.638049 0.586693
vt 0.662336 0.583659
vt 0.641496 0.561235
vt 0.664046 0.570750
vt 0.657210 0.540911
vt 0.671981 0.560426
vt 0.680981 0.531166
vt 0.684016 0.555453
vt 0.706440 0.534613
vt 0.696924 0.557163
vt 0.726764 0.550328
vt 0.707248 0.565099
vt 0.736508 0.574099
vt 0.712221 0.577133
vt 0.733061 0.599558
vt 0.710511 0.590042
vt 0.717346 0.619882
vt 0.702575 0.600366
vt 0.696305 0.652775
vt 0.658906 0.647592
vt 0.629110 0.624403
vt 0.614899 0.589424
vt 0.620082 0.552025
vt 0.643270 0.522228
vt 0.678250 0.508017
vt 0.715650 0.513200
vt 0.745447 0.536388
vt 0.759658 0.571368
vt 0.754474 0.608768
vt 0.731286 0.638565
vt 0.698731 0.674536
vt 0.650126 0.667650
vt 0.611477 0.637385
vt 0.593138 0.591850
vt 0.600024 0.543246
vt 0.630289 0.504596
vt 0.675824 0.486256
vt 0.724429 0.493141
vt 0.763079 0.523407
vt 0.781418 0.568943
vt 0.774532 0.617548
vt 0.744266 0.656197
vt 0.700923 0.695043
vt 0.641772 0.686505
vt 0.594814 0.649536
vt 0.572632 0.594042
vt 0.581168 0.534891
vt 0.618136 0.487933
vt 0.673631 0.465750
vt 0.732782 0.474286
vt 0.779742 0.511254
vt 0.801925 0.566750
vt 0.793388 0.625902
vt 0.756418 0.672861
vt 0.703055 0.714932
vt 0.633674 0.704796
vt 0.578656 0.661328
vt 0.552743 0.596175
vt 0.562877 0.526794
vt 0.606344 0.471776
vt 0.671497 0.445861
vt 0.740879 0.455994
vt 0.795900 0.499462
vt 0.821814 0.564617
vt 0.811678 0.634000
vt 0.768209 0.689019
vt 0.687278 0.580396
vt 0.462039 0.411526
vt 0.450211 0.404701
vt 0.456704 0.379866
vt 0.480081 0.393265
vt 0.436554 0.404704
vt 0.429760 0.379949
vt 0.424729 0.411535
vt 0.406468 0.393494
vt 0.417904 0.423364
vt 0.393069 0.416870
vt 0.417907 0.437020
vt 0.393152 0.443814
vt 0.424738 0.448846
vt 0.406697 0.467106
vt 0.436567 0.455671
vt 0.430073 0.480506
vt 0.450224 0.455668
vt 0.457017 0.480422
vt 0.462049 0.448836
vt 0.480309 0.466878
vt 0.468874 0.437008
vt 0.493709 0.443502
vt 0.468871 0.423351
vt 0.493625 0.416558
vt 0.462726 0.356172
vt 0.497143 0.375757
vt 0.423128 0.356419
vt 0.388960 0.376432
vt 0.369375 0.410848
vt 0.369622 0.450445
vt 0.389634 0.484614
vt 0.424050 0.504199
vt 0.463648 0.503953
vt 0.497817 0.483940
vt 0.517403 0.449524
vt 0.517156 0.409926
vt 0.468240 0.333880
vt 0.513064 0.359208
vt 0.416758 0.334357
vt 0.372411 0.360511
vt 0.347083 0.405334
vt 0.347559 0.456815
vt 0.373712 0.501162
vt 0.418535 0.526491
vt 0.470018 0.526015
vt 0.514365 0.499862
vt 0.539695 0.455038
vt 0.539218 0.403555
vt 0.473339 0.312860
vt 0.527989 0.343554
vt 0.410663 0.313604
vt 0.356757 0.345585
vt 0.326063 0.400234
vt 0.326806 0.462909
vt 0.358786 0.516816
vt 0.413435 0.547511
vt 0.476111 0.546769
vt 0.530019 0.514789
vt 0.560715 0.460138
vt 0.559972 0.397461
vt 0.478290 0.292474
vt 0.542471 0.328375
vt 0.404758 0.293473
vt 0.341578 0.331103
vt 0.305677 0.395282
vt 0.306675 0.468813
vt 0.344304 0.531994
vt 0.408482 0.567896
vt 0.482014 0.566900
vt 0.545197 0.529271
vt 0.581101 0.465091
vt 0.580102 0.391557
vt 0.443389 0.430186
vt 0.660085 0.294177
vt 0.650195 0.347455
vt 0.645104 0.347855
vt 0.655477 0.291977
vt 0.692398 0.248773
vt 0.695290 0.252982
vt 0.668269 0.398541
vt 0.664059 0.401432
vt 0.745976 0.229817
vt 0.746375 0.234909
vt 0.801853 0.240190
vt 0.799653 0.244799
vt 0.845058 0.277112
vt 0.840848 0.280003
vt 0.864013 0.330689
vt 0.858922 0.331088
vt 0.853640 0.386566
vt 0.849032 0.384366
vt 0.816719 0.429771
vt 0.813827 0.425561
vt 0.763141 0.448727
vt 0.762742 0.443635
vt 0.709464 0.433745
vt 0.707264 0.438354
vn -0.707107 0.000000 0.707107
vn 0.000000 0.000000 1.000000
vn 0.000000 0.000000 1.000000
vn -0.707107 0.000000 0.707107
vn 0.707107 0.000000 0.707107
vn 0.707107 0.000000 0.707107
vn 1.000000 0.000000 0.000000
vn 1.000000 0.000000 0.000000
vn 0.707107 0.000000 -0.707107
vn 0.707107 0.000000 -0.707107
vn 0.000000 0.000000 -1.000000
vn 0.000000 0.000000 -1.000000
vn -0.707107 0.000000 -0.707107
vn -0.707107 0.000000 -0.707107
vn -1.000000 0.000000 0.000000
vn -1.000000 0.000000 0.000000
vn -0.866025 0.000000 0.500000
vn -0.500000 0.000000 0.866025
vn -0.500000 0.000000 0.866025
vn -0.866025 0.000000 0.500000
vn 0.000000 0.000000 1.000000
vn 0.000000 0.000000 1.000000
vn 0.500000 0.000000 0.866025
vn 0.500000 0.000000 0.866025
vn 0.866025 0.000000 0.500000
vn 0.866025 0.000000 0.500000
vn 1.000000 0.000000 0.000000
vn 1.000000 0.000000 0.000000
vn 0.866025 0.000000 -0.500000
vn 0.866025 0.000000 -0.500000
vn 0.500000 0.000000 -0.866025
vn 0.500000 0.000000 -0.866025
vn 0.000000 0.000000 -1.000000
vn 0.000000 0.000000 -1.000000
vn -0.500000 0.000000 -0.866025
vn -0.500000 0.000000 -0.866025
vn -0.866025 0.000000 -0.500000
vn -0.866025 0.000000 -0.500000
vn -1.000000 0.000000 0.000000
vn -1.000000 0.000000 0.000000
vn 0.000000 -1.000000 -0.000000
vn 0.000000 -1.000000 0.000000
vn 0.000000 -1.000000 0.000000
vn 0.000000 -1.000000 -0.000000
vn 0.000000 -1.000000 0.000000
vn 0.000000 -1.000000 0.000000
vn 0.000000 -1.000000 0.000000
vn 0.000000 -1.000000 0.000000
vn 0.000000 -1.000000 0.000000
vn 0.000000 -1.000000 0.000000
vn 0.000000 -1.000000 0.000000
vn 0.000000 -1.000000 0.000000
vn 0.000000 -1.000000 0.000000
vn -0.271386 0.949631 0.156685
vn -0.156685 0.949631 0.271386
vn 0.000000 1.000000 0.000000
vn 0.000000 0.949631 0.313370
vn 0.156685 0.949631 0.271386
vn 0.271386 0.949631 0.156685
vn 0.313370 0.949631 0.000000
vn 0.271386 0.949631 -0.156685
vn 0.156685 0.949631 -0.271386
vn 0.000000 0.949631 -0.313370
vn -0.156685 0.949631 -0.271386
vn -0.271386 0.949631 -0.156685
vn -0.313370 0.949631 0.000000
vn -0.707107 0.000000 0.707107
vn 0.000000 0.000000 1.000000
vn 0.000000 0.000000 1.000000
vn -0.707107 0.000000 0.707107
vn 0.707107 0.000000 0.707107
vn 0.707107 0.000000 0.707107
vn 1.000000 0.000000 0.000000
vn 1.000000 0.000000 0.000000
vn 0.707107 0.000000 -0.707107
vn 0.707107 0.000000 -0.707107
vn 0.000000 0.000000 -1.000000
vn 0.000000 0.000000 -1.000000
vn -0.707107 0.000000 -0.707107
vn -0.707107 0.000000 -0.707107
vn -1.000000 0.000000 0.000000
vn -1.000000 0.000000 0.000000
vn -0.000001 -1.000000 0.000002
vn -0.000000 -1.000000 0.000000
vn -0.000000 -1.000000 -0.000000
vn -0.495205 0.713824 -0.495204
vn -0.000000 1.000000 0.000001
vn 0.000000 0.713825 -0.700324
vn 0.000000 -1.000000 -0.000001
vn 0.000001 -1.000000 -0.000001
vn 0.000002 -1.000000 0.000002
vn 0.000001 -1.000000 0.000001
vn -0.000002 -1.000000 0.000000
vn -0.000001 -1.000000 -0.000002
vn -0.000000 0.713825 0.700325
vn 0.495205 0.713824 0.495205
vn 0.700325 0.713824 0.000001
vn 0.495205 0.713824 -0.495204
vn -0.700325 0.713824 0.000000
vn -0.495205 0.713824 0.495204
vn 0.577350 -0.577351 -0.577350
vn 0.000000 -0.707107 -0.707106
vn -0.000000 -0.000000 -1.000000
vn 0.707107 -0.000000 -0.707107
vn -0.577350 -0.577351 -0.577350
vn -0.707107 0.000000 -0.707107
vn -0.577350 0.577350 -0.577351
vn -0.000000 0.707106 -0.707108
vn 0.577350 0.577350 -0.577351
vn 0.000000 1.000000 -0.000001
vn 0.707107 0.707107 -0.000000
vn -0.707107 0.707107 -0.000000
vn -0.577350 0.577350 0.577351
vn 0.000000 0.707106 0.707108
vn 0.577350 0.577350 0.577351
vn 0.000000 0.000000 1.000000
vn 0.707107 0.000000 0.707107
vn -0.707107 -0.000000 0.707107
vn -0.577350 -0.577351 0.577349
vn -0.000000 -0.707107 0.707106
vn 0.577350 -0.577351 0.577350
vn -0.000000 -1.000000 -0.000001
vn 0.707107 -0.707107 0.000000
vn -0.707107 -0.707107 -0.000001
vn -1.000000 0.000000 -0.000000
vn 1.000000 0.000000 0.000000
vn 0.643327 -0.415046 -0.643326
vn 0.000000 -0.595432 -0.803406
vn 0.000000 0.000000 -1.000000
vn 0.707107 0.000000 -0.707106
vn -0.643326 -0.415045 -0.643326
vn -0.707107 -0.000000 -0.707107
vn -0.643327 0.415043 -0.643327
vn -0.000000 0.595431 -0.803406
vn 0.643327 0.415043 -0.643327
vn 0.000000 1.000000 0.000000
vn 0.803406 0.595431 0.000000
vn -0.803406 0.595431 -0.000000
vn -0.643328 0.415043 0.643326
vn 0.000000 0.595432 0.803406
vn 0.643328 0.415043 0.643326
vn 0.000000 -0.000000 1.000000
vn 0.707107 -0.000000 0.707106
vn -0.707107 -0.000000 0.707106
vn -0.643327 -0.415045 0.643326
vn -0.000000 -0.595432 0.803406
vn 0.643326 -0.415046 0.643326
vn -0.000000 -1.000000 0.000000
vn 0.803406 -0.595431 0.000000
vn -0.803407 -0.595431 -0.000000
vn -1.000000 -0.000000 -0.000000
vn 1.000000 0.000000 0.000000
vn -0.925669 0.327685 -0.189104
vn -0.299094 -0.327610 0.896222
vn -0.299022 -0.327635 0.896237
vn -0.925673 0.327680 -0.189089
vn 0.299095 0.327610 -0.896222
vn 0.925669 -0.327684 0.189103
vn 0.925674 -0.327679 0.189088
vn 0.299023 0.327635 -0.896237
vn 0.626607 0.327684 -0.707097
vn -0.626606 -0.327610 -0.707132
vn -0.626655 -0.327636 -0.707077
vn 0.626596 0.327679 -0.707109
vn 0.626607 0.327610 0.707132
vn -0.626608 -0.327685 0.707097
vn -0.626597 -0.327679 0.707109
vn 0.626655 0.327636 0.707077
vn 0.299066 0.327685 0.896204
vn 0.925697 -0.327612 -0.189091
vn 0.925674 -0.327637 -0.189160
vn 0.299082 0.327679 0.896201
vn -0.925697 0.327612 0.189090
vn -0.299065 -0.327685 -0.896205
vn -0.299081 -0.327679 -0.896202
vn -0.925674 0.327637 0.189160
vn 0.218362 0.967690 0.126071
vn 0.126071 0.967690 0.218362
vn 0.213485 0.904266 0.369767
vn 0.369767 0.904266 0.213485
vn -0.000000 0.967690 0.252143
vn -0.000000 0.904266 0.426970
vn -0.126071 0.967690 0.218362
vn -0.213485 0.904266 0.369767
vn -0.218362 0.967690 0.126072
vn -0.369767 0.904266 0.213485
vn -0.252143 0.967690 0.000000
vn -0.426970 0.904266 -0.000000
vn -0.218362 0.967690 -0.126071
vn -0.369767 0.904266 -0.213485
vn -0.126071 0.967690 -0.218362
vn -0.213485 0.904266 -0.369767
vn 0.000000 0.967690 -0.252143
vn -0.000000 0.904266 -0.426970
vn 0.126071 0.967690 -0.218362
vn 0.213485 0.904266 -0.369767
vn 0.218362 0.967690 -0.126072
vn 0.369767 0.904266 -0.213485
vn 0.252143 0.967690 -0.000000
vn 0.426970 0.904266 -0.000000
vn 0.308867 0.786387 0.534973
vn 0.534973 0.786387 0.308867
vn 0.000000 0.786387 0.617734
vn -0.308867 0.786387 0.534974
vn -0.534973 0.786387 0.308867
vn -0.617734 0.786387 -0.000000
vn -0.534973 0.786387 -0.308867
vn -0.308867 0.786387 -0.534973
vn -0.000000 0.786387 -0.617734
vn 0.308867 0.786387 -0.534973
vn 0.534973 0.786387 -0.308867
vn 0.617734 0.786387 0.000000
vn 0.400873 0.597666 0.694332
vn 0.694332 0.597666 0.400873
vn -0.000000 0.597666 0.801745
vn -0.400873 0.597666 0.694332
vn -0.694332 0.597666 0.400873
vn -0.801745 0.597666 0.000000
vn -0.694332 0.597666 -0.400873
vn -0.400873 0.597666 -0.694332
vn 0.000000 0.597666 -0.801746
vn 0.400873 0.597666 -0.694332
vn 0.694332 0.597666 -0.400873
vn 0.801745 0.597666 0.000000
vn 0.472254 0.328487 0.817968
vn 0.817969 0.328487 0.472254
vn 0.000000 0.328487 0.944508
vn -0.472254 0.328487 0.817968
vn -0.817969 0.328487 0.472254
vn -0.944509 0.328487 0.000000
vn -0.817968 0.328487 -0.472254
vn -0.472254 0.328487 -0.817968
vn 0.000000 0.328487 -0.944508
vn 0.472255 0.328487 -0.817968
vn 0.817968 0.328487 -0.472254
vn 0.944509 0.328487 0.000000
vn 0.492132 0.176702 0.852398
vn 0.852398 0.176702 0.492132
vn 0.000000 0.176701 0.984265
vn -0.492132 0.176702 0.852398
vn -0.852398 0.176702 0.492132
vn -0.984265 0.176701 0.000000
vn -0.852398 0.176701 -0.492132
vn -0.492132 0.176702 -0.852398
vn -0.000000 0.176703 -0.984264
vn 0.492132 0.176702 -0.852398
vn 0.852398 0.176701 -0.492132
vn 0.984265 0.176701 0.000000
vn -0.000000 1.000000 0.000000
vn -0.218362 -0.967690 -0.126071
vn -0.369766 -0.904266 -0.213485
vn -0.213485 -0.904266 -0.369766
vn -0.126071 -0.967690 -0.218362
vn -0.000000 -0.904266 -0.426969
vn 0.000000 -0.967690 -0.252143
vn 0.213485 -0.904266 -0.369766
vn 0.126071 -0.967690 -0.218362
vn 0.369766 -0.904266 -0.213484
vn 0.218362 -0.967690 -0.126071
vn 0.426969 -0.904266 0.000000
vn 0.252143 -0.967690 0.000000
vn 0.369766 -0.904266 0.213485
vn 0.218362 -0.967690 0.126071
vn 0.213484 -0.904266 0.369766
vn 0.126071 -0.967690 0.218362
vn 0.000000 -0.904266 0.426969
vn 0.000000 -0.967690 0.252143
vn -0.213484 -0.904266 0.369766
vn -0.126071 -0.967690 0.218362
vn -0.369766 -0.904266 0.213484
vn -0.218362 -0.967690 0.126071
vn -0.426969 -0.904266 -0.000000
vn -0.252143 -0.967690 -0.000000
vn -0.534974 -0.786387 -0.308867
vn -0.308867 -0.786387 -0.534974
vn 0.000000 -0.786387 -0.617734
vn 0.308867 -0.786387 -0.534974
vn 0.534974 -0.786387 -0.308867
vn 0.617735 -0.786387 0.000000
vn 0.534974 -0.786387 0.308867
vn 0.308867 -0.786387 0.534974
vn 0.000000 -0.786387 0.617734
vn -0.308867 -0.786387 0.534974
vn -0.534974 -0.786387 0.308867
vn -0.617735 -0.786387 -0.000000
vn -0.694332 -0.597666 -0.400873
vn -0.400873 -0.597665 -0.694332
vn 0.000000 -0.597665 -0.801746
vn 0.400873 -0.597665 -0.694332
vn 0.694332 -0.597666 -0.400873
vn 0.801745 -0.597666 -0.000000
vn 0.694332 -0.597665 0.400873
vn 0.400873 -0.597665 0.694332
vn -0.000000 -0.597665 0.801746
vn -0.400873 -0.597665 0.694332
vn -0.694332 -0.597665 0.400873
vn -0.801745 -0.597666 0.000000
vn -0.817968 -0.328487 -0.472254
vn -0.472254 -0.328487 -0.817968
vn 0.000000 -0.328487 -0.944509
vn 0.472254 -0.328487 -0.817968
vn 0.817968 -0.328487 -0.472254
vn 0.944509 -0.328487 -0.000000
vn 0.817968 -0.328487 0.472254
vn 0.472254 -0.328487 0.817968
vn 0.000000 -0.328487 0.944508
vn -0.472254 -0.328487 0.817968
vn -0.817968 -0.328487 0.472255
vn -0.944509 -0.328487 0.000000
vn -0.852398 -0.176702 -0.492132
vn -0.492132 -0.176702 -0.852398
vn -0.000000 -0.176702 -0.984264
vn 0.492132 -0.176702 -0.852398
vn 0.852398 -0.176702 -0.492132
vn 0.984265 -0.176701 0.000000
vn 0.852398 -0.176701 0.492132
vn 0.492132 -0.176702 0.852398
vn 0.000000 -0.176702 0.984264
vn -0.492132 -0.176702 0.852398
vn -0.852398 -0.176701 0.492132
vn -0.984265 -0.176701 0.000000
vn -0.000000 -1.000000 0.000000
vn 0.000000 1.000000 0.000000
vn 0.000000 1.000000 0.000000
vn 0.000000 1.000000 0.000000
vn 0.000000 1.000000 0.000000
vn 0.000000 1.000000 -0.000000
vn 0.000000 1.000000 0.000000
vn 0.000000 1.000000 0.000000
vn 0.000000 1.000000 -0.000000
vn 0.000000 1.000000 0.000001
vn 0.000000 1.000000 0.000000
vn 0.000000 1.000000 0.000000
vn 0.000000 1.000000 0.000001
vn 0.000000 1.000000 -0.000001
vn 0.000000 1.000000 -0.000001
vn 0.000000 1.000000 -0.000001
vn 0.000000 1.000000 -0.000001
vn 0.000000 1.000000 -0.000001
vn 0.000000 1.000000 -0.000001
vn 0.000000 1.000000 -0.000002
vn 0.000000 1.000000 -0.000002
vn 0.000000 1.000000 -0.000001
vn 0.000000 1.000000 -0.000001
vn 0.000000 1.000000 0.000000
vn 0.000000 1.000000 0.000000
vn 0.000000 1.000000 0.000002
vn 0.000000 1.000000 0.000002
vn 0.000000 1.000000 0.000002
vn 0.000000 1.000000 0.000002
vn 0.626604 0.327685 0.707100
vn 0.626593 0.327679 0.707112
vn -0.626652 -0.327636 0.707080
vn -0.626604 -0.327611 0.707134
vn 0.626603 0.327611 -0.707134
vn 0.626652 0.327636 -0.707080
vn -0.626594 -0.327679 -0.707112
vn -0.626604 -0.327685 -0.707099
vn 0.299065 0.327685 -0.896205
vn 0.299080 0.327679 -0.896202
vn 0.925675 -0.327636 0.189159
vn 0.925698 -0.327611 0.189090
vn -0.925697 0.327611 -0.189092
vn -0.925674 0.327637 -0.189161
vn -0.299080 -0.327680 0.896202
vn -0.299064 -0.327685 0.896205
vn 0.643327 -0.415045 0.643326
vn 0.707107 0.000000 0.707107
vn -0.000000 0.000000 1.000000
vn 0.000000 -0.595432 0.803406
vn -0.707107 -0.000000 0.707107
vn -0.643326 -0.415045 0.643326
vn 0.000000 0.595432 0.803406
vn -0.643327 0.415043 0.643327
vn 0.643327 0.415043 0.643327
vn 0.803407 0.595431 -0.000000
vn 0.000000 1.000000 -0.000001
vn -0.803407 0.595431 -0.000000
vn -0.000000 0.595431 -0.803406
vn -0.643328 0.415043 -0.643327
vn 0.643328 0.415043 -0.643326
vn 0.707107 -0.000000 -0.707106
vn 0.000000 -0.000000 -1.000000
vn -0.707107 -0.000000 -0.707106
vn 0.000000 -0.595432 -0.803406
vn -0.643327 -0.415046 -0.643326
vn 0.643327 -0.415046 -0.643326
vn 0.803406 -0.595431 0.000000
vn 0.000000 -1.000000 0.000001
vn -0.803406 -0.595431 0.000001
vn -1.000000 -0.000000 0.000000
vn 1.000000 0.000000 -0.000000
vn -0.925669 0.327684 0.189105
vn -0.925674 0.327679 0.189090
vn -0.299024 -0.327636 -0.896237
vn -0.299096 -0.327610 -0.896222
vn 0.299094 0.327610 0.896222
vn 0.299022 0.327635 0.896237
vn 0.925674 -0.327679 -0.189088
vn 0.925669 -0.327685 -0.189103
vn 0.000000 0.978061 -0.208321
vn 0.000000 0.978061 -0.208321
vn 0.000000 0.983136 -0.182879
vn 0.000000 0.983136 -0.182879
vn 0.000000 -0.964003 0.265890
vn 0.000000 -0.964003 0.265890
vn 0.000000 -0.942554 0.334055
vn 0.000000 -0.942554 0.334055
vn -1.000000 0.000000 0.000000
vn -1.000000 0.000000 0.000000
vn -1.000000 0.000000 0.000000
vn -1.000000 0.000000 0.000000
vn 1.000000 -0.000000 0.000000
vn 1.000000 -0.000000 0.000000
vn 1.000000 0.000000 0.000000
vn 1.000000 0.000000 0.000000
vn 0.000000 0.954020 -0.299744
vn 0.000000 0.954020 -0.299744
vn 0.000000 0.961474 -0.274895
vn 0.000000 0.961474 -0.274895
vn -1.000000 -0.000000 0.000000
vn -1.000000 -0.000000 0.000000
vn -1.000000 0.000000 0.000000
vn -1.000000 0.000000 0.000000
vn 0.000000 -0.989107 0.147199
vn 0.000000 -0.989107 0.147199
vn 0.000000 -0.976069 0.217459
vn 0.000000 -0.976069 0.217459
vn 1.000000 0.000000 0.000000
vn 1.000000 0.000000 0.000000
vn 1.000000 -0.000000 0.000000
vn 1.000000 -0.000000 0.000000
vn 0.000000 -0.970339 0.241750
vn 0.000000 -0.970339 0.241750
vn -1.000000 0.000000 0.000000
vn -1.000000 0.000000 0.000000
vn 0.000000 0.982369 -0.186954
vn 0.000000 0.982369 -0.186954
vn 1.000000 -0.000000 0.000000
vn 1.000000 -0.000000 0.000000
vn 0.000000 0.955254 -0.295785
vn 0.000000 0.955254 -0.295785
vn -1.000000 -0.000000 0.000000
vn -1.000000 -0.000000 0.000000
vn 0.000000 -0.970339 0.241750
vn 0.000000 -0.970339 0.241750
vn 1.000000 -0.000000 0.000000
vn 1.000000 -0.000000 0.000000
vn -1.000000 0.000000 0.000000
vn -1.000000 0.000000 0.000000
vn 0.000000 0.970339 -0.241750
vn 0.000000 0.970339 -0.241750
vn 1.000000 0.000000 0.000000
vn 1.000000 0.000000 0.000000
vn 0.000000 -0.970339 0.241750
vn 0.000000 -0.970339 0.241750
vn 0.218362 0.967690 -0.126071
vn 0.369767 0.904266 -0.213485
vn 0.213485 0.904266 -0.369767
vn 0.126071 0.967690 -0.218362
vn 0.000000 0.904266 -0.426970
vn 0.000000 0.967690 -0.252143
vn -0.213485 0.904266 -0.369767
vn -0.126071 0.967690 -0.218362
vn -0.369767 0.904266 -0.213485
vn -0.218362 0.967690 -0.126071
vn -0.426970 0.904266 -0.000000
vn -0.252143 0.967690 0.000000
vn -0.369767 0.904266 0.213485
vn -0.218362 0.967690 0.126071
vn -0.213485 0.904266 0.369767
vn -0.126071 0.967690 0.218362
vn -0.000000 0.904266 0.426970
vn -0.000000 0.967690 0.252143
vn 0.213485 0.904266 0.369767
vn 0.126071 0.967690 0.218362
vn 0.369767 0.904266 0.213485
vn 0.218362 0.967690 0.126072
vn 0.426970 0.904266 -0.000000
vn 0.252143 0.967690 0.000000
vn 0.534973 0.786387 -0.308867
vn 0.308867 0.786387 -0.534973
vn 0.000000 0.786387 -0.617734
vn -0.308867 0.786387 -0.534973
vn -0.534973 0.786387 -0.308867
vn -0.617734 0.786387 -0.000000
vn -0.534973 0.786387 0.308867
vn -0.308867 0.786387 0.534973
vn 0.000000 0.786387 0.617734
vn 0.308867 0.786387 0.534973
vn 0.534973 0.786387 0.308867
vn 0.617734 0.786387 -0.000000
vn 0.694332 0.597666 -0.400873
vn 0.400873 0.597665 -0.694332
vn 0.000000 0.597665 -0.801746
vn -0.400873 0.597665 -0.694332
vn -0.694332 0.597666 -0.400873
vn -0.801745 0.597666 -0.000000
vn -0.694332 0.597666 0.400873
vn -0.400873 0.597665 0.694332
vn -0.000000 0.597665 0.801746
vn 0.400873 0.597665 0.694332
vn 0.694332 0.597666 0.400873
vn 0.801745 0.597666 -0.000000
vn 0.817969 0.328487 -0.472254
vn 0.472254 0.328487 -0.817968
vn 0.000000 0.328487 -0.944509
vn -0.472254 0.328487 -0.817968
vn -0.817968 0.328487 -0.472254
vn -0.944509 0.328487 0.000000
vn -0.817968 0.328487 0.472254
vn -0.472254 0.328487 0.817968
vn -0.000000 0.328487 0.944508
vn 0.472254 0.328487 0.817968
vn 0.817968 0.328487 0.472254
vn 0.944509 0.328487 -0.000000
vn 0.852398 0.176701 -0.492132
vn 0.492132 0.176702 -0.852398
vn 0.000000 0.176701 -0.984264
vn -0.492132 0.176702 -0.852398
vn -0.852398 0.176701 -0.492132
vn -0.984265 0.176701 0.000000
vn -0.852398 0.176701 0.492132
vn -0.492132 0.176702 0.852398
vn -0.000000 0.176703 0.984264
vn 0.492132 0.176702 0.852398
vn 0.852398 0.176701 0.492132
vn 0.984265 0.176701 -0.000000
vn 0.000000 1.000000 0.000000
vn -0.218362 -0.967690 0.126072
vn -0.126071 -0.967690 0.218362
vn -0.213485 -0.904266 0.369766
vn -0.369766 -0.904266 0.213485
vn 0.000000 -0.967690 0.252143
vn -0.000000 -0.904266 0.426969
vn 0.126071 -0.967690 0.218362
vn 0.213485 -0.904266 0.369766
vn 0.218362 -0.967690 0.126071
vn 0.369766 -0.904266 0.213485
vn 0.252143 -0.967690 -0.000000
vn 0.426969 -0.904266 -0.000000
vn 0.218362 -0.967690 -0.126072
vn 0.369766 -0.904266 -0.213485
vn 0.126071 -0.967690 -0.218362
vn 0.213484 -0.904266 -0.369766
vn 0.000000 -0.967690 -0.252143
vn 0.000000 -0.904266 -0.426969
vn -0.126071 -0.967690 -0.218362
vn -0.213484 -0.904266 -0.369766
vn -0.218362 -0.967690 -0.126071
vn -0.369766 -0.904266 -0.213485
vn -0.252143 -0.967690 0.000000
vn -0.426969 -0.904266 0.000000
vn -0.308867 -0.786387 0.534974
vn -0.534974 -0.786387 0.308867
vn -0.000000 -0.786387 0.617734
vn 0.308867 -0.786387 0.534974
vn 0.534974 -0.786387 0.308867
vn 0.617735 -0.786387 -0.000000
vn 0.534974 -0.786387 -0.308867
vn 0.308867 -0.786387 -0.534974
vn 0.000000 -0.786387 -0.617735
vn -0.308867 -0.786387 -0.534974
vn -0.534974 -0.786387 -0.308867
vn -0.617735 -0.786387 0.000000
vn -0.400873 -0.597666 0.694332
vn -0.694332 -0.597666 0.400873
vn -0.000000 -0.597666 0.801746
vn 0.400873 -0.597666 0.694332
vn 0.694332 -0.597666 0.400873
vn 0.801745 -0.597666 0.000000
vn 0.694332 -0.597666 -0.400873
vn 0.400873 -0.597665 -0.694332
vn 0.000000 -0.597665 -0.801746
vn -0.400873 -0.597665 -0.694332
vn -0.694332 -0.597666 -0.400873
vn -0.801745 -0.597666 -0.000000
vn -0.472255 -0.328487 0.817968
vn -0.817968 -0.328487 0.472254
vn -0.000000 -0.328487 0.944508
vn 0.472255 -0.328487 0.817968
vn 0.817968 -0.328487 0.472254
vn 0.944509 -0.328487 0.000000
vn 0.817968 -0.328487 -0.472254
vn 0.472254 -0.328487 -0.817968
vn 0.000000 -0.328487 -0.944508
vn -0.472254 -0.328487 -0.817968
vn -0.817968 -0.328487 -0.472254
vn -0.944509 -0.328487 -0.000000
vn -0.492132 -0.176702 0.852398
vn -0.852398 -0.176702 0.492132
vn -0.000000 -0.176702 0.984264
vn 0.492132 -0.176702 0.852398
vn 0.852398 -0.176702 0.492132
vn 0.984265 -0.176701 0.000000
vn 0.852398 -0.176701 -0.492132
vn 0.492132 -0.176702 -0.852398
vn 0.000000 -0.176702 -0.984264
vn -0.492132 -0.176702 -0.852398
vn -0.852398 -0.176701 -0.492132
vn -0.984264 -0.176701 -0.000000
vn 0.000000 -1.000000 0.000000
vn 0.000000 1.000000 -0.000001
vn 0.000000 1.000000 -0.000001
vn 0.000000 1.000000 -0.000001
vn 0.000000 1.000000 -0.000001
vn 0.000000 1.000000 -0.000000
vn 0.000000 1.000000 -0.000000
vn 0.000000 1.000000 0.000000
vn 0.000000 1.000000 0.000000
vn 0.000000 1.000000 0.000000
vn 0.000000 1.000000 0.000000
vn 0.000000 1.000000 0.000000
vn 0.000000 1.000000 0.000000
vn 0.000000 1.000000 -0.000000
vn 0.000000 1.000000 -0.000000
vn 0.000000 1.000000 0.000000
vn 0.000000 1.000000 0.000000
vn 0.000000 1.000000 0.000000
vn 0.000000 1.000000 0.000000
vn 0.000000 1.000000 0.000001
vn 0.000000 1.000000 0.000001
vn 0.000000 1.000000 0.000001
vn 0.000000 1.000000 0.000001
vn 0.000000 1.000000 0.000000
vn 0.000000 1.000000 0.000000
vn 0.000000 1.000000 -0.000001
vn 0.000000 1.000000 -0.000001
vn 0.000000 1.000000 -0.000001
vn 0.000000 1.000000 -0.000001
s 1
g Relic_Envy01 Fix
usemtl T_Reric_Envy01SG
f 1/1/1 2/2/2 10/11/3 9/10/4
f 2/2/2 3/3/5 11/12/6 10/11/3
f 3/3/5 4/4/7 12/13/8 11/12/6
f 4/4/7 5/5/9 13/14/10 12/13/8
f 5/5/9 6/6/11 14/15/12 13/14/10
f 6/6/11 7/7/13 15/16/14 14/15/12
f 7/7/13 8/8/15 16/17/16 15/16/14
f 8/8/15 1/9/1 9/18/4 16/17/16
s 2
f 17/19/17 18/20/18 30/21/19 29/22/20
f 18/20/18 19/23/21 31/24/22 30/21/19
f 19/23/21 20/25/23 32/26/24 31/24/22
f 20/25/23 21/27/25 33/28/26 32/26/24
f 21/27/25 22/29/27 34/30/28 33/28/26
f 22/29/27 23/31/29 35/32/30 34/30/28
f 23/31/29 24/33/31 36/34/32 35/32/30
f 24/33/31 25/35/33 37/36/34 36/34/32
f 25/35/33 26/37/35 38/38/36 37/36/34
f 26/37/35 27/39/37 39/40/38 38/38/36
f 27/39/37 28/41/39 40/42/40 39/40/38
f 28/41/39 17/43/17 29/44/20 40/42/40
s 3
f 18/45/41 17/46/42 41/47/43
f 19/48/44 18/45/41 41/47/43
f 20/49/45 19/48/44 41/47/43
f 21/50/46 20/49/45 41/47/43
f 22/51/47 21/50/46 41/47/43
f 23/52/48 22/51/47 41/47/43
f 24/53/49 23/52/48 41/47/43
f 25/54/50 24/53/49 41/47/43
f 26/55/51 25/54/50 41/47/43
f 27/56/52 26/55/51 41/47/43
f 28/57/53 27/56/52 41/47/43
f 17/46/42 28/57/53 41/47/43
s 4
f 29/58/54 30/59/55 42/60/56
f 30/59/55 31/61/57 42/60/56
f 31/61/57 32/62/58 42/60/56
f 32/62/58 33/63/59 42/60/56
f 33/63/59 34/64/60 42/60/56
f 34/64/60 35/65/61 42/60/56
f 35/65/61 36/66/62 42/60/56
f 36/66/62 37/67/63 42/60/56
f 37/67/63 38/68/64 42/60/56
f 38/68/64 39/69/65 42/60/56
f 39/69/65 40/70/66 42/60/56
f 40/70/66 29/58/54 42/60/56
s 5
f 43/71/67 44/72/68 52/73/69 51/74/70
f 44/72/68 45/75/71 53/76/72 52/73/69
f 45/75/71 46/77/73 54/78/74 53/76/72
f 46/77/73 47/79/75 55/80/76 54/78/74
f 47/79/75 48/81/77 56/82/78 55/80/76
f 48/81/77 49/83/79 57/84/80 56/82/78
f 49/83/79 50/85/81 58/86/82 57/84/80
f 50/85/81 43/87/67 51/88/70 58/86/82
s 6
f 47/89/83 59/90/84 48/91/85
s 7
f 57/92/86 60/93/87 56/94/88
s 6
f 44/95/89 43/96/90 59/90/84
f 59/90/84 43/96/90 50/97/91
f 59/90/84 50/97/91 49/98/92
f 59/90/84 49/98/92 48/91/85
f 46/99/93 59/90/84 47/89/83
f 45/100/94 59/90/84 46/99/93
f 44/95/89 59/90/84 45/100/94
s 7
f 52/101/95 53/102/96 60/93/87
f 60/93/87 53/102/96 54/103/97
f 60/93/87 54/103/97 55/104/98
f 60/93/87 55/104/98 56/94/88
f 58/105/99 60/93/87 57/92/86
f 51/106/100 60/93/87 58/105/99
f 52/101/95 60/93/87 51/106/100
s 10
f 61/107/101 75/108/102 81/109/103 78/110/104
f 75/111/102 62/112/105 76/113/106 81/114/103
f 81/114/103 76/113/106 64/115/107 77/116/108
f 78/110/104 81/109/103 77/117/108 63/118/109
f 63/118/109 77/117/108 82/119/110 69/120/111
f 77/116/108 64/115/107 79/121/112 82/122/110
f 82/122/110 79/121/112 66/123/113 80/124/114
f 69/120/111 82/119/110 80/125/114 65/126/115
f 65/126/115 80/125/114 83/127/116 72/128/117
f 80/124/114 66/123/113 70/129/118 83/130/116
f 83/130/116 70/129/118 68/131/119 71/132/120
f 72/128/117 83/127/116 71/133/120 67/134/121
f 67/134/121 71/133/120 84/135/122 74/136/123
f 71/132/120 68/131/119 73/137/124 84/138/122
f 84/138/122 73/137/124 62/112/105 75/111/102
f 74/136/123 84/135/122 75/108/102 61/107/101
f 62/112/105 73/137/124 85/139/125 76/113/106
f 73/137/124 68/131/119 70/129/118 85/139/125
f 85/139/125 70/129/118 66/123/113 79/121/112
f 76/113/106 85/139/125 79/121/112 64/115/107
f 67/134/121 74/136/123 86/140/126 72/128/117
f 74/136/123 61/107/101 78/110/104 86/140/126
f 86/140/126 78/110/104 63/118/109 69/120/111
f 72/128/117 86/140/126 69/120/111 65/126/115
s 11
f 87/141/127 101/142/128 107/143/129 104/144/130
f 101/145/128 88/146/131 102/147/132 107/148/129
f 107/148/129 102/147/132 90/149/133 103/150/134
f 104/144/130 107/143/129 103/151/134 89/152/135
f 89/152/135 103/151/134 108/153/136 95/154/137
f 103/150/134 90/149/133 105/155/138 108/156/136
f 108/156/136 105/155/138 92/157/139 106/158/140
f 95/154/137 108/153/136 106/159/140 91/160/141
f 91/160/141 106/159/140 109/161/142 98/162/143
f 106/158/140 92/157/139 96/163/144 109/164/142
f 109/164/142 96/163/144 94/165/145 97/166/146
f 98/162/143 109/161/142 97/167/146 93/168/147
f 93/168/147 97/167/146 110/169/148 100/170/149
f 97/166/146 94/165/145 99/171/150 110/172/148
f 110/172/148 99/171/150 88/146/131 101/145/128
f 100/170/149 110/169/148 101/142/128 87/141/127
f 88/146/131 99/171/150 111/173/151 102/147/132
f 99/171/150 94/165/145 96/163/144 111/173/151
f 111/173/151 96/163/144 92/157/139 105/155/138
f 102/147/132 111/173/151 105/155/138 90/149/133
f 93/168/147 100/170/149 112/174/152 98/162/143
f 100/170/149 87/141/127 104/144/130 112/174/152
f 112/174/152 104/144/130 89/152/135 95/154/137
f 98/162/143 112/174/152 95/154/137 91/160/141
s 12
f 113/175/153 114/176/154 116/177/155 115/178/156
f 117/179/157 118/180/158 120/181/159 119/182/160
f 114/176/154 120/181/159 118/180/158 116/177/155
f 119/182/160 113/183/153 115/184/156 117/179/157
s 13
f 121/185/161 122/186/162 124/187/163 123/188/164
f 125/189/165 126/190/166 128/191/167 127/192/168
f 122/193/162 128/191/167 126/190/166 124/194/163
f 127/192/168 121/185/161 123/188/164 125/189/165
s 14
f 129/195/169 130/196/170 132/197/171 131/198/172
f 133/199/173 134/200/174 136/201/175 135/202/176
f 130/203/170 136/201/175 134/200/174 132/204/171
f 135/202/176 129/195/169 131/198/172 133/199/173
s 15
f 137/205/177 138/206/178 150/207/179 149/208/180
f 138/206/178 139/209/181 151/210/182 150/207/179
f 139/209/181 140/211/183 152/212/184 151/210/182
f 140/211/183 141/213/185 153/214/186 152/212/184
f 141/213/185 142/215/187 154/216/188 153/214/186
f 142/215/187 143/217/189 155/218/190 154/216/188
f 143/217/189 144/219/191 156/220/192 155/218/190
f 144/219/191 145/221/193 157/222/194 156/220/192
f 145/221/193 146/223/195 158/224/196 157/222/194
f 146/223/195 147/225/197 159/226/198 158/224/196
f 147/225/197 148/227/199 160/228/200 159/226/198
f 148/227/199 137/205/177 149/208/180 160/228/200
f 149/208/180 150/207/179 162/229/201 161/230/202
f 150/207/179 151/210/182 163/231/203 162/229/201
f 151/210/182 152/212/184 164/232/204 163/231/203
f 152/212/184 153/214/186 165/233/205 164/232/204
f 153/214/186 154/216/188 166/234/206 165/233/205
f 154/216/188 155/218/190 167/235/207 166/234/206
f 155/218/190 156/220/192 168/236/208 167/235/207
f 156/220/192 157/222/194 169/237/209 168/236/208
f 157/222/194 158/224/196 170/238/210 169/237/209
f 158/224/196 159/226/198 171/239/211 170/238/210
f 159/226/198 160/228/200 172/240/212 171/239/211
f 160/228/200 149/208/180 161/230/202 172/240/212
f 161/230/202 162/229/201 174/241/213 173/242/214
f 162/229/201 163/231/203 175/243/215 174/241/213
f 163/231/203 164/232/204 176/244/216 175/243/215
f 164/232/204 165/233/205 177/245/217 176/244/216
f 165/233/205 166/234/206 178/246/218 177/245/217
f 166/234/206 167/235/207 179/247/219 178/246/218
f 167/235/207 168/236/208 180/248/220 179/247/219
f 168/236/208 169/237/209 181/249/221 180/248/220
f 169/237/209 170/238/210 182/250/222 181/249/221
f 170/238/210 171/239/211 183/251/223 182/250/222
f 171/239/211 172/240/212 184/252/224 183/251/223
f 172/240/212 161/230/202 173/242/214 184/252/224
f 173/242/214 174/241/213 186/253/225 185/254/226
f 174/241/213 175/243/215 187/255/227 186/253/225
f 175/243/215 176/244/216 188/256/228 187/255/227
f 176/244/216 177/245/217 189/257/229 188/256/228
f 177/245/217 178/246/218 190/258/230 189/257/229
f 178/246/218 179/247/219 191/259/231 190/258/230
f 179/247/219 180/248/220 192/260/232 191/259/231
f 180/248/220 181/249/221 193/261/233 192/260/232
f 181/249/221 182/250/222 194/262/234 193/261/233
f 182/250/222 183/251/223 195/263/235 194/262/234
f 183/251/223 184/252/224 196/264/236 195/263/235
f 184/252/224 173/242/214 185/254/226 196/264/236
f 185/254/226 186/253/225 198/265/237 197/266/238
f 186/253/225 187/255/227 199/267/239 198/265/237
f 187/255/227 188/256/228 200/268/240 199/267/239
f 188/256/228 189/257/229 201/269/241 200/268/240
f 189/257/229 190/258/230 202/270/242 201/269/241
f 190/258/230 191/259/231 203/271/243 202/270/242
f 191/259/231 192/260/232 204/272/244 203/271/243
f 192/260/232 193/261/233 205/273/245 204/272/244
f 193/261/233 194/262/234 206/274/246 205/273/245
f 194/262/234 195/263/235 207/275/247 206/274/246
f 195/263/235 196/264/236 208/276/248 207/275/247
f 196/264/236 185/254/226 197/266/238 208/276/248
f 138/206/178 137/205/177 209/277/249
f 139/209/181 138/206/178 209/277/249
f 140/211/183 139/209/181 209/277/249
f 141/213/185 140/211/183 209/277/249
f 142/215/187 141/213/185 209/277/249
f 143/217/189 142/215/187 209/277/249
f 144/219/191 143/217/189 209/277/249
f 145/221/193 144/219/191 209/277/249
f 146/223/195 145/221/193 209/277/249
f 147/225/197 146/223/195 209/277/249
f 148/227/199 147/225/197 209/277/249
f 137/205/177 148/227/199 209/277/249
s 16
f 210/278/250 222/279/251 223/280/252 211/281/253
f 211/281/253 223/280/252 224/282/254 212/283/255
f 212/283/255 224/282/254 225/284/256 213/285/257
f 213/285/257 225/284/256 226/286/258 214/287/259
f 214/287/259 226/286/258 227/288/260 215/289/261
f 215/289/261 227/288/260 228/290/262 216/291/263
f 216/291/263 228/290/262 229/292/264 217/293/265
f 217/293/265 229/292/264 230/294/266 218/295/267
f 218/295/267 230/294/266 231/296/268 219/297/269
f 219/297/269 231/296/268 232/298/270 220/299/271
f 220/299/271 232/298/270 233/300/272 221/301/273
f 221/301/273 233/300/272 222/279/251 210/278/250
f 222/279/251 234/302/274 235/303/275 223/280/252
f 223/280/252 235/303/275 236/304/276 224/282/254
f 224/282/254 236/304/276 237/305/277 225/284/256
f 225/284/256 237/305/277 238/306/278 226/286/258
f 226/286/258 238/306/278 239/307/279 227/288/260
f 227/288/260 239/307/279 240/308/280 228/290/262
f 228/290/262 240/308/280 241/309/281 229/292/264
f 229/292/264 241/309/281 242/310/282 230/294/266
f 230/294/266 242/310/282 243/311/283 231/296/268
f 231/296/268 243/311/283 244/312/284 232/298/270
f 232/298/270 244/312/284 245/313/285 233/300/272
f 233/300/272 245/313/285 234/302/274 222/279/251
f 234/302/274 246/314/286 247/315/287 235/303/275
f 235/303/275 247/315/287 248/316/288 236/304/276
f 236/304/276 248/316/288 249/317/289 237/305/277
f 237/305/277 249/317/289 250/318/290 238/306/278
f 238/306/278 250/318/290 251/319/291 239/307/279
f 239/307/279 251/319/291 252/320/292 240/308/280
f 240/308/280 252/320/292 253/321/293 241/309/281
f 241/309/281 253/321/293 254/322/294 242/310/282
f 242/310/282 254/322/294 255/323/295 243/311/283
f 243/311/283 255/323/295 256/324/296 244/312/284
f 244/312/284 256/324/296 257/325/297 245/313/285
f 245/313/285 257/325/297 246/314/286 234/302/274
f 246/314/286 258/326/298 259/327/299 247/315/287
f 247/315/287 259/327/299 260/328/300 248/316/288
f 248/316/288 260/328/300 261/329/301 249/317/289
f 249/317/289 261/329/301 262/330/302 250/318/290
f 250/318/290 262/330/302 263/331/303 251/319/291
f 251/319/291 263/331/303 264/332/304 252/320/292
f 252/320/292 264/332/304 265/333/305 253/321/293
f 253/321/293 265/333/305 266/334/306 254/322/294
f 254/322/294 266/334/306 267/335/307 255/323/295
f 255/323/295 267/335/307 268/336/308 256/324/296
f 256/324/296 268/336/308 269/337/309 257/325/297
f 257/325/297 269/337/309 258/326/298 246/314/286
f 258/326/298 270/338/310 271/339/311 259/327/299
f 259/327/299 271/339/311 272/340/312 260/328/300
f 260/328/300 272/340/312 273/341/313 261/329/301
f 261/329/301 273/341/313 274/342/314 262/330/302
f 262/330/302 274/342/314 275/343/315 263/331/303
f 263/331/303 275/343/315 276/344/316 264/332/304
f 264/332/304 276/344/316 277/345/317 265/333/305
f 265/333/305 277/345/317 278/346/318 266/334/306
f 266/334/306 278/346/318 279/347/319 267/335/307
f 267/335/307 279/347/319 280/348/320 268/336/308
f 268/336/308 280/348/320 281/349/321 269/337/309
f 269/337/309 281/349/321 270/338/310 258/326/298
f 211/281/253 282/350/322 210/278/250
f 212/283/255 282/350/322 211/281/253
f 213/285/257 282/350/322 212/283/255
f 214/287/259 282/350/322 213/285/257
f 215/289/261 282/350/322 214/287/259
f 216/291/263 282/350/322 215/289/261
f 217/293/265 282/350/322 216/291/263
f 218/295/267 282/350/322 217/293/265
f 219/297/269 282/350/322 218/295/267
f 220/299/271 282/350/322 219/297/269
f 221/301/273 282/350/322 220/299/271
f 210/278/250 282/350/322 221/301/273
s off
f 201/351/323 274/352/324 273/353/325 200/354/326
s 17
f 275/355/327 274/352/328 201/351/329 202/356/330
f 199/357/331 200/354/332 273/353/333 272/358/334
f 276/359/335 275/355/327 202/356/330 203/360/336
f 277/361/337 276/359/335 203/360/336 204/362/338
f 278/363/339 277/361/337 204/362/338 205/364/340
f 279/365/341 278/363/339 205/364/340 206/366/342
f 280/367/343 279/365/341 206/366/342 207/368/344
f 281/369/345 280/367/343 207/368/344 208/370/346
f 270/371/347 281/369/345 208/370/346 197/372/348
f 198/373/349 271/374/350 270/371/347 197/372/348
f 198/373/349 199/357/331 272/358/334 271/374/350
s 19
f 283/375/351 285/376/352 286/377/353 284/378/354
f 287/379/355 289/380/356 290/381/357 288/382/358
f 284/383/354 286/384/353 288/382/358 290/381/357
f 289/380/356 287/379/355 285/376/352 283/375/351
s 20
f 291/385/359 293/386/360 294/387/361 292/388/362
f 295/389/363 297/390/364 298/391/365 296/392/366
f 292/393/362 294/394/361 296/392/366 298/391/365
f 297/390/364 295/389/363 293/386/360 291/385/359
s 21
f 299/395/367 316/396/368 319/397/369 313/398/370
f 313/399/370 319/400/369 314/401/371 300/402/372
f 319/400/369 315/403/373 302/404/374 314/401/371
f 316/396/368 301/405/375 315/406/373 319/397/369
f 301/405/375 307/407/376 320/408/377 315/406/373
f 315/403/373 320/409/377 317/410/378 302/404/374
f 320/409/377 318/411/379 304/412/380 317/410/378
f 307/407/376 303/413/381 318/414/379 320/408/377
f 303/413/381 310/415/382 321/416/383 318/414/379
f 318/411/379 321/417/383 308/418/384 304/412/380
f 321/417/383 309/419/385 306/420/386 308/418/384
f 310/415/382 305/421/387 309/422/385 321/416/383
f 305/421/387 312/423/388 322/424/389 309/422/385
f 309/419/385 322/425/389 311/426/390 306/420/386
f 322/425/389 313/399/370 300/402/372 311/426/390
f 312/423/388 299/395/367 313/398/370 322/424/389
f 300/402/372 314/401/371 323/427/391 311/426/390
f 311/426/390 323/427/391 308/418/384 306/420/386
f 323/427/391 317/410/378 304/412/380 308/418/384
f 314/401/371 302/404/374 317/410/378 323/427/391
f 305/421/387 310/415/382 324/428/392 312/423/388
f 312/423/388 324/428/392 316/396/368 299/395/367
f 324/428/392 307/407/376 301/405/375 316/396/368
f 310/415/382 303/413/381 307/407/376 324/428/392
s 22
f 325/429/393 327/430/394 328/431/395 326/432/396
f 329/433/397 331/434/398 332/435/399 330/436/400
f 326/432/396 328/431/395 330/436/400 332/435/399
f 331/434/398 329/433/397 327/437/394 325/438/393
s 23
f 357/439/401 358/440/402 347/441/403 348/442/404
s 24
f 345/443/405 346/444/406 359/445/407 360/446/408
s 25
f 358/447/409 359/448/410 346/449/411 347/450/412
s 26
f 348/451/413 345/452/414 360/453/415 357/454/416
s 23
f 349/455/417 350/456/418 354/457/419 355/458/420
s 25
f 350/459/421 351/460/422 353/461/423 354/462/424
s 24
f 356/463/425 353/464/426 351/465/427 352/466/428
s 26
f 355/467/429 356/468/430 352/469/431 349/470/432
s 24
f 339/471/433 340/472/434 346/444/406 345/443/405
s 25
f 347/450/412 346/449/411 340/473/435 338/474/436
s 23
f 348/442/404 347/441/403 338/475/437 337/476/438
s 26
f 339/477/439 345/452/414 348/451/413 337/478/440
s 23
f 335/479/441 336/480/442 350/456/418 349/455/417
s 25
f 334/481/443 351/460/422 350/459/421 336/482/444
s 24
f 352/466/428 351/465/427 334/483/445 333/484/446
s 26
f 349/470/432 352/469/431 333/485/447 335/486/448
s 25
f 354/462/424 353/461/423 343/487/449 342/488/450
s 23
f 355/458/420 354/457/419 342/489/451 341/490/452
s 26
f 341/491/453 344/492/454 356/468/430 355/467/429
s 24
f 344/493/455 343/494/456 353/464/426 356/463/425
s 23
f 341/490/452 342/489/451 358/440/402 357/439/401
s 25
f 342/488/450 343/487/449 359/448/410 358/447/409
s 24
f 360/446/408 359/445/407 343/494/456 344/493/455
s 26
f 357/454/416 360/453/415 344/492/454 341/491/453
s 31
f 361/495/457 373/496/458 374/497/459 362/498/460
f 362/498/460 374/497/459 375/499/461 363/500/462
f 363/500/462 375/499/461 376/501/463 364/502/464
f 364/502/464 376/501/463 377/503/465 365/504/466
f 365/504/466 377/503/465 378/505/467 366/506/468
f 366/506/468 378/505/467 379/507/469 367/508/470
f 367/508/470 379/507/469 380/509/471 368/510/472
f 368/510/472 380/509/471 381/511/473 369/512/474
f 369/512/474 381/511/473 382/513/475 370/514/476
f 370/514/476 382/513/475 383/515/477 371/516/478
f 371/516/478 383/515/477 384/517/479 372/518/480
f 372/518/480 384/517/479 373/496/458 361/495/457
f 373/496/458 385/519/481 386/520/482 374/497/459
f 374/497/459 386/520/482 387/521/483 375/499/461
f 375/499/461 387/521/483 388/522/484 376/501/463
f 376/501/463 388/522/484 389/523/485 377/503/465
f 377/503/465 389/523/485 390/524/486 378/505/467
f 378/505/467 390/524/486 391/525/487 379/507/469
f 379/507/469 391/525/487 392/526/488 380/509/471
f 380/509/471 392/526/488 393/527/489 381/511/473
f 381/511/473 393/527/489 394/528/490 382/513/475
f 382/513/475 394/528/490 395/529/491 383/515/477
f 383/515/477 395/529/491 396/530/492 384/517/479
f 384/517/479 396/530/492 385/519/481 373/496/458
f 385/519/481 397/531/493 398/532/494 386/520/482
f 386/520/482 398/532/494 399/533/495 387/521/483
f 387/521/483 399/533/495 400/534/496 388/522/484
f 388/522/484 400/534/496 401/535/497 389/523/485
f 389/523/485 401/535/497 402/536/498 390/524/486
f 390/524/486 402/536/498 403/537/499 391/525/487
f 391/525/487 403/537/499 404/538/500 392/526/488
f 392/526/488 404/538/500 405/539/501 393/527/489
f 393/527/489 405/539/501 406/540/502 394/528/490
f 394/528/490 406/540/502 407/541/503 395/529/491
f 395/529/491 407/541/503 408/542/504 396/530/492
f 396/530/492 408/542/504 397/531/493 385/519/481
f 397/531/493 409/543/505 410/544/506 398/532/494
f 398/532/494 410/544/506 411/545/507 399/533/495
f 399/533/495 411/545/507 412/546/508 400/534/496
f 400/534/496 412/546/508 413/547/509 401/535/497
f 401/535/497 413/547/509 414/548/510 402/536/498
f 402/536/498 414/548/510 415/549/511 403/537/499
f 403/537/499 415/549/511 416/550/512 404/538/500
f 404/538/500 416/550/512 417/551/513 405/539/501
f 405/539/501 417/551/513 418/552/514 406/540/502
f 406/540/502 418/552/514 419/553/515 407/541/503
f 407/541/503 419/553/515 420/554/516 408/542/504
f 408/542/504 420/554/516 409/543/505 397/531/493
f 409/543/505 421/555/517 422/556/518 410/544/506
f 410/544/506 422/556/518 423/557/519 411/545/507
f 411/545/507 423/557/519 424/558/520 412/546/508
f 412/546/508 424/558/520 425/559/521 413/547/509
f 413/547/509 425/559/521 426/560/522 414/548/510
f 414/548/510 426/560/522 427/561/523 415/549/511
f 415/549/511 427/561/523 428/562/524 416/550/512
f 416/550/512 428/562/524 429/563/525 417/551/513
f 417/551/513 429/563/525 430/564/526 418/552/514
f 418/552/514 430/564/526 431/565/527 419/553/515
f 419/553/515 431/565/527 432/566/528 420/554/516
f 420/554/516 432/566/528 421/555/517 409/543/505
f 362/498/460 433/567/529 361/495/457
f 363/500/462 433/567/529 362/498/460
f 364/502/464 433/567/529 363/500/462
f 365/504/466 433/567/529 364/502/464
f 366/506/468 433/567/529 365/504/466
f 367/508/470 433/567/529 366/506/468
f 368/510/472 433/567/529 367/508/470
f 369/512/474 433/567/529 368/510/472
f 370/514/476 433/567/529 369/512/474
f 371/516/478 433/567/529 370/514/476
f 372/518/480 433/567/529 371/516/478
f 361/495/457 433/567/529 372/518/480
s 32
f 434/568/530 435/569/531 447/570/532 446/571/533
f 435/569/531 436/572/534 448/573/535 447/570/532
f 436/572/534 437/574/536 449/575/537 448/573/535
f 437/574/536 438/576/538 450/577/539 449/575/537
f 438/576/538 439/578/540 451/579/541 450/577/539
f 439/578/540 440/580/542 452/581/543 451/579/541
f 440/580/542 441/582/544 453/583/545 452/581/543
f 441/582/544 442/584/546 454/585/547 453/583/545
f 442/584/546 443/586/548 455/587/549 454/585/547
f 443/586/548 444/588/550 456/589/551 455/587/549
f 444/588/550 445/590/552 457/591/553 456/589/551
f 445/590/552 434/568/530 446/571/533 457/591/553
f 446/571/533 447/570/532 459/592/554 458/593/555
f 447/570/532 448/573/535 460/594/556 459/592/554
f 448/573/535 449/575/537 461/595/557 460/594/556
f 449/575/537 450/577/539 462/596/558 461/595/557
f 450/577/539 451/579/541 463/597/559 462/596/558
f 451/579/541 452/581/543 464/598/560 463/597/559
f 452/581/543 453/583/545 465/599/561 464/598/560
f 453/583/545 454/585/547 466/600/562 465/599/561
f 454/585/547 455/587/549 467/601/563 466/600/562
f 455/587/549 456/589/551 468/602/564 467/601/563
f 456/589/551 457/591/553 469/603/565 468/602/564
f 457/591/553 446/571/533 458/593/555 469/603/565
f 458/593/555 459/592/554 471/604/566 470/605/567
f 459/592/554 460/594/556 472/606/568 471/604/566
f 460/594/556 461/595/557 473/607/569 472/606/568
f 461/595/557 462/596/558 474/608/570 473/607/569
f 462/596/558 463/597/559 475/609/571 474/608/570
f 463/597/559 464/598/560 476/610/572 475/609/571
f 464/598/560 465/599/561 477/611/573 476/610/572
f 465/599/561 466/600/562 478/612/574 477/611/573
f 466/600/562 467/601/563 479/613/575 478/612/574
f 467/601/563 468/602/564 480/614/576 479/613/575
f 468/602/564 469/603/565 481/615/577 480/614/576
f 469/603/565 458/593/555 470/605/567 481/615/577
f 470/605/567 471/604/566 483/616/578 482/617/579
f 471/604/566 472/606/568 484/618/580 483/616/578
f 472/606/568 473/607/569 485/619/581 484/618/580
f 473/607/569 474/608/570 486/620/582 485/619/581
f 474/608/570 475/609/571 487/621/583 486/620/582
f 475/609/571 476/610/572 488/622/584 487/621/583
f 476/610/572 477/611/573 489/623/585 488/622/584
f 477/611/573 478/612/574 490/624/586 489/623/585
f 478/612/574 479/613/575 491/625/587 490/624/586
f 479/613/575 480/614/576 492/626/588 491/625/587
f 480/614/576 481/615/577 493/627/589 492/626/588
f 481/615/577 470/605/567 482/617/579 493/627/589
f 482/617/579 483/616/578 495/628/590 494/629/591
f 483/616/578 484/618/580 496/630/592 495/628/590
f 484/618/580 485/619/581 497/631/593 496/630/592
f 485/619/581 486/620/582 498/632/594 497/631/593
f 486/620/582 487/621/583 499/633/595 498/632/594
f 487/621/583 488/622/584 500/634/596 499/633/595
f 488/622/584 489/623/585 501/635/597 500/634/596
f 489/623/585 490/624/586 502/636/598 501/635/597
f 490/624/586 491/625/587 503/637/599 502/636/598
f 491/625/587 492/626/588 504/638/600 503/637/599
f 492/626/588 493/627/589 505/639/601 504/638/600
f 493/627/589 482/617/579 494/629/591 505/639/601
f 435/569/531 434/568/530 506/640/602
f 436/572/534 435/569/531 506/640/602
f 437/574/536 436/572/534 506/640/602
f 438/576/538 437/574/536 506/640/602
f 439/578/540 438/576/538 506/640/602
f 440/580/542 439/578/540 506/640/602
f 441/582/544 440/580/542 506/640/602
f 442/584/546 441/582/544 506/640/602
f 443/586/548 442/584/546 506/640/602
f 444/588/550 443/586/548 506/640/602
f 445/590/552 444/588/550 506/640/602
f 434/568/530 445/590/552 506/640/602
s off
f 425/641/603 424/642/604 497/643/605 498/644/606
s 33
f 499/645/607 426/646/608 425/641/609 498/644/610
f 423/647/611 496/648/612 497/643/613 424/642/614
f 500/649/615 427/650/616 426/646/608 499/645/607
f 501/651/617 428/652/618 427/650/616 500/649/615
f 502/653/619 429/654/620 428/652/618 501/651/617
f 503/655/621 430/656/622 429/654/620 502/653/619
f 504/657/623 431/658/624 430/656/622 503/655/621
f 505/659/625 432/660/626 431/658/624 504/657/623
f 494/661/627 421/662/628 432/660/626 505/659/625
f 422/663/629 421/662/628 494/661/627 495/664/630
f 422/663/629 495/664/630 496/648/612 423/647/611
