# This file uses centimeters as units for non-parametric coordinates.

mtllib Relic_Wrath01.mtl
g default
v -1.519611 5.024578 2.121503
v -1.061865 4.679990 3.884859
v 0.136526 3.777850 4.974673
v 1.429755 2.804317 4.974673
v 2.628147 1.902176 3.884859
v 3.085892 1.557590 2.121503
v -1.499665 6.199979 2.121503
v -0.936489 5.776024 4.291008
v 0.537926 4.666096 5.631836
v 2.172338 3.435722 5.631836
v 3.646752 2.325794 4.291008
v 4.209929 1.901839 2.121503
v -2.611375 6.582167 2.121503
v -1.877607 6.029792 4.948173
v 0.043422 4.583656 6.695150
v 2.229880 2.937707 6.695150
v 4.150908 1.491571 4.948172
v 4.884676 0.939196 2.121503
v -3.318395 5.642971 2.121503
v -2.584627 5.090596 4.948173
v -0.663598 3.644460 6.695150
v 1.522860 1.998511 6.695150
v 3.443888 0.552375 4.948172
v 4.177656 0.000000 2.121503
v -2.643647 4.680327 2.121503
v -2.080471 4.256372 4.291008
v -0.606056 3.146444 5.631836
v 1.028356 1.916071 5.631836
v 2.080471 1.124047 4.291008
v 2.643647 0.700092 2.121503
v -1.519611 5.024578 -2.249582
v -1.061865 4.679990 -4.012938
v 0.136526 3.777850 -5.102752
v 1.429755 2.804317 -5.102752
v 2.628147 1.902176 -4.012938
v 3.085892 1.557590 -2.249582
v -1.499665 6.199979 -2.249582
v -0.936489 5.776024 -4.419088
v 0.537926 4.666096 -5.759916
v 2.172338 3.435722 -5.759916
v 3.646752 2.325794 -4.419088
v 4.209929 1.901839 -2.249582
v -2.611375 6.582167 -2.249582
v -1.877607 6.029792 -5.076252
v 0.043422 4.583656 -6.823230
v 2.229880 2.937707 -6.823230
v 4.150908 1.491571 -5.076252
v 4.884676 0.939196 -2.249582
v -3.318395 5.642971 -2.249582
v -2.584627 5.090596 -5.076252
v -0.663598 3.644460 -6.823230
v 1.522860 1.998511 -6.823230
v 3.443888 0.552375 -5.076252
v 4.177656 0.000000 -2.249582
v -2.643647 4.680327 -2.249582
v -2.080471 4.256372 -4.419088
v -0.606056 3.146444 -5.759916
v 1.028356 1.916071 -5.759916
v 2.502770 0.806143 -4.419088
v 3.065946 0.382189 -2.249582
v 0.132737 2.491247 12.010086
v 1.186485 2.360095 13.529991
v 2.933681 2.379608 14.150167
v 4.481822 2.521675 13.699295
v 5.603846 2.765457 12.243504
v 5.646043 2.997180 10.404423
v -0.580366 3.372922 12.320084
v 0.716088 3.211562 14.190063
v 2.865713 3.235570 14.953085
v 4.822288 3.415116 14.383263
v 6.202744 3.715049 12.592163
v 6.254661 4.000144 10.329491
v -1.629707 2.914864 12.586605
v 0.059457 2.704625 15.023022
v 2.860222 2.735906 16.017168
v 5.477659 2.976097 15.254881
v 7.276269 3.366882 12.921240
v 7.343911 3.738334 9.973183
v -1.565131 1.750093 12.441326
v 0.124032 1.539855 14.877743
v 2.924798 1.571135 15.871889
v 5.542234 1.811326 15.109602
v 7.340845 2.202111 12.775961
v 7.408487 2.573564 9.827904
v -0.475880 1.488284 12.085018
v 0.820575 1.326923 13.954998
v 2.970199 1.350931 14.718019
v 4.926774 1.530478 14.148197
v 5.801691 1.784019 12.504328
v 5.853607 2.069114 10.241655
v -1.121001 2.941003 7.846884
v -1.078803 3.172726 6.007803
v 0.043221 3.416509 4.552012
v 1.591362 3.558575 4.101141
v 3.338558 3.578088 4.721317
v 4.392305 3.446936 6.241222
v -1.834105 3.822678 8.156881
v -1.782188 4.107773 5.894210
v -0.401730 4.407705 4.103110
v 1.554845 4.587252 3.533289
v 3.704468 4.611259 4.296309
v 5.000923 4.449900 6.166290
v -2.883445 3.364619 8.423403
v -2.815803 3.736072 5.475347
v -1.017191 4.126857 3.141705
v 1.600245 4.367048 2.379419
v 4.401011 4.398328 3.373566
v 6.090173 4.188090 5.809981
v -2.818869 2.199849 8.278126
v -2.751226 2.571301 5.330068
v -0.952615 2.962087 2.996427
v 1.664821 3.202278 2.234140
v 4.465587 3.233558 3.228287
v 6.154749 3.023319 5.664702
v -1.729618 1.938040 7.921816
v -1.677702 2.223135 5.659144
v -0.297244 2.523067 3.868045
v 1.659331 2.702614 3.298224
v 3.808954 2.726621 4.061244
v 5.105409 2.565261 5.931224
v -1.009255 4.027115 -8.869614
v -1.330067 3.620492 -7.089325
v -0.516257 3.242639 -5.466785
v 0.913420 3.063880 -4.729036
v 2.749279 3.110434 -4.984279
v 4.082175 3.390514 -6.242308
v -1.613464 5.030345 -8.971731
v -2.008170 4.530064 -6.781393
v -1.006916 4.065182 -4.785138
v 0.799942 3.839263 -3.852753
v 3.058650 3.896539 -4.166787
v 4.698549 4.241127 -5.714574
v -2.603260 4.799760 -9.562578
v -3.117527 4.147939 -6.708765
v -1.812984 3.542239 -4.107824
v 0.604166 3.240013 -2.860514
v 3.547058 3.314639 -3.269671
v 5.683700 3.763607 -5.286298
v -2.610778 3.654022 -9.825624
v -3.125045 3.002200 -6.971811
v -1.820503 2.396500 -4.370870
v 0.596648 2.094274 -3.123559
v 3.539540 2.168900 -3.532717
v 5.676182 2.617869 -5.549345
v -1.625628 3.176501 -9.397348
v -2.020334 2.676220 -7.207010
v -1.019081 2.211338 -5.210754
v 0.787778 1.985419 -4.278369
v 2.579628 2.101068 -4.833313
v 4.219527 2.445657 -6.381099
v 1.040391 4.878232 -12.635374
v 2.373286 5.158310 -13.893402
v 4.209147 5.204865 -14.148645
v 5.638825 5.026107 -13.410896
v 6.131818 4.241630 -10.008066
v 0.436181 5.881461 -12.737492
v 2.076082 6.226050 -14.285278
v 4.334787 6.283327 -14.599310
v 6.141646 6.057408 -13.666924
v 6.748196 5.092245 -9.480331
v -0.553616 5.650877 -13.328337
v 1.583024 6.099845 -15.344965
v 4.525918 6.174471 -15.754120
v 6.943070 5.872245 -14.506811
v 7.733346 4.614724 -9.052057
v -0.561133 4.505137 -13.591383
v 1.575505 4.954106 -15.608007
v 4.518401 5.028732 -16.017168
v 6.935550 4.726506 -14.769857
v 7.725827 3.468986 -9.315102
v 0.424015 4.027617 -13.163107
v 2.063915 4.372207 -14.710894
v 4.322625 4.429482 -15.024929
v 6.129483 4.203565 -14.092543
v 6.736030 3.238400 -9.905951
v 7.015042 4.131196 -9.552301
v 6.847165 5.093154 -11.827301
v 7.493584 6.074181 -11.868460
v 8.527346 5.807673 -12.360676
v 8.519827 4.661935 -12.623724
v 7.481420 4.220338 -12.294077
v 7.773868 5.171456 -12.194847
vt 0.493033 0.422407
vt 0.558143 0.426208
vt 0.568401 0.284785
vt 0.497992 0.286949
vt 0.424956 0.422543
vt 0.427582 0.287496
vt 0.363445 0.424033
vt 0.365038 0.287526
vt 0.292866 0.427913
vt 0.296122 0.285703
vt 0.236043 0.245134
vt 0.228156 0.279662
vt 0.573512 0.321293
vt 0.498356 0.320299
vt 0.426681 0.320485
vt 0.362827 0.320649
vt 0.292449 0.318475
vt 0.218873 0.313774
vt 0.572120 0.357831
vt 0.498397 0.354984
vt 0.426825 0.355260
vt 0.362398 0.355581
vt 0.291620 0.353063
vt 0.216769 0.349442
vt 0.564284 0.391838
vt 0.495543 0.387881
vt 0.425182 0.388007
vt 0.360581 0.388286
vt 0.300600 0.397900
vt 0.224674 0.400060
vt 0.711307 0.256985
vt 0.703875 0.291670
vt 0.695465 0.326415
vt 0.693249 0.362740
vt 0.697830 0.398281
vt 0.765825 0.435289
vt 0.773740 0.300826
vt 0.833211 0.440798
vt 0.843963 0.307956
vt 0.892391 0.446730
vt 0.907059 0.313295
vt 0.952308 0.458824
vt 0.027007 0.260288
vt 0.081759 0.409598
vt 0.095772 0.269803
vt 0.770512 0.333706
vt 0.842617 0.340330
vt 0.909203 0.345928
vt 0.010753 0.295000
vt 0.096378 0.304183
vt 0.767177 0.367934
vt 0.839206 0.374278
vt 0.906087 0.379785
vt 0.007812 0.333089
vt 0.093271 0.339408
vt 0.766739 0.400726
vt 0.836939 0.406646
vt 0.900554 0.412491
vt 0.017661 0.369575
vt 0.086869 0.374444
vt 0.097876 0.234852
vt 0.224652 0.428661
vt 0.700564 0.433783
vt 0.564287 0.248534
vt 0.962675 0.274776
vt 0.904002 0.278734
vt 0.845927 0.273877
vt 0.778251 0.266460
vt 0.299845 0.251265
vt 0.366538 0.252970
vt 0.427272 0.252967
vt 0.496216 0.252051
vt 0.969833 0.424218
vt 0.040630 0.225924
vt 0.023863 0.405647
vt 0.988398 0.387384
vt 0.989566 0.346587
vt 0.974917 0.310016
vt 0.566785 0.459033
vt 0.634643 0.454356
vt 0.639493 0.490467
vt 0.569220 0.493863
vt 0.497950 0.461142
vt 0.498904 0.495648
vt 0.437275 0.462164
vt 0.436442 0.496757
vt 0.370579 0.461486
vt 0.367615 0.496060
vt 0.306503 0.456193
vt 0.299704 0.491020
vt 0.645340 0.526791
vt 0.570216 0.527165
vt 0.498614 0.528642
vt 0.434846 0.529950
vt 0.364587 0.529014
vt 0.291289 0.525559
vt 0.644659 0.563257
vt 0.570904 0.561802
vt 0.499390 0.563400
vt 0.435037 0.564917
vt 0.364345 0.563727
vt 0.289734 0.561549
vt 0.637448 0.597324
vt 0.568655 0.594706
vt 0.498336 0.596162
vt 0.433778 0.597678
vt 0.373968 0.608498
vt 0.297999 0.612278
vt 0.631903 0.631760
vt 0.566764 0.629237
vt 0.498724 0.630679
vt 0.437250 0.633373
vt 0.366646 0.638701
vt 0.298108 0.640834
vt 0.781143 0.460233
vt 0.774792 0.494958
vt 0.767377 0.529643
vt 0.766000 0.565718
vt 0.771192 0.600893
vt 0.774347 0.636212
vt 0.847123 0.468366
vt 0.844807 0.502679
vt 0.911921 0.472503
vt 0.915372 0.506959
vt 0.962878 0.467208
vt 0.976315 0.502024
vt 0.103449 0.445831
vt 0.097361 0.480265
vt 0.028463 0.467279
vt 0.045193 0.433313
vt 0.165994 0.449065
vt 0.166994 0.483736
vt 0.843260 0.535294
vt 0.918087 0.539397
vt 0.992188 0.538068
vt 0.093172 0.512785
vt 0.010033 0.502766
vt 0.170339 0.517833
vt 0.840918 0.569109
vt 0.915909 0.573145
vt 0.991963 0.578820
vt 0.089734 0.546028
vt 0.007812 0.542384
vt 0.167909 0.553592
vt 0.840559 0.601510
vt 0.911449 0.605956
vt 0.973819 0.615889
vt 0.089417 0.578529
vt 0.020609 0.578687
vt 0.159902 0.588843
vt 0.839181 0.635972
vt 0.904502 0.640423
vt 0.956580 0.650612
vt 0.089024 0.613228
vt 0.030348 0.614178
vt 0.152404 0.623721
vt 0.423752 0.044802
vt 0.491852 0.043796
vt 0.494652 0.080157
vt 0.424240 0.079724
vt 0.354869 0.043207
vt 0.353876 0.077693
vt 0.294249 0.041050
vt 0.291381 0.075461
vt 0.227858 0.037030
vt 0.222563 0.071162
vt 0.164980 0.028622
vt 0.154830 0.062565
vt 0.498439 0.116799
vt 0.423375 0.113038
vt 0.351742 0.110580
vt 0.287895 0.108389
vt 0.217504 0.103587
vt 0.143633 0.095846
vt 0.495720 0.153230
vt 0.422143 0.147670
vt 0.350598 0.145289
vt 0.286166 0.143188
vt 0.215365 0.137949
vt 0.140224 0.131121
vt 0.486641 0.186897
vt 0.418084 0.180409
vt 0.347760 0.177907
vt 0.283192 0.175719
vt 0.222934 0.182946
vt 0.147150 0.182107
vt 0.479226 0.221001
vt 0.414302 0.214798
vt 0.346282 0.212381
vt 0.284798 0.211492
vt 0.214336 0.212573
vt 0.146716 0.210821
vt 0.638255 0.057664
vt 0.629692 0.092028
vt 0.620124 0.126378
vt 0.616639 0.162508
vt 0.619918 0.198103
vt 0.621294 0.233632
vt 0.704465 0.069591
vt 0.699213 0.103678
vt 0.770952 0.079024
vt 0.769563 0.112871
vt 0.826059 0.082856
vt 0.833476 0.118391
vt 0.695080 0.136272
vt 0.767818 0.144877
vt 0.837426 0.152359
vt 0.690570 0.170199
vt 0.762923 0.178469
vt 0.831213 0.186771
vt 0.688797 0.202839
vt 0.758579 0.210982
vt 0.819857 0.219482
vt 0.686403 0.237287
vt 0.753217 0.245055
vt 0.811660 0.253811
vt 0.025220 0.042946
vt 0.032000 0.007816
vt 0.018606 0.079202
vt 0.013749 0.116897
vt 0.011163 0.154646
vt 0.007812 0.190627
vt 0.765830 0.026299
vt 0.738364 0.037348
vt 0.736343 0.007812
vt 0.722638 0.062431
vt 0.709649 0.030143
vt 0.757360 0.060056
vt 0.888891 0.082797
vt 0.903158 0.117092
vt 0.912017 0.155589
vt 0.905049 0.194880
vt 0.886897 0.231723
vt 0.875619 0.267062
vt 0.819700 0.007818
vt 0.803184 0.032388
vt 0.784920 0.009088
vt 0.804264 0.061973
vt 0.775380 0.042557
vt 0.831655 0.040503
vn 0.646346 -0.486565 -0.587785
vn 0.794256 -0.597910 -0.107986
vn 0.778786 0.627121 -0.014516
vn 0.677863 0.731470 -0.073844
vn 0.261734 -0.197031 -0.944814
vn 0.629565 0.768465 -0.114501
vn -0.229583 0.257382 -0.938640
vn 0.564370 0.817543 -0.114501
vn -0.515354 0.671687 -0.532210
vn 0.515460 0.853726 -0.073844
vn -0.667587 0.734283 -0.123113
vn 0.387269 0.921852 -0.014516
vn -0.331849 0.937869 0.101379
vn -0.271656 0.814028 0.513383
vn 0.066896 0.557055 0.827777
vn 0.516825 0.218352 0.827777
vn 0.857407 -0.035923 0.513383
vn 0.993066 -0.059517 0.101379
vn -0.993066 0.059517 0.101379
vn -0.857407 0.035923 0.513383
vn -0.516825 -0.218352 0.827777
vn -0.076709 -0.569660 0.818293
vn 0.176294 -0.867197 0.465714
vn 0.208287 -0.973092 0.098527
vn -0.387269 -0.921852 -0.014516
vn -0.515461 -0.853726 -0.073844
vn -0.564370 -0.817543 -0.114501
vn -0.620180 -0.779838 -0.085023
vn -0.689537 -0.718067 -0.094437
vn -0.790098 -0.612225 -0.030429
vn 0.794256 -0.597910 0.107986
vn 0.778786 0.627121 0.014516
vn -0.331849 0.937869 -0.101379
vn -0.993066 0.059517 -0.101379
vn -0.387269 -0.921852 0.014516
vn 0.646346 -0.486564 0.587785
vn 0.677863 0.731470 0.073844
vn 0.261734 -0.197031 0.944814
vn 0.629565 0.768465 0.114501
vn -0.261734 0.197031 0.944814
vn 0.564370 0.817543 0.114501
vn -0.646346 0.486565 0.587785
vn 0.515460 0.853726 0.073844
vn -0.737282 0.669859 0.087780
vn 0.387269 0.921853 0.014516
vn -0.271656 0.814028 -0.513383
vn 0.066895 0.557055 -0.827777
vn 0.516824 0.218352 -0.827777
vn 0.857407 -0.035923 -0.513383
vn 0.993066 -0.059517 -0.101379
vn -0.857407 0.035923 -0.513383
vn -0.516825 -0.218352 -0.827777
vn -0.066896 -0.557055 -0.827777
vn 0.271656 -0.814028 -0.513383
vn 0.264978 -0.960096 -0.089456
vn -0.515461 -0.853726 0.073844
vn -0.564370 -0.817543 0.114501
vn -0.629565 -0.768465 0.114501
vn -0.677863 -0.731470 0.073844
vn -0.760308 -0.649552 0.003748
vn 0.605158 0.131483 -0.785173
vn 0.919841 0.098363 -0.379760
vn 0.176930 0.983500 0.037726
vn 0.021530 0.999481 0.023960
vn 0.042328 0.125968 -0.991131
vn -0.048343 0.998828 0.002245
vn -0.596410 0.133827 -0.791445
vn -0.126389 0.991666 0.024974
vn -0.945245 0.207769 -0.251681
vn -0.172884 0.981641 0.080580
vn -0.977951 0.110532 0.177188
vn -0.291760 0.940490 0.174224
vn -0.794155 0.461452 0.395450
vn -0.555306 0.367655 0.745966
vn -0.058537 0.370935 0.926812
vn 0.480078 0.420361 0.769949
vn 0.796309 0.491687 0.352329
vn 0.791918 0.606999 -0.066468
vn -0.733762 -0.627861 0.259583
vn -0.501806 -0.597334 0.625605
vn -0.005223 -0.590707 0.806869
vn 0.531302 -0.556154 0.639071
vn 0.799338 -0.571192 0.186543
vn 0.782968 -0.590339 -0.196117
vn 0.283433 -0.937503 -0.201875
vn 0.130523 -0.966444 -0.221245
vn 0.060705 -0.968104 -0.243085
vn 0.005017 -0.980451 -0.196699
vn -0.086630 -0.980039 -0.178939
vn -0.207313 -0.975404 -0.074891
vn 0.981787 0.076141 -0.174059
vn 0.185257 0.980513 0.065377
vn -0.852311 0.482314 0.202335
vn -0.791918 -0.606999 0.066468
vn 0.291760 -0.940490 -0.174224
vn 0.942341 0.010525 0.334489
vn 0.063891 0.984285 0.164624
vn 0.584322 -0.068463 0.808629
vn 0.017341 0.975265 0.220356
vn -0.042328 -0.125968 0.991131
vn -0.060705 0.968104 0.243085
vn -0.605158 -0.131483 0.785173
vn -0.130523 0.966444 0.221244
vn -0.928528 -0.005182 0.371227
vn -0.283433 0.937503 0.201875
vn -0.849809 0.473302 -0.231969
vn -0.533392 0.541281 -0.650006
vn 0.005223 0.590707 -0.806869
vn 0.501807 0.597334 -0.625605
vn 0.733762 0.627861 -0.259583
vn -0.796309 -0.491687 -0.352329
vn -0.480078 -0.420362 -0.769949
vn 0.058538 -0.370935 -0.926812
vn 0.555307 -0.367655 -0.745966
vn 0.762448 -0.523637 -0.380102
vn 0.172884 -0.981641 -0.080580
vn 0.126389 -0.991666 -0.024974
vn 0.048343 -0.998828 -0.002244
vn -0.021530 -0.999481 -0.023960
vn -0.152623 -0.986657 -0.056692
vn 0.990161 0.025109 -0.137664
vn 0.928694 -0.088761 0.360068
vn 0.229420 0.920575 0.316084
vn 0.130740 0.970056 0.204692
vn 0.732382 0.147791 -0.664661
vn 0.096076 0.985186 0.142052
vn 0.141849 0.285955 -0.947686
vn 0.024002 0.994197 0.104860
vn -0.469437 0.414639 -0.779553
vn -0.048798 0.992504 0.112046
vn -0.802204 0.312077 -0.508996
vn -0.203407 0.974693 0.092734
vn -0.776376 0.607586 -0.167571
vn -0.861712 0.452680 0.229203
vn -0.633750 0.342880 0.693394
vn -0.136349 0.280688 0.950065
vn 0.386479 0.296614 0.873301
vn 0.688331 0.424448 0.588255
vn -0.783407 -0.463927 -0.413576
vn -0.867940 -0.496541 0.011275
vn -0.639957 -0.603049 0.476221
vn -0.138439 -0.678934 0.721030
vn 0.362918 -0.735742 0.571817
vn 0.613503 -0.737804 0.281531
vn 0.217020 -0.969040 -0.117746
vn 0.118051 -0.963747 -0.239282
vn 0.083380 -0.949607 -0.302150
vn 0.010125 -0.951274 -0.308181
vn -0.067165 -0.931775 -0.356769
vn -0.224206 -0.904867 -0.361866
vn 0.827422 -0.130814 0.546132
vn 0.215807 0.914922 0.341095
vn -0.681300 0.647066 -0.342250
vn -0.688332 -0.424447 -0.588255
vn 0.203407 -0.974693 -0.092734
vn 0.438924 -0.203793 0.875108
vn 0.061487 0.941299 0.331928
vn -0.153684 -0.220149 0.963284
vn -0.011306 0.940595 0.339341
vn -0.640947 -0.206412 0.739311
vn -0.174137 0.946691 0.271021
vn -0.380251 0.652607 -0.655373
vn 0.142556 0.665242 -0.732893
vn 0.543338 0.620660 -0.565301
vn -0.386479 -0.296614 -0.873300
vn 0.136349 -0.280688 -0.950065
vn 0.576536 -0.388491 -0.718805
vn 0.048798 -0.992504 -0.112046
vn -0.024002 -0.994197 -0.104860
vn -0.062252 -0.997490 -0.033750
vn -0.266848 0.961048 0.071970
vn -0.859512 0.249233 -0.446231
vn 0.718301 0.483527 0.500245
vn 0.647763 -0.735484 0.198662
vn -0.232271 -0.907464 -0.350084
vn 0.468910 0.194717 -0.861516
vn 0.468909 0.194715 -0.861516
vn 0.468910 0.194715 -0.861516
vn 0.468909 0.194714 -0.861517
vn 0.468909 0.194715 -0.861516
vn 0.468909 0.194716 -0.861516
vn -0.795207 -0.059117 0.603450
vn -0.201986 0.966558 0.158012
vn 0.612581 0.654356 -0.443354
vn 0.751264 -0.352228 -0.558156
vn -0.058926 -0.997081 0.048553
vn 0.375742 -0.209710 0.902684
vn 0.375742 -0.209710 0.902685
vn 0.375742 -0.209709 0.902685
vn 0.375741 -0.209711 0.902685
vn 0.375741 -0.209710 0.902685
vn 0.375742 -0.209711 0.902684
s 1
g Relic_Wrath01 Fix
usemtl T_Relic_Wrath01SG
f 2/72/1 1/64/2 7/3/3 8/4/4
f 3/71/5 2/72/1 8/4/4 9/6/6
f 4/70/7 3/71/5 9/6/6 10/8/8
f 5/69/9 4/70/7 10/8/8 11/10/10
f 6/11/11 5/69/9 11/10/10 12/12/12
f 8/4/4 7/3/3 13/13/13 14/14/14
f 9/6/6 8/4/4 14/14/14 15/15/15
f 10/8/8 9/6/6 15/15/15 16/16/16
f 11/10/10 10/8/8 16/16/16 17/17/17
f 12/12/12 11/10/10 17/17/17 18/18/18
f 14/14/14 13/13/13 19/19/19 20/20/20
f 15/15/15 14/14/14 20/20/20 21/21/21
f 16/16/16 15/15/15 21/21/21 22/22/22
f 17/17/17 16/16/16 22/22/22 23/23/23
f 18/18/18 17/17/17 23/23/23 24/24/24
f 20/20/20 19/19/19 25/25/25 26/26/26
f 21/21/21 20/20/20 26/26/26 27/27/27
f 22/22/22 21/21/21 27/27/27 28/28/28
f 23/23/23 22/22/22 28/28/28 29/29/29
f 24/24/24 23/23/23 29/29/29 30/30/30
f 26/26/26 25/25/25 1/2/2 2/1/1
f 27/27/27 26/26/26 2/1/1 3/5/5
f 28/28/28 27/27/27 3/5/5 4/7/7
f 29/29/29 28/28/28 4/7/7 5/9/9
f 30/30/30 29/29/29 5/9/9 6/62/11
f 7/3/3 1/64/2 31/31/31 37/32/32
f 13/13/13 7/3/3 37/32/32 43/33/33
f 19/19/19 13/13/13 43/33/33 49/34/34
f 25/25/25 19/19/19 49/34/34 55/35/35
f 1/2/2 25/25/25 55/35/35 31/63/31
f 32/68/36 38/37/37 37/32/32 31/31/31
f 33/67/38 39/39/39 38/37/37 32/68/36
f 34/66/40 40/41/41 39/39/39 33/67/38
f 35/65/42 41/78/43 40/41/41 34/66/40
f 36/61/44 42/45/45 41/43/43 35/74/42
f 38/37/37 44/46/46 43/33/33 37/32/32
f 39/39/39 45/47/47 44/46/46 38/37/37
f 40/41/41 46/48/48 45/47/47 39/39/39
f 41/78/43 47/77/49 46/48/48 40/41/41
f 42/45/45 48/50/50 47/49/49 41/43/43
f 44/46/46 50/51/51 49/34/34 43/33/33
f 45/47/47 51/52/52 50/51/51 44/46/46
f 46/48/48 52/53/53 51/52/52 45/47/47
f 47/77/49 53/76/54 52/53/53 46/48/48
f 48/50/50 54/55/55 53/54/54 47/49/49
f 50/51/51 56/56/56 55/35/35 49/34/34
f 51/52/52 57/57/57 56/56/56 50/51/51
f 52/53/53 58/58/58 57/57/57 51/52/52
f 53/76/54 59/73/59 58/58/58 52/53/53
f 54/55/55 60/60/60 59/59/59 53/54/54
f 56/56/56 32/36/36 31/63/31 55/35/35
f 57/57/57 33/38/38 32/36/36 56/56/56
f 58/58/58 34/40/40 33/38/38 57/57/57
f 59/73/59 35/42/42 34/40/40 58/58/58
f 60/60/60 36/44/44 35/75/42 59/59/59
f 12/12/12 42/45/45 36/61/44 6/11/11
f 18/18/18 48/50/50 42/45/45 12/12/12
f 24/24/24 54/55/55 48/50/50 18/18/18
f 30/30/30 60/60/60 54/55/55 24/24/24
f 6/62/11 36/44/44 60/60/60 30/30/30
s 2
f 62/79/61 61/80/62 67/81/63 68/82/64
f 63/83/65 62/79/61 68/82/64 69/84/66
f 64/85/67 63/83/65 69/84/66 70/86/68
f 65/87/69 64/85/67 70/86/68 71/88/70
f 66/89/71 65/87/69 71/88/70 72/90/72
f 68/82/64 67/81/63 73/91/73 74/92/74
f 69/84/66 68/82/64 74/92/74 75/93/75
f 70/86/68 69/84/66 75/93/75 76/94/76
f 71/88/70 70/86/68 76/94/76 77/95/77
f 72/90/72 71/88/70 77/95/77 78/96/78
f 74/92/74 73/91/73 79/97/79 80/98/80
f 75/93/75 74/92/74 80/98/80 81/99/81
f 76/94/76 75/93/75 81/99/81 82/100/82
f 77/95/77 76/94/76 82/100/82 83/101/83
f 78/96/78 77/95/77 83/101/83 84/102/84
f 80/98/80 79/97/79 85/103/85 86/104/86
f 81/99/81 80/98/80 86/104/86 87/105/87
f 82/100/82 81/99/81 87/105/87 88/106/88
f 83/101/83 82/100/82 88/106/88 89/107/89
f 84/102/84 83/101/83 89/107/89 90/108/90
f 86/104/86 85/103/85 61/109/62 62/110/61
f 87/105/87 86/104/86 62/110/61 63/111/65
f 88/106/88 87/105/87 63/111/65 64/112/67
f 89/107/89 88/106/88 64/112/67 65/113/69
f 90/108/90 89/107/89 65/113/69 66/114/71
f 67/81/63 61/80/62 91/115/91 97/116/92
f 73/91/73 67/81/63 97/116/92 103/117/93
f 79/97/79 73/91/73 103/117/93 109/118/94
f 85/103/85 79/97/79 109/118/94 115/119/95
f 61/109/62 85/103/85 115/119/95 91/120/91
f 92/121/96 98/122/97 97/116/92 91/115/91
f 93/123/98 99/124/99 98/122/97 92/121/96
f 94/125/100 100/126/101 99/124/99 93/123/98
f 95/127/102 101/128/103 100/129/101 94/130/100
f 96/131/104 102/132/105 101/128/103 95/127/102
f 98/122/97 104/133/106 103/117/93 97/116/92
f 99/124/99 105/134/107 104/133/106 98/122/97
f 100/126/101 106/135/108 105/134/107 99/124/99
f 101/128/103 107/136/109 106/137/108 100/129/101
f 102/132/105 108/138/110 107/136/109 101/128/103
f 104/133/106 110/139/111 109/118/94 103/117/93
f 105/134/107 111/140/112 110/139/111 104/133/106
f 106/135/108 112/141/113 111/140/112 105/134/107
f 107/136/109 113/142/114 112/143/113 106/137/108
f 108/138/110 114/144/115 113/142/114 107/136/109
f 110/139/111 116/145/116 115/119/95 109/118/94
f 111/140/112 117/146/117 116/145/116 110/139/111
f 112/141/113 118/147/118 117/146/117 111/140/112
f 113/142/114 119/148/119 118/149/118 112/143/113
f 114/144/115 120/150/120 119/148/119 113/142/114
f 116/145/116 92/151/96 91/120/91 115/119/95
f 117/146/117 93/152/98 92/151/96 116/145/116
f 118/147/118 94/153/100 93/152/98 117/146/117
f 119/148/119 95/154/102 94/155/100 118/149/118
f 120/150/120 96/156/104 95/154/102 119/148/119
f 72/90/72 102/132/105 96/131/104 66/89/71
f 78/96/78 108/138/110 102/132/105 72/90/72
f 84/102/84 114/144/115 108/138/110 78/96/78
f 90/108/90 120/150/120 114/144/115 84/102/84
f 66/114/71 96/156/104 120/150/120 90/108/90
s 3
f 122/157/121 121/158/122 127/159/123 128/160/124
f 123/161/125 122/157/121 128/160/124 129/162/126
f 124/163/127 123/161/125 129/162/126 130/164/128
f 125/165/129 124/163/127 130/164/128 131/166/130
f 126/167/131 125/165/129 131/166/130 132/168/132
f 128/160/124 127/159/123 133/169/133 134/170/134
f 129/162/126 128/160/124 134/170/134 135/171/135
f 130/164/128 129/162/126 135/171/135 136/172/136
f 131/166/130 130/164/128 136/172/136 137/173/137
f 132/168/132 131/166/130 137/173/137 138/174/138
f 134/170/134 133/169/133 139/175/139 140/176/140
f 135/171/135 134/170/134 140/176/140 141/177/141
f 136/172/136 135/171/135 141/177/141 142/178/142
f 137/173/137 136/172/136 142/178/142 143/179/143
f 138/174/138 137/173/137 143/179/143 144/180/144
f 140/176/140 139/175/139 145/181/145 146/182/146
f 141/177/141 140/176/140 146/182/146 147/183/147
f 142/178/142 141/177/141 147/183/147 148/184/148
f 143/179/143 142/178/142 148/184/148 149/185/149
f 144/180/144 143/179/143 149/185/149 150/186/150
f 146/182/146 145/181/145 121/187/122 122/188/121
f 147/183/147 146/182/146 122/188/121 123/189/125
f 148/184/148 147/183/147 123/189/125 124/190/127
f 149/185/149 148/184/148 124/190/127 125/191/129
f 150/186/150 149/185/149 125/191/129 126/192/131
f 127/159/123 121/158/122 151/193/151 156/194/152
f 133/169/133 127/159/123 156/194/152 161/195/153
f 139/175/139 133/169/133 161/195/153 166/196/154
f 145/181/145 139/175/139 166/196/154 171/197/155
f 121/187/122 145/181/145 171/197/155 151/198/151
f 152/199/156 157/200/157 156/194/152 151/193/151
f 153/201/158 158/202/159 157/200/157 152/199/156
f 154/203/160 159/204/161 158/202/159 153/201/158
f 157/200/157 162/205/162 161/195/153 156/194/152
f 158/202/159 163/206/163 162/205/162 157/200/157
f 159/204/161 164/207/164 163/206/163 158/202/159
f 162/205/162 167/208/165 166/196/154 161/195/153
f 163/206/163 168/209/166 167/208/165 162/205/162
f 164/207/164 169/210/167 168/209/166 163/206/163
f 167/208/165 172/211/168 171/197/155 166/196/154
f 168/209/166 173/212/169 172/211/168 167/208/165
f 169/210/167 174/213/170 173/212/169 168/209/166
f 172/211/168 152/214/156 151/198/151 171/197/155
f 173/212/169 153/215/158 152/214/156 172/211/168
f 174/213/170 154/216/160 153/215/158 173/212/169
f 132/168/132 160/217/171 155/218/172 126/167/131
f 138/174/138 165/219/173 160/217/171 132/168/132
f 144/180/144 170/220/174 165/219/173 138/174/138
f 150/186/150 175/221/175 170/220/174 144/180/144
f 126/192/131 155/222/172 175/221/175 150/186/150
s 4
f 175/223/176 176/224/177 170/225/178
f 160/226/179 165/227/180 176/224/177
f 176/224/177 165/227/180 170/225/178
f 155/228/181 176/224/177 175/223/176
f 160/226/179 176/224/177 155/228/181
s 3
f 159/204/161 154/203/160 177/229/182 178/230/183
f 164/207/164 159/204/161 178/230/183 179/231/184
f 169/210/167 164/207/164 179/231/184 180/232/185
f 174/213/170 169/210/167 180/232/185 181/233/186
f 154/216/160 174/213/170 181/233/186 177/234/182
s 5
f 180/235/187 182/236/188 181/237/189
f 178/238/190 177/239/191 182/236/188
f 182/236/188 177/239/191 181/237/189
f 179/240/192 182/236/188 180/235/187
f 178/238/190 182/236/188 179/240/192
